<?xml version="1.0" encoding="utf-8" standalone="no"?>
<!DOCTYPE svg PUBLIC "-//W3C//DTD SVG 1.1//EN"
  "http://www.w3.org/Graphics/SVG/1.1/DTD/svg11.dtd">
<svg xmlns:xlink="http://www.w3.org/1999/xlink" width="471.563969pt" height="281.52pt" viewBox="0 0 471.563969 281.52" xmlns="http://www.w3.org/2000/svg" version="1.1">
 <metadata>
  <rdf:RDF xmlns:dc="http://purl.org/dc/elements/1.1/" xmlns:cc="http://creativecommons.org/ns#" xmlns:rdf="http://www.w3.org/1999/02/22-rdf-syntax-ns#">
   <cc:Work>
    <dc:type rdf:resource="http://purl.org/dc/dcmitype/StillImage"/>
    <dc:date>2025-04-17T12:40:40.204315</dc:date>
    <dc:format>image/svg+xml</dc:format>
    <dc:creator>
     <cc:Agent>
      <dc:title>Matplotlib v3.10.1, https://matplotlib.org/</dc:title>
     </cc:Agent>
    </dc:creator>
   </cc:Work>
  </rdf:RDF>
 </metadata>
 <defs>
  <style type="text/css">*{stroke-linejoin: round; stroke-linecap: butt}</style>
 </defs>
 <g id="figure_1">
  <g id="patch_1">
   <path d="M 0 281.52 
L 471.563969 281.52 
L 471.563969 0 
L 0 0 
L 0 281.52 
z
" style="fill: none"/>
  </g>
  <g id="axes_1">
   <g id="patch_2">
    <path d="M 56.088368 139.042928 
C 60.853898 139.042928 65.424886 137.149562 68.794625 133.779823 
C 72.164364 130.410085 74.057729 125.839096 74.057729 121.073566 
C 74.057729 116.308036 72.164364 111.737047 68.794625 108.367308 
C 65.424886 104.99757 60.853898 103.104204 56.088368 103.104204 
C 51.322837 103.104204 46.751849 104.99757 43.38211 108.367308 
C 40.012371 111.737047 38.119006 116.308036 38.119006 121.073566 
C 38.119006 125.839096 40.012371 130.410085 43.38211 133.779823 
C 46.751849 137.149562 51.322837 139.042928 56.088368 139.042928 
L 56.088368 139.042928 
z
" clip-path="url(#peb6d5fc818)" style="fill: none; stroke: #000000; stroke-width: 2; stroke-linejoin: miter"/>
   </g>
   <g id="patch_3">
    <path d="M 415.475602 139.042928 
C 420.241132 139.042928 424.81212 137.149562 428.181859 133.779823 
C 431.551598 130.410085 433.444963 125.839096 433.444963 121.073566 
C 433.444963 116.308036 431.551598 111.737047 428.181859 108.367308 
C 424.81212 104.99757 420.241132 103.104204 415.475602 103.104204 
C 410.710071 103.104204 406.139083 104.99757 402.769344 108.367308 
C 399.399605 111.737047 397.50624 116.308036 397.50624 121.073566 
C 397.50624 125.839096 399.399605 130.410085 402.769344 133.779823 
C 406.139083 137.149562 410.710071 139.042928 415.475602 139.042928 
L 415.475602 139.042928 
z
" clip-path="url(#peb6d5fc818)" style="fill: none; stroke: #000000; stroke-width: 2; stroke-linejoin: miter"/>
   </g>
   <g id="patch_4">
    <path d="M 432.546495 221.073064 
C 432.546495 217.498096 427.4568 213.95789 417.568689 210.65505 
C 407.680578 207.35221 393.186351 204.350968 374.915504 201.823084 
C 356.644658 199.295199 334.952514 197.289834 311.080503 195.921753 
C 287.208492 194.553672 261.620863 193.849481 235.781985 193.849481 
C 209.943106 193.849481 184.355478 194.553672 160.483466 195.921753 
C 136.611455 197.289834 114.919311 199.295199 96.648465 201.823084 
C 78.377618 204.350968 63.883391 207.35221 53.995281 210.65505 
C 44.10717 213.95789 39.017474 217.498096 39.017474 221.073064 
C 39.017474 224.648032 44.10717 228.188238 53.995281 231.491078 
C 63.883391 234.793918 78.377618 237.79516 96.648465 240.323044 
C 114.919311 242.850928 136.611455 244.856294 160.483466 246.224375 
C 184.355478 247.592456 209.943106 248.296647 235.781985 248.296647 
C 261.620863 248.296647 287.208492 247.592456 311.080503 246.224375 
C 334.952514 244.856294 356.644658 242.850928 374.915504 240.323044 
C 393.186351 237.79516 407.680578 234.793918 417.568689 231.491078 
C 427.4568 228.188238 432.546495 224.648032 432.546495 221.073064 
" clip-path="url(#peb6d5fc818)" style="fill: none; stroke-dasharray: 3.7,1.6; stroke-dashoffset: 0; stroke: #0000ff; stroke-linejoin: miter"/>
   </g>
   <g id="patch_5">
    <path d="M 239.474666 250.855011 
C 255.997517 262.302378 249.259006 269.859881 289.69007 269.859881 
" clip-path="url(#peb6d5fc818)" style="fill: none; stroke: #0000ff; stroke-width: 2; stroke-linejoin: miter; stroke-linecap: round"/>
   </g>
   <g id="patch_6">
    <path d="M 241.120655 256.367521 
L 235.781985 248.296647 
L 245.214038 250.459231 
z
" clip-path="url(#peb6d5fc818)" style="fill: #0000ff"/>
   </g>
   <g id="line2d_1">
    <path d="M 56.088368 210.920374 
L 56.088368 139.042928 
L 56.088368 139.042928 
M 56.088368 103.104204 
L 56.088368 103.104204 
L 56.088368 31.226757 
" clip-path="url(#peb6d5fc818)" style="fill: none; stroke: #000000; stroke-width: 2; stroke-linecap: round"/>
   </g>
   <g id="line2d_2">
    <path d="M 59.68224 130.058247 
L 52.494495 130.058247 
" clip-path="url(#peb6d5fc818)" style="fill: none; stroke: #000000; stroke-width: 2; stroke-linecap: round"/>
   </g>
   <g id="line2d_3">
    <path d="M 56.088368 115.682757 
L 56.088368 108.495013 
" clip-path="url(#peb6d5fc818)" style="fill: none; stroke: #000000; stroke-width: 2; stroke-linecap: round"/>
   </g>
   <g id="line2d_4">
    <path d="M 59.68224 112.088885 
L 52.494495 112.088885 
" clip-path="url(#peb6d5fc818)" style="fill: none; stroke: #000000; stroke-width: 2; stroke-linecap: round"/>
   </g>
   <g id="line2d_5">
    <path d="M 56.088368 31.226757 
L 127.965814 31.226757 
L 130.960708 22.242077 
L 136.950495 40.211438 
L 142.940283 22.242077 
L 148.93007 40.211438 
L 154.919857 22.242077 
L 160.909644 40.211438 
L 163.904538 31.226757 
L 235.781985 31.226757 
" clip-path="url(#peb6d5fc818)" style="fill: none; stroke: #000000; stroke-width: 2; stroke-linecap: round"/>
   </g>
   <g id="line2d_6">
    <path d="M 235.781985 31.226757 
L 235.781985 103.104204 
L 244.766666 106.099098 
L 226.797304 112.088885 
L 244.766666 118.078672 
L 226.797304 124.06846 
L 244.766666 130.058247 
L 226.797304 136.048034 
L 235.781985 139.042928 
L 235.781985 210.920374 
" clip-path="url(#peb6d5fc818)" style="fill: none; stroke: #000000; stroke-width: 2; stroke-linecap: round"/>
   </g>
   <g id="line2d_7">
    <path d="M 235.781985 31.226757 
L 307.659431 31.226757 
L 310.654325 22.242077 
L 316.644112 40.211438 
L 322.6339 22.242077 
L 328.623687 40.211438 
L 334.613474 22.242077 
L 340.603261 40.211438 
L 343.598155 31.226757 
L 415.475602 31.226757 
" clip-path="url(#peb6d5fc818)" style="fill: none; stroke: #000000; stroke-width: 2; stroke-linecap: round"/>
   </g>
   <g id="line2d_8">
    <path d="M 415.475602 31.226757 
L 415.475602 103.104204 
L 415.475602 103.104204 
M 415.475602 139.042928 
L 415.475602 139.042928 
L 415.475602 210.920374 
" clip-path="url(#peb6d5fc818)" style="fill: none; stroke: #000000; stroke-width: 2; stroke-linecap: round"/>
   </g>
   <g id="line2d_9">
    <path d="M 419.069474 130.058247 
L 411.881729 130.058247 
" clip-path="url(#peb6d5fc818)" style="fill: none; stroke: #000000; stroke-width: 2; stroke-linecap: round"/>
   </g>
   <g id="line2d_10">
    <path d="M 415.475602 108.495013 
L 415.475602 115.682757 
" clip-path="url(#peb6d5fc818)" style="fill: none; stroke: #000000; stroke-width: 2; stroke-linecap: round"/>
   </g>
   <g id="line2d_11">
    <path d="M 419.069474 112.088885 
L 411.881729 112.088885 
" clip-path="url(#peb6d5fc818)" style="fill: none; stroke: #000000; stroke-width: 2; stroke-linecap: round"/>
   </g>
   <g id="line2d_12">
    <path d="M 415.475602 210.920374 
L 235.781985 210.920374 
L 56.088368 210.920374 
" clip-path="url(#peb6d5fc818)" style="fill: none; stroke: #000000; stroke-width: 2; stroke-linecap: round"/>
   </g>
   <g id="line2d_13">
    <path d="M 235.781985 210.920374 
L 235.781985 225.295864 
L 226.797304 225.295864 
L 244.766666 225.295864 
M 229.492708 229.608511 
L 242.071261 229.608511 
M 233.985049 233.921157 
L 237.578921 233.921157 
" clip-path="url(#peb6d5fc818)" style="fill: none; stroke: #000000; stroke-width: 2; stroke-linecap: round"/>
   </g>
   <g id="text_1">
    <!-- 6V -->
    <g transform="translate(77.651602 124.936691) scale(0.14 -0.14)">
     <defs>
      <path id="DejaVuSans-36" d="M 2113 2584 
Q 1688 2584 1439 2293 
Q 1191 2003 1191 1497 
Q 1191 994 1439 701 
Q 1688 409 2113 409 
Q 2538 409 2786 701 
Q 3034 994 3034 1497 
Q 3034 2003 2786 2293 
Q 2538 2584 2113 2584 
z
M 3366 4563 
L 3366 3988 
Q 3128 4100 2886 4159 
Q 2644 4219 2406 4219 
Q 1781 4219 1451 3797 
Q 1122 3375 1075 2522 
Q 1259 2794 1537 2939 
Q 1816 3084 2150 3084 
Q 2853 3084 3261 2657 
Q 3669 2231 3669 1497 
Q 3669 778 3244 343 
Q 2819 -91 2113 -91 
Q 1303 -91 875 529 
Q 447 1150 447 2328 
Q 447 3434 972 4092 
Q 1497 4750 2381 4750 
Q 2619 4750 2861 4703 
Q 3103 4656 3366 4563 
z
" transform="scale(0.015625)"/>
      <path id="DejaVuSans-56" d="M 1831 0 
L 50 4666 
L 709 4666 
L 2188 738 
L 3669 4666 
L 4325 4666 
L 2547 0 
L 1831 0 
z
" transform="scale(0.015625)"/>
     </defs>
     <use xlink:href="#DejaVuSans-36"/>
     <use xlink:href="#DejaVuSans-56" transform="translate(63.623047 0)"/>
    </g>
   </g>
   <g id="text_2">
    <!-- $V_{S1}$ -->
    <g transform="translate(11.985134 124.936691) scale(0.14 -0.14)">
     <defs>
      <path id="DejaVuSans-Oblique-56" d="M 1319 0 
L 500 4666 
L 1119 4666 
L 1797 653 
L 4063 4666 
L 4750 4666 
L 2053 0 
L 1319 0 
z
" transform="scale(0.015625)"/>
      <path id="DejaVuSans-Oblique-53" d="M 3859 4513 
L 3738 3897 
Q 3422 4066 3111 4152 
Q 2800 4238 2509 4238 
Q 1944 4238 1609 3991 
Q 1275 3744 1275 3334 
Q 1275 3109 1398 2989 
Q 1522 2869 2034 2731 
L 2413 2638 
Q 3053 2472 3303 2217 
Q 3553 1963 3553 1503 
Q 3553 797 2998 353 
Q 2444 -91 1538 -91 
Q 1166 -91 791 -17 
Q 416 56 38 206 
L 166 856 
Q 513 641 861 531 
Q 1209 422 1556 422 
Q 2147 422 2503 684 
Q 2859 947 2859 1369 
Q 2859 1650 2717 1795 
Q 2575 1941 2106 2059 
L 1728 2156 
Q 1081 2325 845 2545 
Q 609 2766 609 3163 
Q 609 3859 1145 4304 
Q 1681 4750 2541 4750 
Q 2875 4750 3203 4690 
Q 3531 4631 3859 4513 
z
" transform="scale(0.015625)"/>
      <path id="DejaVuSans-31" d="M 794 531 
L 1825 531 
L 1825 4091 
L 703 3866 
L 703 4441 
L 1819 4666 
L 2450 4666 
L 2450 531 
L 3481 531 
L 3481 0 
L 794 0 
L 794 531 
z
" transform="scale(0.015625)"/>
     </defs>
     <use xlink:href="#DejaVuSans-Oblique-56" transform="translate(0 0.09375)"/>
     <use xlink:href="#DejaVuSans-Oblique-53" transform="translate(68.408203 -16.3125) scale(0.7)"/>
     <use xlink:href="#DejaVuSans-31" transform="translate(112.841797 -16.3125) scale(0.7)"/>
    </g>
   </g>
   <g id="text_3">
    <!-- 6Ω -->
    <g transform="translate(136.131895 54.443123) scale(0.14 -0.14)">
     <defs>
      <path id="DejaVuSans-3a9" d="M 4647 556 
L 4647 0 
L 2772 0 
L 2772 556 
Q 3325 859 3634 1378 
Q 3944 1897 3944 2528 
Q 3944 3278 3531 3731 
Q 3119 4184 2444 4184 
Q 1769 4184 1355 3729 
Q 941 3275 941 2528 
Q 941 1897 1250 1378 
Q 1563 859 2119 556 
L 2119 0 
L 244 0 
L 244 556 
L 1241 556 
Q 747 991 519 1456 
Q 294 1922 294 2497 
Q 294 3491 894 4106 
Q 1491 4722 2444 4722 
Q 3391 4722 3994 4106 
Q 4594 3494 4594 2528 
Q 4594 1922 4372 1459 
Q 4150 997 3647 556 
L 4647 556 
z
" transform="scale(0.015625)"/>
     </defs>
     <use xlink:href="#DejaVuSans-36"/>
     <use xlink:href="#DejaVuSans-3a9" transform="translate(63.623047 0)"/>
    </g>
   </g>
   <g id="text_4">
    <!-- $R_1$ -->
    <g transform="translate(137.745176 15.736642) scale(0.14 -0.14)">
     <defs>
      <path id="DejaVuSans-Oblique-52" d="M 1613 4147 
L 1294 2491 
L 2106 2491 
Q 2584 2491 2879 2755 
Q 3175 3019 3175 3444 
Q 3175 3784 2976 3965 
Q 2778 4147 2406 4147 
L 1613 4147 
z
M 2772 2241 
Q 2972 2194 3105 2009 
Q 3238 1825 3413 1275 
L 3809 0 
L 3144 0 
L 2778 1197 
Q 2638 1659 2453 1815 
Q 2269 1972 1888 1972 
L 1191 1972 
L 806 0 
L 172 0 
L 1081 4666 
L 2503 4666 
Q 3150 4666 3495 4373 
Q 3841 4081 3841 3531 
Q 3841 3044 3547 2687 
Q 3253 2331 2772 2241 
z
" transform="scale(0.015625)"/>
     </defs>
     <use xlink:href="#DejaVuSans-Oblique-52" transform="translate(0 0.09375)"/>
     <use xlink:href="#DejaVuSans-31" transform="translate(69.482422 -16.3125) scale(0.7)"/>
    </g>
   </g>
   <g id="text_5">
    <!-- 3Ω -->
    <g transform="translate(248.360538 124.936691) scale(0.14 -0.14)">
     <defs>
      <path id="DejaVuSans-33" d="M 2597 2516 
Q 3050 2419 3304 2112 
Q 3559 1806 3559 1356 
Q 3559 666 3084 287 
Q 2609 -91 1734 -91 
Q 1441 -91 1130 -33 
Q 819 25 488 141 
L 488 750 
Q 750 597 1062 519 
Q 1375 441 1716 441 
Q 2309 441 2620 675 
Q 2931 909 2931 1356 
Q 2931 1769 2642 2001 
Q 2353 2234 1838 2234 
L 1294 2234 
L 1294 2753 
L 1863 2753 
Q 2328 2753 2575 2939 
Q 2822 3125 2822 3475 
Q 2822 3834 2567 4026 
Q 2313 4219 1838 4219 
Q 1578 4219 1281 4162 
Q 984 4106 628 3988 
L 628 4550 
Q 988 4650 1302 4700 
Q 1616 4750 1894 4750 
Q 2613 4750 3031 4423 
Q 3450 4097 3450 3541 
Q 3450 3153 3228 2886 
Q 3006 2619 2597 2516 
z
" transform="scale(0.015625)"/>
     </defs>
     <use xlink:href="#DejaVuSans-33"/>
     <use xlink:href="#DejaVuSans-3a9" transform="translate(63.623047 0)"/>
    </g>
   </g>
   <g id="text_6">
    <!-- $R_2$ -->
    <g transform="translate(206.823431 124.936691) scale(0.14 -0.14)">
     <defs>
      <path id="DejaVuSans-32" d="M 1228 531 
L 3431 531 
L 3431 0 
L 469 0 
L 469 531 
Q 828 903 1448 1529 
Q 2069 2156 2228 2338 
Q 2531 2678 2651 2914 
Q 2772 3150 2772 3378 
Q 2772 3750 2511 3984 
Q 2250 4219 1831 4219 
Q 1534 4219 1204 4116 
Q 875 4013 500 3803 
L 500 4441 
Q 881 4594 1212 4672 
Q 1544 4750 1819 4750 
Q 2544 4750 2975 4387 
Q 3406 4025 3406 3419 
Q 3406 3131 3298 2873 
Q 3191 2616 2906 2266 
Q 2828 2175 2409 1742 
Q 1991 1309 1228 531 
z
" transform="scale(0.015625)"/>
     </defs>
     <use xlink:href="#DejaVuSans-Oblique-52" transform="translate(0 0.09375)"/>
     <use xlink:href="#DejaVuSans-32" transform="translate(69.482422 -16.3125) scale(0.7)"/>
    </g>
   </g>
   <g id="text_7">
    <!-- 6Ω -->
    <g transform="translate(315.825512 54.443123) scale(0.14 -0.14)">
     <use xlink:href="#DejaVuSans-36"/>
     <use xlink:href="#DejaVuSans-3a9" transform="translate(63.623047 0)"/>
    </g>
   </g>
   <g id="text_8">
    <!-- $R_3$ -->
    <g transform="translate(317.438793 15.736642) scale(0.14 -0.14)">
     <use xlink:href="#DejaVuSans-Oblique-52" transform="translate(0 0.09375)"/>
     <use xlink:href="#DejaVuSans-33" transform="translate(69.482422 -16.3125) scale(0.7)"/>
    </g>
   </g>
   <g id="text_9">
    <!-- 3V -->
    <g transform="translate(375.427993 124.936691) scale(0.14 -0.14)">
     <use xlink:href="#DejaVuSans-33"/>
     <use xlink:href="#DejaVuSans-56" transform="translate(63.623047 0)"/>
    </g>
   </g>
   <g id="text_10">
    <!-- $V_{S2}$ -->
    <g transform="translate(437.038836 124.936691) scale(0.14 -0.14)">
     <use xlink:href="#DejaVuSans-Oblique-56" transform="translate(0 0.09375)"/>
     <use xlink:href="#DejaVuSans-Oblique-53" transform="translate(68.408203 -16.3125) scale(0.7)"/>
     <use xlink:href="#DejaVuSans-32" transform="translate(112.841797 -16.3125) scale(0.7)"/>
    </g>
   </g>
   <g id="text_11">
    <!-- $V_G = 0$ -->
    <g transform="translate(248.360538 226.283891) scale(0.14 -0.14)">
     <defs>
      <path id="DejaVuSans-Oblique-47" d="M 3494 697 
L 3738 1919 
L 2700 1919 
L 2797 2438 
L 4453 2438 
L 4050 384 
Q 3634 156 3143 32 
Q 2653 -91 2156 -91 
Q 1278 -91 783 396 
Q 288 884 288 1753 
Q 288 2475 589 3126 
Q 891 3778 1422 4213 
Q 1756 4484 2153 4617 
Q 2550 4750 3034 4750 
Q 3472 4750 3873 4639 
Q 4275 4528 4641 4306 
L 4513 3634 
Q 4231 3928 3853 4083 
Q 3475 4238 3047 4238 
Q 2550 4238 2172 4048 
Q 1794 3859 1497 3463 
Q 1244 3125 1098 2667 
Q 953 2209 953 1734 
Q 953 1081 1287 751 
Q 1622 422 2284 422 
Q 2616 422 2925 492 
Q 3234 563 3494 697 
z
" transform="scale(0.015625)"/>
      <path id="DejaVuSans-3d" d="M 678 2906 
L 4684 2906 
L 4684 2381 
L 678 2381 
L 678 2906 
z
M 678 1631 
L 4684 1631 
L 4684 1100 
L 678 1100 
L 678 1631 
z
" transform="scale(0.015625)"/>
      <path id="DejaVuSans-30" d="M 2034 4250 
Q 1547 4250 1301 3770 
Q 1056 3291 1056 2328 
Q 1056 1369 1301 889 
Q 1547 409 2034 409 
Q 2525 409 2770 889 
Q 3016 1369 3016 2328 
Q 3016 3291 2770 3770 
Q 2525 4250 2034 4250 
z
M 2034 4750 
Q 2819 4750 3233 4129 
Q 3647 3509 3647 2328 
Q 3647 1150 3233 529 
Q 2819 -91 2034 -91 
Q 1250 -91 836 529 
Q 422 1150 422 2328 
Q 422 3509 836 4129 
Q 1250 4750 2034 4750 
z
" transform="scale(0.015625)"/>
     </defs>
     <use xlink:href="#DejaVuSans-Oblique-56" transform="translate(0 0.78125)"/>
     <use xlink:href="#DejaVuSans-Oblique-47" transform="translate(68.408203 -15.625) scale(0.7)"/>
     <use xlink:href="#DejaVuSans-3d" transform="translate(144.868164 0.78125)"/>
     <use xlink:href="#DejaVuSans-30" transform="translate(248.139648 0.78125)"/>
    </g>
   </g>
   <g id="text_12">
    <!-- Common Node -->
    <g style="fill: #0000ff" transform="translate(293.283942 273.723006) scale(0.14 -0.14)">
     <defs>
      <path id="DejaVuSans-43" d="M 4122 4306 
L 4122 3641 
Q 3803 3938 3442 4084 
Q 3081 4231 2675 4231 
Q 1875 4231 1450 3742 
Q 1025 3253 1025 2328 
Q 1025 1406 1450 917 
Q 1875 428 2675 428 
Q 3081 428 3442 575 
Q 3803 722 4122 1019 
L 4122 359 
Q 3791 134 3420 21 
Q 3050 -91 2638 -91 
Q 1578 -91 968 557 
Q 359 1206 359 2328 
Q 359 3453 968 4101 
Q 1578 4750 2638 4750 
Q 3056 4750 3426 4639 
Q 3797 4528 4122 4306 
z
" transform="scale(0.015625)"/>
      <path id="DejaVuSans-6f" d="M 1959 3097 
Q 1497 3097 1228 2736 
Q 959 2375 959 1747 
Q 959 1119 1226 758 
Q 1494 397 1959 397 
Q 2419 397 2687 759 
Q 2956 1122 2956 1747 
Q 2956 2369 2687 2733 
Q 2419 3097 1959 3097 
z
M 1959 3584 
Q 2709 3584 3137 3096 
Q 3566 2609 3566 1747 
Q 3566 888 3137 398 
Q 2709 -91 1959 -91 
Q 1206 -91 779 398 
Q 353 888 353 1747 
Q 353 2609 779 3096 
Q 1206 3584 1959 3584 
z
" transform="scale(0.015625)"/>
      <path id="DejaVuSans-6d" d="M 3328 2828 
Q 3544 3216 3844 3400 
Q 4144 3584 4550 3584 
Q 5097 3584 5394 3201 
Q 5691 2819 5691 2113 
L 5691 0 
L 5113 0 
L 5113 2094 
Q 5113 2597 4934 2840 
Q 4756 3084 4391 3084 
Q 3944 3084 3684 2787 
Q 3425 2491 3425 1978 
L 3425 0 
L 2847 0 
L 2847 2094 
Q 2847 2600 2669 2842 
Q 2491 3084 2119 3084 
Q 1678 3084 1418 2786 
Q 1159 2488 1159 1978 
L 1159 0 
L 581 0 
L 581 3500 
L 1159 3500 
L 1159 2956 
Q 1356 3278 1631 3431 
Q 1906 3584 2284 3584 
Q 2666 3584 2933 3390 
Q 3200 3197 3328 2828 
z
" transform="scale(0.015625)"/>
      <path id="DejaVuSans-6e" d="M 3513 2113 
L 3513 0 
L 2938 0 
L 2938 2094 
Q 2938 2591 2744 2837 
Q 2550 3084 2163 3084 
Q 1697 3084 1428 2787 
Q 1159 2491 1159 1978 
L 1159 0 
L 581 0 
L 581 3500 
L 1159 3500 
L 1159 2956 
Q 1366 3272 1645 3428 
Q 1925 3584 2291 3584 
Q 2894 3584 3203 3211 
Q 3513 2838 3513 2113 
z
" transform="scale(0.015625)"/>
      <path id="DejaVuSans-20" transform="scale(0.015625)"/>
      <path id="DejaVuSans-4e" d="M 628 4666 
L 1478 4666 
L 3547 763 
L 3547 4666 
L 4159 4666 
L 4159 0 
L 3309 0 
L 1241 3903 
L 1241 0 
L 628 0 
L 628 4666 
z
" transform="scale(0.015625)"/>
      <path id="DejaVuSans-64" d="M 2906 2969 
L 2906 4863 
L 3481 4863 
L 3481 0 
L 2906 0 
L 2906 525 
Q 2725 213 2448 61 
Q 2172 -91 1784 -91 
Q 1150 -91 751 415 
Q 353 922 353 1747 
Q 353 2572 751 3078 
Q 1150 3584 1784 3584 
Q 2172 3584 2448 3432 
Q 2725 3281 2906 2969 
z
M 947 1747 
Q 947 1113 1208 752 
Q 1469 391 1925 391 
Q 2381 391 2643 752 
Q 2906 1113 2906 1747 
Q 2906 2381 2643 2742 
Q 2381 3103 1925 3103 
Q 1469 3103 1208 2742 
Q 947 2381 947 1747 
z
" transform="scale(0.015625)"/>
      <path id="DejaVuSans-65" d="M 3597 1894 
L 3597 1613 
L 953 1613 
Q 991 1019 1311 708 
Q 1631 397 2203 397 
Q 2534 397 2845 478 
Q 3156 559 3463 722 
L 3463 178 
Q 3153 47 2828 -22 
Q 2503 -91 2169 -91 
Q 1331 -91 842 396 
Q 353 884 353 1716 
Q 353 2575 817 3079 
Q 1281 3584 2069 3584 
Q 2775 3584 3186 3129 
Q 3597 2675 3597 1894 
z
M 3022 2063 
Q 3016 2534 2758 2815 
Q 2500 3097 2075 3097 
Q 1594 3097 1305 2825 
Q 1016 2553 972 2059 
L 3022 2063 
z
" transform="scale(0.015625)"/>
     </defs>
     <use xlink:href="#DejaVuSans-43"/>
     <use xlink:href="#DejaVuSans-6f" transform="translate(69.824219 0)"/>
     <use xlink:href="#DejaVuSans-6d" transform="translate(131.005859 0)"/>
     <use xlink:href="#DejaVuSans-6d" transform="translate(228.417969 0)"/>
     <use xlink:href="#DejaVuSans-6f" transform="translate(325.830078 0)"/>
     <use xlink:href="#DejaVuSans-6e" transform="translate(387.011719 0)"/>
     <use xlink:href="#DejaVuSans-20" transform="translate(450.390625 0)"/>
     <use xlink:href="#DejaVuSans-4e" transform="translate(482.177734 0)"/>
     <use xlink:href="#DejaVuSans-6f" transform="translate(556.982422 0)"/>
     <use xlink:href="#DejaVuSans-64" transform="translate(618.164062 0)"/>
     <use xlink:href="#DejaVuSans-65" transform="translate(681.640625 0)"/>
    </g>
   </g>
   <g id="patch_7">
    <path d="M 235.781985 33.922162 
C 236.496814 33.922162 237.182462 33.638157 237.687923 33.132696 
C 238.193384 32.627235 238.477389 31.941587 238.477389 31.226757 
C 238.477389 30.511928 238.193384 29.82628 237.687923 29.320819 
C 237.182462 28.815358 236.496814 28.531353 235.781985 28.531353 
C 235.067155 28.531353 234.381507 28.815358 233.876046 29.320819 
C 233.370585 29.82628 233.08658 30.511928 233.08658 31.226757 
C 233.08658 31.941587 233.370585 32.627235 233.876046 33.132696 
C 234.381507 33.638157 235.067155 33.922162 235.781985 33.922162 
z
" clip-path="url(#peb6d5fc818)" style="stroke: #000000; stroke-width: 2; stroke-linejoin: miter"/>
   </g>
   <g id="text_13">
    <!-- $V_1$ -->
    <g transform="translate(227.661985 22.025918) scale(0.14 -0.14)">
     <use xlink:href="#DejaVuSans-Oblique-56" transform="translate(0 0.09375)"/>
     <use xlink:href="#DejaVuSans-31" transform="translate(68.408203 -16.3125) scale(0.7)"/>
    </g>
   </g>
   <g id="patch_8">
    <path d="M 235.781985 213.615779 
C 236.496814 213.615779 237.182462 213.331774 237.687923 212.826313 
C 238.193384 212.320852 238.477389 211.635204 238.477389 210.920374 
C 238.477389 210.205545 238.193384 209.519897 237.687923 209.014436 
C 237.182462 208.508975 236.496814 208.22497 235.781985 208.22497 
C 235.067155 208.22497 234.381507 208.508975 233.876046 209.014436 
C 233.370585 209.519897 233.08658 210.205545 233.08658 210.920374 
C 233.08658 211.635204 233.370585 212.320852 233.876046 212.826313 
C 234.381507 213.331774 235.067155 213.615779 235.781985 213.615779 
z
" clip-path="url(#peb6d5fc818)" style="stroke: #000000; stroke-width: 2; stroke-linejoin: miter"/>
   </g>
   <g id="patch_9">
    <path d="M 56.088368 33.922162 
C 56.803197 33.922162 57.488845 33.638157 57.994306 33.132696 
C 58.499767 32.627235 58.783772 31.941587 58.783772 31.226757 
C 58.783772 30.511928 58.499767 29.82628 57.994306 29.320819 
C 57.488845 28.815358 56.803197 28.531353 56.088368 28.531353 
C 55.373538 28.531353 54.68789 28.815358 54.182429 29.320819 
C 53.676968 29.82628 53.392963 30.511928 53.392963 31.226757 
C 53.392963 31.941587 53.676968 32.627235 54.182429 33.132696 
C 54.68789 33.638157 55.373538 33.922162 56.088368 33.922162 
z
" clip-path="url(#peb6d5fc818)" style="stroke: #000000; stroke-width: 2; stroke-linejoin: miter"/>
   </g>
   <g id="text_14">
    <!-- $V_2$ -->
    <g transform="translate(47.968368 22.025918) scale(0.14 -0.14)">
     <use xlink:href="#DejaVuSans-Oblique-56" transform="translate(0 0.09375)"/>
     <use xlink:href="#DejaVuSans-32" transform="translate(68.408203 -16.3125) scale(0.7)"/>
    </g>
   </g>
   <g id="patch_10">
    <path d="M 415.475602 33.922162 
C 416.190431 33.922162 416.876079 33.638157 417.38154 33.132696 
C 417.887001 32.627235 418.171006 31.941587 418.171006 31.226757 
C 418.171006 30.511928 417.887001 29.82628 417.38154 29.320819 
C 416.876079 28.815358 416.190431 28.531353 415.475602 28.531353 
C 414.760772 28.531353 414.075124 28.815358 413.569663 29.320819 
C 413.064202 29.82628 412.780197 30.511928 412.780197 31.226757 
C 412.780197 31.941587 413.064202 32.627235 413.569663 33.132696 
C 414.075124 33.638157 414.760772 33.922162 415.475602 33.922162 
z
" clip-path="url(#peb6d5fc818)" style="stroke: #000000; stroke-width: 2; stroke-linejoin: miter"/>
   </g>
   <g id="text_15">
    <!-- $V_3$ -->
    <g transform="translate(407.355602 22.025918) scale(0.14 -0.14)">
     <use xlink:href="#DejaVuSans-Oblique-56" transform="translate(0 0.09375)"/>
     <use xlink:href="#DejaVuSans-33" transform="translate(68.408203 -16.3125) scale(0.7)"/>
    </g>
   </g>
   <g id="patch_11">
    <path d="M 56.088368 213.615779 
C 56.803197 213.615779 57.488845 213.331774 57.994306 212.826313 
C 58.499767 212.320852 58.783772 211.635204 58.783772 210.920374 
C 58.783772 210.205545 58.499767 209.519897 57.994306 209.014436 
C 57.488845 208.508975 56.803197 208.22497 56.088368 208.22497 
C 55.373538 208.22497 54.68789 208.508975 54.182429 209.014436 
C 53.676968 209.519897 53.392963 210.205545 53.392963 210.920374 
C 53.392963 211.635204 53.676968 212.320852 54.182429 212.826313 
C 54.68789 213.331774 55.373538 213.615779 56.088368 213.615779 
z
" clip-path="url(#peb6d5fc818)" style="stroke: #000000; stroke-width: 2; stroke-linejoin: miter"/>
   </g>
   <g id="patch_12">
    <path d="M 415.475602 213.615779 
C 416.190431 213.615779 416.876079 213.331774 417.38154 212.826313 
C 417.887001 212.320852 418.171006 211.635204 418.171006 210.920374 
C 418.171006 210.205545 417.887001 209.519897 417.38154 209.014436 
C 416.876079 208.508975 416.190431 208.22497 415.475602 208.22497 
C 414.760772 208.22497 414.075124 208.508975 413.569663 209.014436 
C 413.064202 209.519897 412.780197 210.205545 412.780197 210.920374 
C 412.780197 211.635204 413.064202 212.320852 413.569663 212.826313 
C 414.075124 213.331774 414.760772 213.615779 415.475602 213.615779 
z
" clip-path="url(#peb6d5fc818)" style="stroke: #000000; stroke-width: 2; stroke-linejoin: miter"/>
   </g>
  </g>
 </g>
 <defs>
  <clipPath id="peb6d5fc818">
   <rect x="0" y="0" width="471.563969" height="281.52"/>
  </clipPath>
 </defs>
</svg>
