<?xml version="1.0" encoding="utf-8" standalone="no"?>
<!DOCTYPE svg PUBLIC "-//W3C//DTD SVG 1.1//EN"
  "http://www.w3.org/Graphics/SVG/1.1/DTD/svg11.dtd">
<svg xmlns:xlink="http://www.w3.org/1999/xlink" width="399.026866pt" height="202.32pt" viewBox="0 0 399.026866 202.32" xmlns="http://www.w3.org/2000/svg" version="1.1">
 <metadata>
  <rdf:RDF xmlns:dc="http://purl.org/dc/elements/1.1/" xmlns:cc="http://creativecommons.org/ns#" xmlns:rdf="http://www.w3.org/1999/02/22-rdf-syntax-ns#">
   <cc:Work>
    <dc:type rdf:resource="http://purl.org/dc/dcmitype/StillImage"/>
    <dc:date>2025-04-24T16:05:55.009124</dc:date>
    <dc:format>image/svg+xml</dc:format>
    <dc:creator>
     <cc:Agent>
      <dc:title>Matplotlib v3.10.1, https://matplotlib.org/</dc:title>
     </cc:Agent>
    </dc:creator>
   </cc:Work>
  </rdf:RDF>
 </metadata>
 <defs>
  <style type="text/css">*{stroke-linejoin: round; stroke-linecap: butt}</style>
 </defs>
 <g id="figure_1">
  <g id="patch_1">
   <path d="M 0 202.32 
L 399.026866 202.32 
L 399.026866 0 
L 0 0 
L 0 202.32 
z
" style="fill: none"/>
  </g>
  <g id="axes_1">
   <g id="patch_2">
    <path d="M 55.995797 120.873742 
C 60.753463 120.873742 65.316907 118.983501 68.681084 115.619324 
C 72.045261 112.255147 73.935502 107.691703 73.935502 102.934037 
C 73.935502 98.176372 72.045261 93.612928 68.681084 90.248751 
C 65.316907 86.884573 60.753463 84.994333 55.995797 84.994333 
C 51.238132 84.994333 46.674688 86.884573 43.310511 90.248751 
C 39.946333 93.612928 38.056093 98.176372 38.056093 102.934037 
C 38.056093 107.691703 39.946333 112.255147 43.310511 115.619324 
C 46.674688 118.983501 51.238132 120.873742 55.995797 120.873742 
L 55.995797 120.873742 
z
" clip-path="url(#p56fb3f6d72)" style="fill: none; stroke: #000000; stroke-width: 2; stroke-linejoin: miter"/>
   </g>
   <g id="patch_3">
    <path d="M 343.031068 120.873742 
C 347.788734 120.873742 352.352178 118.983501 355.716355 115.619324 
C 359.080532 112.255147 360.970773 107.691703 360.970773 102.934037 
C 360.970773 98.176372 359.080532 93.612928 355.716355 90.248751 
C 352.352178 86.884573 347.788734 84.994333 343.031068 84.994333 
C 338.273403 84.994333 333.709959 86.884573 330.345782 90.248751 
C 326.981604 93.612928 325.091364 98.176372 325.091364 102.934037 
C 325.091364 107.691703 326.981604 112.255147 330.345782 115.619324 
C 333.709959 118.983501 338.273403 120.873742 343.031068 120.873742 
L 343.031068 120.873742 
z
" clip-path="url(#p56fb3f6d72)" style="fill: none; stroke: #000000; stroke-width: 2; stroke-linejoin: miter"/>
   </g>
   <g id="line2d_1">
    <path d="M 55.995797 174.692855 
L 55.995797 120.873742 
L 55.995797 120.873742 
M 55.995797 84.994333 
L 55.995797 84.994333 
L 55.995797 31.17522 
" clip-path="url(#p56fb3f6d72)" style="fill: none; stroke: #000000; stroke-width: 2; stroke-linecap: round"/>
   </g>
   <g id="line2d_2">
    <path d="M 59.583738 111.90389 
L 52.407857 111.90389 
" clip-path="url(#p56fb3f6d72)" style="fill: none; stroke: #000000; stroke-width: 2; stroke-linecap: round"/>
   </g>
   <g id="line2d_3">
    <path d="M 55.995797 97.552126 
L 55.995797 90.376244 
" clip-path="url(#p56fb3f6d72)" style="fill: none; stroke: #000000; stroke-width: 2; stroke-linecap: round"/>
   </g>
   <g id="line2d_4">
    <path d="M 59.583738 93.964185 
L 52.407857 93.964185 
" clip-path="url(#p56fb3f6d72)" style="fill: none; stroke: #000000; stroke-width: 2; stroke-linecap: round"/>
   </g>
   <g id="line2d_5">
    <path d="M 55.995797 31.17522 
L 109.814911 31.17522 
L 112.804861 22.205367 
L 118.784763 40.145072 
L 124.764664 22.205367 
L 130.744566 40.145072 
L 136.724467 22.205367 
L 142.704369 40.145072 
L 145.69432 31.17522 
L 199.513433 31.17522 
" clip-path="url(#p56fb3f6d72)" style="fill: none; stroke: #000000; stroke-width: 2; stroke-linecap: round"/>
   </g>
   <g id="line2d_6">
    <path d="M 199.513433 31.17522 
L 199.513433 84.994333 
L 208.483285 87.984284 
L 190.543581 93.964185 
L 208.483285 99.944087 
L 190.543581 105.923988 
L 208.483285 111.90389 
L 190.543581 117.883791 
L 199.513433 120.873742 
L 199.513433 174.692855 
" clip-path="url(#p56fb3f6d72)" style="fill: none; stroke: #000000; stroke-width: 2; stroke-linecap: round"/>
   </g>
   <g id="line2d_7">
    <path d="M 199.513433 31.17522 
L 253.332546 31.17522 
L 256.322497 22.205367 
L 262.302398 40.145072 
L 268.2823 22.205367 
L 274.262201 40.145072 
L 280.242103 22.205367 
L 286.222004 40.145072 
L 289.211955 31.17522 
L 343.031068 31.17522 
" clip-path="url(#p56fb3f6d72)" style="fill: none; stroke: #000000; stroke-width: 2; stroke-linecap: round"/>
   </g>
   <g id="line2d_8">
    <path d="M 343.031068 31.17522 
L 343.031068 84.994333 
L 343.031068 84.994333 
M 343.031068 120.873742 
L 343.031068 120.873742 
L 343.031068 174.692855 
" clip-path="url(#p56fb3f6d72)" style="fill: none; stroke: #000000; stroke-width: 2; stroke-linecap: round"/>
   </g>
   <g id="line2d_9">
    <path d="M 346.619009 111.90389 
L 339.443127 111.90389 
" clip-path="url(#p56fb3f6d72)" style="fill: none; stroke: #000000; stroke-width: 2; stroke-linecap: round"/>
   </g>
   <g id="line2d_10">
    <path d="M 343.031068 90.376244 
L 343.031068 97.552126 
" clip-path="url(#p56fb3f6d72)" style="fill: none; stroke: #000000; stroke-width: 2; stroke-linecap: round"/>
   </g>
   <g id="line2d_11">
    <path d="M 346.619009 93.964185 
L 339.443127 93.964185 
" clip-path="url(#p56fb3f6d72)" style="fill: none; stroke: #000000; stroke-width: 2; stroke-linecap: round"/>
   </g>
   <g id="line2d_12">
    <path d="M 343.031068 174.692855 
L 199.513433 174.692855 
L 55.995797 174.692855 
" clip-path="url(#p56fb3f6d72)" style="fill: none; stroke: #000000; stroke-width: 2; stroke-linecap: round"/>
   </g>
   <g id="line2d_13">
    <path d="M 199.513433 174.692855 
L 199.513433 189.044619 
L 190.543581 189.044619 
L 208.483285 189.044619 
M 193.234536 193.350148 
L 205.792329 193.350148 
M 197.719462 197.655677 
L 201.307403 197.655677 
" clip-path="url(#p56fb3f6d72)" style="fill: none; stroke: #000000; stroke-width: 2; stroke-linecap: round"/>
   </g>
   <g id="text_1">
    <!-- 6V -->
    <g transform="translate(77.523443 106.797162) scale(0.14 -0.14)">
     <defs>
      <path id="DejaVuSans-36" d="M 2113 2584 
Q 1688 2584 1439 2293 
Q 1191 2003 1191 1497 
Q 1191 994 1439 701 
Q 1688 409 2113 409 
Q 2538 409 2786 701 
Q 3034 994 3034 1497 
Q 3034 2003 2786 2293 
Q 2538 2584 2113 2584 
z
M 3366 4563 
L 3366 3988 
Q 3128 4100 2886 4159 
Q 2644 4219 2406 4219 
Q 1781 4219 1451 3797 
Q 1122 3375 1075 2522 
Q 1259 2794 1537 2939 
Q 1816 3084 2150 3084 
Q 2853 3084 3261 2657 
Q 3669 2231 3669 1497 
Q 3669 778 3244 343 
Q 2819 -91 2113 -91 
Q 1303 -91 875 529 
Q 447 1150 447 2328 
Q 447 3434 972 4092 
Q 1497 4750 2381 4750 
Q 2619 4750 2861 4703 
Q 3103 4656 3366 4563 
z
" transform="scale(0.015625)"/>
      <path id="DejaVuSans-56" d="M 1831 0 
L 50 4666 
L 709 4666 
L 2188 738 
L 3669 4666 
L 4325 4666 
L 2547 0 
L 1831 0 
z
" transform="scale(0.015625)"/>
     </defs>
     <use xlink:href="#DejaVuSans-36"/>
     <use xlink:href="#DejaVuSans-56" transform="translate(63.623047 0)"/>
    </g>
   </g>
   <g id="text_2">
    <!-- $V_{S1}$ -->
    <g transform="translate(11.928152 106.797162) scale(0.14 -0.14)">
     <defs>
      <path id="DejaVuSans-Oblique-56" d="M 1319 0 
L 500 4666 
L 1119 4666 
L 1797 653 
L 4063 4666 
L 4750 4666 
L 2053 0 
L 1319 0 
z
" transform="scale(0.015625)"/>
      <path id="DejaVuSans-Oblique-53" d="M 3859 4513 
L 3738 3897 
Q 3422 4066 3111 4152 
Q 2800 4238 2509 4238 
Q 1944 4238 1609 3991 
Q 1275 3744 1275 3334 
Q 1275 3109 1398 2989 
Q 1522 2869 2034 2731 
L 2413 2638 
Q 3053 2472 3303 2217 
Q 3553 1963 3553 1503 
Q 3553 797 2998 353 
Q 2444 -91 1538 -91 
Q 1166 -91 791 -17 
Q 416 56 38 206 
L 166 856 
Q 513 641 861 531 
Q 1209 422 1556 422 
Q 2147 422 2503 684 
Q 2859 947 2859 1369 
Q 2859 1650 2717 1795 
Q 2575 1941 2106 2059 
L 1728 2156 
Q 1081 2325 845 2545 
Q 609 2766 609 3163 
Q 609 3859 1145 4304 
Q 1681 4750 2541 4750 
Q 2875 4750 3203 4690 
Q 3531 4631 3859 4513 
z
" transform="scale(0.015625)"/>
      <path id="DejaVuSans-31" d="M 794 531 
L 1825 531 
L 1825 4091 
L 703 3866 
L 703 4441 
L 1819 4666 
L 2450 4666 
L 2450 531 
L 3481 531 
L 3481 0 
L 794 0 
L 794 531 
z
" transform="scale(0.015625)"/>
     </defs>
     <use xlink:href="#DejaVuSans-Oblique-56" transform="translate(0 0.09375)"/>
     <use xlink:href="#DejaVuSans-Oblique-53" transform="translate(68.408203 -16.3125) scale(0.7)"/>
     <use xlink:href="#DejaVuSans-31" transform="translate(112.841797 -16.3125) scale(0.7)"/>
    </g>
   </g>
   <g id="text_3">
    <!-- 6Ω -->
    <g transform="translate(117.951334 54.370825) scale(0.14 -0.14)">
     <defs>
      <path id="DejaVuSans-3a9" d="M 4647 556 
L 4647 0 
L 2772 0 
L 2772 556 
Q 3325 859 3634 1378 
Q 3944 1897 3944 2528 
Q 3944 3278 3531 3731 
Q 3119 4184 2444 4184 
Q 1769 4184 1355 3729 
Q 941 3275 941 2528 
Q 941 1897 1250 1378 
Q 1563 859 2119 556 
L 2119 0 
L 244 0 
L 244 556 
L 1241 556 
Q 747 991 519 1456 
Q 294 1922 294 2497 
Q 294 3491 894 4106 
Q 1491 4722 2444 4722 
Q 3391 4722 3994 4106 
Q 4594 3494 4594 2528 
Q 4594 1922 4372 1459 
Q 4150 997 3647 556 
L 4647 556 
z
" transform="scale(0.015625)"/>
     </defs>
     <use xlink:href="#DejaVuSans-36"/>
     <use xlink:href="#DejaVuSans-3a9" transform="translate(63.623047 0)"/>
    </g>
   </g>
   <g id="text_4">
    <!-- $R_1$ -->
    <g transform="translate(119.564615 15.705864) scale(0.14 -0.14)">
     <defs>
      <path id="DejaVuSans-Oblique-52" d="M 1613 4147 
L 1294 2491 
L 2106 2491 
Q 2584 2491 2879 2755 
Q 3175 3019 3175 3444 
Q 3175 3784 2976 3965 
Q 2778 4147 2406 4147 
L 1613 4147 
z
M 2772 2241 
Q 2972 2194 3105 2009 
Q 3238 1825 3413 1275 
L 3809 0 
L 3144 0 
L 2778 1197 
Q 2638 1659 2453 1815 
Q 2269 1972 1888 1972 
L 1191 1972 
L 806 0 
L 172 0 
L 1081 4666 
L 2503 4666 
Q 3150 4666 3495 4373 
Q 3841 4081 3841 3531 
Q 3841 3044 3547 2687 
Q 3253 2331 2772 2241 
z
" transform="scale(0.015625)"/>
     </defs>
     <use xlink:href="#DejaVuSans-Oblique-52" transform="translate(0 0.09375)"/>
     <use xlink:href="#DejaVuSans-31" transform="translate(69.482422 -16.3125) scale(0.7)"/>
    </g>
   </g>
   <g id="text_5">
    <!-- 3Ω -->
    <g transform="translate(212.071226 106.797162) scale(0.14 -0.14)">
     <defs>
      <path id="DejaVuSans-33" d="M 2597 2516 
Q 3050 2419 3304 2112 
Q 3559 1806 3559 1356 
Q 3559 666 3084 287 
Q 2609 -91 1734 -91 
Q 1441 -91 1130 -33 
Q 819 25 488 141 
L 488 750 
Q 750 597 1062 519 
Q 1375 441 1716 441 
Q 2309 441 2620 675 
Q 2931 909 2931 1356 
Q 2931 1769 2642 2001 
Q 2353 2234 1838 2234 
L 1294 2234 
L 1294 2753 
L 1863 2753 
Q 2328 2753 2575 2939 
Q 2822 3125 2822 3475 
Q 2822 3834 2567 4026 
Q 2313 4219 1838 4219 
Q 1578 4219 1281 4162 
Q 984 4106 628 3988 
L 628 4550 
Q 988 4650 1302 4700 
Q 1616 4750 1894 4750 
Q 2613 4750 3031 4423 
Q 3450 4097 3450 3541 
Q 3450 3153 3228 2886 
Q 3006 2619 2597 2516 
z
" transform="scale(0.015625)"/>
     </defs>
     <use xlink:href="#DejaVuSans-33"/>
     <use xlink:href="#DejaVuSans-3a9" transform="translate(63.623047 0)"/>
    </g>
   </g>
   <g id="text_6">
    <!-- $R_2$ -->
    <g transform="translate(170.57564 106.797162) scale(0.14 -0.14)">
     <defs>
      <path id="DejaVuSans-32" d="M 1228 531 
L 3431 531 
L 3431 0 
L 469 0 
L 469 531 
Q 828 903 1448 1529 
Q 2069 2156 2228 2338 
Q 2531 2678 2651 2914 
Q 2772 3150 2772 3378 
Q 2772 3750 2511 3984 
Q 2250 4219 1831 4219 
Q 1534 4219 1204 4116 
Q 875 4013 500 3803 
L 500 4441 
Q 881 4594 1212 4672 
Q 1544 4750 1819 4750 
Q 2544 4750 2975 4387 
Q 3406 4025 3406 3419 
Q 3406 3131 3298 2873 
Q 3191 2616 2906 2266 
Q 2828 2175 2409 1742 
Q 1991 1309 1228 531 
z
" transform="scale(0.015625)"/>
     </defs>
     <use xlink:href="#DejaVuSans-Oblique-52" transform="translate(0 0.09375)"/>
     <use xlink:href="#DejaVuSans-32" transform="translate(69.482422 -16.3125) scale(0.7)"/>
    </g>
   </g>
   <g id="text_7">
    <!-- 6Ω -->
    <g transform="translate(261.468969 54.370825) scale(0.14 -0.14)">
     <use xlink:href="#DejaVuSans-36"/>
     <use xlink:href="#DejaVuSans-3a9" transform="translate(63.623047 0)"/>
    </g>
   </g>
   <g id="text_8">
    <!-- $R_3$ -->
    <g transform="translate(263.082251 15.705864) scale(0.14 -0.14)">
     <use xlink:href="#DejaVuSans-Oblique-52" transform="translate(0 0.09375)"/>
     <use xlink:href="#DejaVuSans-33" transform="translate(69.482422 -16.3125) scale(0.7)"/>
    </g>
   </g>
   <g id="text_9">
    <!-- 3V -->
    <g transform="translate(303.019048 106.797162) scale(0.14 -0.14)">
     <use xlink:href="#DejaVuSans-33"/>
     <use xlink:href="#DejaVuSans-56" transform="translate(63.623047 0)"/>
    </g>
   </g>
   <g id="text_10">
    <!-- $V_{S2}$ -->
    <g transform="translate(364.558714 106.797162) scale(0.14 -0.14)">
     <use xlink:href="#DejaVuSans-Oblique-56" transform="translate(0 0.09375)"/>
     <use xlink:href="#DejaVuSans-Oblique-53" transform="translate(68.408203 -16.3125) scale(0.7)"/>
     <use xlink:href="#DejaVuSans-32" transform="translate(112.841797 -16.3125) scale(0.7)"/>
    </g>
   </g>
   <g id="text_11">
    <!-- $V_G = 0$ -->
    <g transform="translate(212.071226 190.037391) scale(0.14 -0.14)">
     <defs>
      <path id="DejaVuSans-Oblique-47" d="M 3494 697 
L 3738 1919 
L 2700 1919 
L 2797 2438 
L 4453 2438 
L 4050 384 
Q 3634 156 3143 32 
Q 2653 -91 2156 -91 
Q 1278 -91 783 396 
Q 288 884 288 1753 
Q 288 2475 589 3126 
Q 891 3778 1422 4213 
Q 1756 4484 2153 4617 
Q 2550 4750 3034 4750 
Q 3472 4750 3873 4639 
Q 4275 4528 4641 4306 
L 4513 3634 
Q 4231 3928 3853 4083 
Q 3475 4238 3047 4238 
Q 2550 4238 2172 4048 
Q 1794 3859 1497 3463 
Q 1244 3125 1098 2667 
Q 953 2209 953 1734 
Q 953 1081 1287 751 
Q 1622 422 2284 422 
Q 2616 422 2925 492 
Q 3234 563 3494 697 
z
" transform="scale(0.015625)"/>
      <path id="DejaVuSans-3d" d="M 678 2906 
L 4684 2906 
L 4684 2381 
L 678 2381 
L 678 2906 
z
M 678 1631 
L 4684 1631 
L 4684 1100 
L 678 1100 
L 678 1631 
z
" transform="scale(0.015625)"/>
      <path id="DejaVuSans-30" d="M 2034 4250 
Q 1547 4250 1301 3770 
Q 1056 3291 1056 2328 
Q 1056 1369 1301 889 
Q 1547 409 2034 409 
Q 2525 409 2770 889 
Q 3016 1369 3016 2328 
Q 3016 3291 2770 3770 
Q 2525 4250 2034 4250 
z
M 2034 4750 
Q 2819 4750 3233 4129 
Q 3647 3509 3647 2328 
Q 3647 1150 3233 529 
Q 2819 -91 2034 -91 
Q 1250 -91 836 529 
Q 422 1150 422 2328 
Q 422 3509 836 4129 
Q 1250 4750 2034 4750 
z
" transform="scale(0.015625)"/>
     </defs>
     <use xlink:href="#DejaVuSans-Oblique-56" transform="translate(0 0.78125)"/>
     <use xlink:href="#DejaVuSans-Oblique-47" transform="translate(68.408203 -15.625) scale(0.7)"/>
     <use xlink:href="#DejaVuSans-3d" transform="translate(144.868164 0.78125)"/>
     <use xlink:href="#DejaVuSans-30" transform="translate(248.139648 0.78125)"/>
    </g>
   </g>
   <g id="line2d_14">
    <path d="M 99.051088 31.17522 
L 99.051088 31.17522 
" clip-path="url(#p56fb3f6d72)" style="fill: none; stroke: #000000; stroke-width: 2; stroke-linecap: round"/>
   </g>
   <g id="patch_4">
    <path d="M 99.051088 36.557131 
L 88.287265 31.17522 
L 99.051088 25.793308 
z
" clip-path="url(#p56fb3f6d72)"/>
   </g>
   <g id="text_12">
    <!-- $I_{1b}$ -->
    <g transform="translate(85.129177 17.499835) scale(0.14 -0.14)">
     <defs>
      <path id="DejaVuSans-Oblique-49" d="M 1081 4666 
L 1716 4666 
L 806 0 
L 172 0 
L 1081 4666 
z
" transform="scale(0.015625)"/>
      <path id="DejaVuSans-Oblique-62" d="M 3169 2138 
Q 3169 2591 2961 2847 
Q 2753 3103 2388 3103 
Q 2122 3103 1889 2973 
Q 1656 2844 1484 2597 
Q 1303 2338 1198 1995 
Q 1094 1653 1094 1313 
Q 1094 881 1298 636 
Q 1503 391 1863 391 
Q 2134 391 2365 517 
Q 2597 644 2772 891 
Q 2950 1147 3059 1487 
Q 3169 1828 3169 2138 
z
M 1381 2969 
Q 1594 3256 1914 3420 
Q 2234 3584 2584 3584 
Q 3122 3584 3439 3221 
Q 3756 2859 3756 2241 
Q 3756 1734 3570 1259 
Q 3384 784 3041 416 
Q 2816 172 2522 40 
Q 2228 -91 1906 -91 
Q 1566 -91 1316 65 
Q 1066 222 909 531 
L 806 0 
L 231 0 
L 1178 4863 
L 1753 4863 
L 1381 2969 
z
" transform="scale(0.015625)"/>
     </defs>
     <use xlink:href="#DejaVuSans-Oblique-49" transform="translate(0 0.09375)"/>
     <use xlink:href="#DejaVuSans-31" transform="translate(29.492188 -16.3125) scale(0.7)"/>
     <use xlink:href="#DejaVuSans-Oblique-62" transform="translate(74.02832 -16.3125) scale(0.7)"/>
    </g>
   </g>
   <g id="line2d_15">
    <path d="M 199.513433 63.466688 
L 199.513433 63.466688 
" clip-path="url(#p56fb3f6d72)" style="fill: none; stroke: #000000; stroke-width: 2; stroke-linecap: round"/>
   </g>
   <g id="patch_5">
    <path d="M 204.895344 63.466688 
L 199.513433 74.23051 
L 194.131522 63.466688 
z
" clip-path="url(#p56fb3f6d72)"/>
   </g>
   <g id="text_13">
    <!-- $I_2$ -->
    <g transform="translate(177.96961 72.711724) scale(0.14 -0.14)">
     <use xlink:href="#DejaVuSans-Oblique-49" transform="translate(0 0.09375)"/>
     <use xlink:href="#DejaVuSans-32" transform="translate(29.492188 -16.3125) scale(0.7)"/>
    </g>
   </g>
   <g id="line2d_16">
    <path d="M 231.804901 31.17522 
L 231.804901 31.17522 
" clip-path="url(#p56fb3f6d72)" style="fill: none; stroke: #000000; stroke-width: 2; stroke-linecap: round"/>
   </g>
   <g id="patch_6">
    <path d="M 231.804901 25.793308 
L 242.568724 31.17522 
L 231.804901 36.557131 
z
" clip-path="url(#p56fb3f6d72)"/>
   </g>
   <g id="text_14">
    <!-- $I_{3b}$ -->
    <g transform="translate(228.646812 17.499835) scale(0.14 -0.14)">
     <use xlink:href="#DejaVuSans-Oblique-49" transform="translate(0 0.09375)"/>
     <use xlink:href="#DejaVuSans-33" transform="translate(29.492188 -16.3125) scale(0.7)"/>
     <use xlink:href="#DejaVuSans-Oblique-62" transform="translate(74.02832 -16.3125) scale(0.7)"/>
    </g>
   </g>
   <g id="patch_7">
    <path d="M 199.513433 177.383811 
C 200.227083 177.383811 200.911599 177.100275 201.416226 176.595648 
C 201.920853 176.091022 202.204389 175.406505 202.204389 174.692855 
C 202.204389 173.979205 201.920853 173.294689 201.416226 172.790062 
C 200.911599 172.285436 200.227083 172.0019 199.513433 172.0019 
C 198.799783 172.0019 198.115267 172.285436 197.61064 172.790062 
C 197.106013 173.294689 196.822477 173.979205 196.822477 174.692855 
C 196.822477 175.406505 197.106013 176.091022 197.61064 176.595648 
C 198.115267 177.100275 198.799783 177.383811 199.513433 177.383811 
z
" clip-path="url(#p56fb3f6d72)" style="stroke: #000000; stroke-width: 2; stroke-linejoin: miter"/>
   </g>
   <g id="patch_8">
    <path d="M 55.995797 33.866175 
C 56.709447 33.866175 57.393964 33.582639 57.89859 33.078013 
C 58.403217 32.573386 58.686753 31.888869 58.686753 31.17522 
C 58.686753 30.46157 58.403217 29.777053 57.89859 29.272427 
C 57.393964 28.7678 56.709447 28.484264 55.995797 28.484264 
C 55.282148 28.484264 54.597631 28.7678 54.093004 29.272427 
C 53.588378 29.777053 53.304842 30.46157 53.304842 31.17522 
C 53.304842 31.888869 53.588378 32.573386 54.093004 33.078013 
C 54.597631 33.582639 55.282148 33.866175 55.995797 33.866175 
z
" clip-path="url(#p56fb3f6d72)" style="stroke: #000000; stroke-width: 2; stroke-linejoin: miter"/>
   </g>
   <g id="text_15">
    <!-- $V_2$ -->
    <g transform="translate(47.875797 21.984761) scale(0.14 -0.14)">
     <use xlink:href="#DejaVuSans-Oblique-56" transform="translate(0 0.09375)"/>
     <use xlink:href="#DejaVuSans-32" transform="translate(68.408203 -16.3125) scale(0.7)"/>
    </g>
   </g>
   <g id="patch_9">
    <path d="M 199.513433 33.866175 
C 200.227083 33.866175 200.911599 33.582639 201.416226 33.078013 
C 201.920853 32.573386 202.204389 31.888869 202.204389 31.17522 
C 202.204389 30.46157 201.920853 29.777053 201.416226 29.272427 
C 200.911599 28.7678 200.227083 28.484264 199.513433 28.484264 
C 198.799783 28.484264 198.115267 28.7678 197.61064 29.272427 
C 197.106013 29.777053 196.822477 30.46157 196.822477 31.17522 
C 196.822477 31.888869 197.106013 32.573386 197.61064 33.078013 
C 198.115267 33.582639 198.799783 33.866175 199.513433 33.866175 
z
" clip-path="url(#p56fb3f6d72)" style="stroke: #000000; stroke-width: 2; stroke-linejoin: miter"/>
   </g>
   <g id="text_16">
    <!-- $V_1$ -->
    <g transform="translate(191.393433 21.984761) scale(0.14 -0.14)">
     <use xlink:href="#DejaVuSans-Oblique-56" transform="translate(0 0.09375)"/>
     <use xlink:href="#DejaVuSans-31" transform="translate(68.408203 -16.3125) scale(0.7)"/>
    </g>
   </g>
   <g id="patch_10">
    <path d="M 343.031068 33.866175 
C 343.744718 33.866175 344.429235 33.582639 344.933861 33.078013 
C 345.438488 32.573386 345.722024 31.888869 345.722024 31.17522 
C 345.722024 30.46157 345.438488 29.777053 344.933861 29.272427 
C 344.429235 28.7678 343.744718 28.484264 343.031068 28.484264 
C 342.317419 28.484264 341.632902 28.7678 341.128275 29.272427 
C 340.623649 29.777053 340.340113 30.46157 340.340113 31.17522 
C 340.340113 31.888869 340.623649 32.573386 341.128275 33.078013 
C 341.632902 33.582639 342.317419 33.866175 343.031068 33.866175 
z
" clip-path="url(#p56fb3f6d72)" style="stroke: #000000; stroke-width: 2; stroke-linejoin: miter"/>
   </g>
   <g id="text_17">
    <!-- $V_3$ -->
    <g transform="translate(334.911068 21.984761) scale(0.14 -0.14)">
     <use xlink:href="#DejaVuSans-Oblique-56" transform="translate(0 0.09375)"/>
     <use xlink:href="#DejaVuSans-33" transform="translate(68.408203 -16.3125) scale(0.7)"/>
    </g>
   </g>
  </g>
 </g>
 <defs>
  <clipPath id="p56fb3f6d72">
   <rect x="0" y="-0" width="399.026866" height="202.32"/>
  </clipPath>
 </defs>
</svg>
