<?xml version="1.0" encoding="utf-8" standalone="no"?>
<!DOCTYPE svg PUBLIC "-//W3C//DTD SVG 1.1//EN"
  "http://www.w3.org/Graphics/SVG/1.1/DTD/svg11.dtd">
<svg xmlns:xlink="http://www.w3.org/1999/xlink" width="483.090176pt" height="293.76pt" viewBox="0 0 483.090176 293.76" xmlns="http://www.w3.org/2000/svg" version="1.1">
 <metadata>
  <rdf:RDF xmlns:dc="http://purl.org/dc/elements/1.1/" xmlns:cc="http://creativecommons.org/ns#" xmlns:rdf="http://www.w3.org/1999/02/22-rdf-syntax-ns#">
   <cc:Work>
    <dc:type rdf:resource="http://purl.org/dc/dcmitype/StillImage"/>
    <dc:date>2025-04-17T00:59:24.449024</dc:date>
    <dc:format>image/svg+xml</dc:format>
    <dc:creator>
     <cc:Agent>
      <dc:title>Matplotlib v3.10.1, https://matplotlib.org/</dc:title>
     </cc:Agent>
    </dc:creator>
   </cc:Work>
  </rdf:RDF>
 </metadata>
 <defs>
  <style type="text/css">*{stroke-linejoin: round; stroke-linecap: butt}</style>
 </defs>
 <g id="figure_1">
  <g id="patch_1">
   <path d="M 0 293.76 
L 483.090176 293.76 
L 483.090176 0 
L 0 0 
L 0 293.76 
z
" style="fill: none"/>
  </g>
  <g id="axes_1">
   <g id="patch_2">
    <path d="M 50.880596 235.189823 
C 55.645317 235.189823 60.21553 233.296779 63.584697 229.927612 
C 66.953864 226.558445 68.846908 221.988232 68.846908 217.223511 
C 68.846908 212.458789 66.953864 207.888576 63.584697 204.519409 
C 60.21553 201.150242 55.645317 199.257199 50.880596 199.257199 
C 46.115874 199.257199 41.545662 201.150242 38.176495 204.519409 
C 34.807328 207.888576 32.914284 212.458789 32.914284 217.223511 
C 32.914284 221.988232 34.807328 226.558445 38.176495 229.927612 
C 41.545662 233.296779 46.115874 235.189823 50.880596 235.189823 
L 50.880596 235.189823 
z
" clip-path="url(#pc3151b7790)" style="fill: none; stroke: #000000; stroke-width: 2; stroke-linejoin: miter"/>
   </g>
   <g id="patch_3">
    <path d="M 302.408965 235.189823 
C 307.173686 235.189823 311.743899 233.296779 315.113066 229.927612 
C 318.482233 226.558445 320.375277 221.988232 320.375277 217.223511 
C 320.375277 212.458789 318.482233 207.888576 315.113066 204.519409 
C 311.743899 201.150242 307.173686 199.257199 302.408965 199.257199 
C 297.644243 199.257199 293.074031 201.150242 289.704864 204.519409 
C 286.335697 207.888576 284.442653 212.458789 284.442653 217.223511 
C 284.442653 221.988232 286.335697 226.558445 289.704864 229.927612 
C 293.074031 233.296779 297.644243 235.189823 302.408965 235.189823 
L 302.408965 235.189823 
z
" clip-path="url(#pc3151b7790)" style="fill: none; stroke: #000000; stroke-width: 2; stroke-linejoin: miter"/>
   </g>
   <g id="patch_4">
    <path d="M 184.484081 100.442482 
C 184.484081 90.887258 182.488903 81.424947 178.612729 72.597072 
C 174.736555 63.769196 169.054768 55.747436 161.892532 48.990873 
C 154.730297 42.234309 146.226901 36.874341 136.86899 33.217715 
C 127.511079 29.561089 117.480639 27.678918 107.351709 27.678918 
C 97.222779 27.678918 87.192339 29.561089 77.834428 33.217715 
C 68.476517 36.874341 59.973121 42.234309 52.810886 48.990873 
C 45.64865 55.747436 39.966863 63.769196 36.090689 72.597072 
C 32.214515 81.424947 30.219337 90.887258 30.219337 100.442482 
C 30.219337 109.997706 32.214515 119.460017 36.090689 128.287893 
C 39.966863 137.115768 45.64865 145.137528 52.810886 151.894092 
C 59.973121 158.650655 68.476517 164.010624 77.834428 167.66725 
C 87.192339 171.323875 97.222779 173.206046 107.351709 173.206046 
C 117.480639 173.206046 127.511079 171.323875 136.86899 167.66725 
C 146.226901 164.010624 154.730297 158.650655 161.892532 151.894092 
C 169.054768 145.137528 174.736555 137.115768 178.612729 128.287893 
C 182.488903 119.460017 184.484081 109.997706 184.484081 100.442482 
" clip-path="url(#pc3151b7790)" style="fill: none; stroke-dasharray: 3.7,1.6; stroke-dashoffset: 0; stroke: #0000ff; stroke-linejoin: miter"/>
   </g>
   <g id="patch_5">
    <path d="M 141.360568 33.217715 
C 177.293192 33.217715 150.343724 11.65814 190.767926 11.65814 
" clip-path="url(#pc3151b7790)" style="fill: none; stroke: #0000ff; stroke-width: 2; stroke-linejoin: miter; stroke-linecap: round"/>
   </g>
   <g id="patch_6">
    <path d="M 145.852146 36.810977 
L 136.86899 33.217715 
L 145.852146 29.624452 
z
" clip-path="url(#pc3151b7790)" style="fill: #0000ff"/>
   </g>
   <g id="line2d_1">
    <path d="M 50.880596 289.088759 
L 50.880596 235.189823 
L 50.880596 235.189823 
M 50.880596 199.257199 
L 50.880596 199.257199 
L 50.880596 145.358262 
" clip-path="url(#pc3151b7790)" style="fill: none; stroke: #000000; stroke-width: 2; stroke-linecap: round"/>
   </g>
   <g id="line2d_2">
    <path d="M 50.880596 226.206667 
L 50.880596 217.223511 
" clip-path="url(#pc3151b7790)" style="fill: none; stroke: #000000; stroke-width: 2; stroke-linecap: round"/>
   </g>
   <g id="patch_7">
    <path d="M 48.185649 217.223511 
L 50.880596 208.240355 
L 53.575543 217.223511 
z
" clip-path="url(#pc3151b7790)"/>
   </g>
   <g id="line2d_3">
    <path d="M 50.880596 145.358262 
L 104.779532 145.358262 
L 158.678468 145.358262 
" clip-path="url(#pc3151b7790)" style="fill: none; stroke: #000000; stroke-width: 2; stroke-linecap: round"/>
   </g>
   <g id="line2d_4">
    <path d="M 158.678468 145.358262 
L 158.678468 199.257199 
L 167.661624 202.251584 
L 149.695312 208.240355 
L 167.661624 214.229125 
L 149.695312 220.217896 
L 167.661624 226.206667 
L 149.695312 232.195437 
L 158.678468 235.189823 
L 158.678468 289.088759 
" clip-path="url(#pc3151b7790)" style="fill: none; stroke: #000000; stroke-width: 2; stroke-linecap: round"/>
   </g>
   <g id="line2d_5">
    <path d="M 158.678468 145.358262 
L 212.577404 145.358262 
L 215.57179 136.375106 
L 221.56056 154.341418 
L 227.549331 136.375106 
L 233.538102 154.341418 
L 239.526873 136.375106 
L 245.515643 154.341418 
L 248.510029 145.358262 
L 302.408965 145.358262 
" clip-path="url(#pc3151b7790)" style="fill: none; stroke: #000000; stroke-width: 2; stroke-linecap: round"/>
   </g>
   <g id="line2d_6">
    <path d="M 302.408965 145.358262 
L 356.307901 145.358262 
L 359.302286 136.375106 
L 365.291057 154.341418 
L 371.279828 136.375106 
L 377.268598 154.341418 
L 383.257369 136.375106 
L 389.24614 154.341418 
L 392.240525 145.358262 
L 446.139461 145.358262 
" clip-path="url(#pc3151b7790)" style="fill: none; stroke: #000000; stroke-width: 2; stroke-linecap: round"/>
   </g>
   <g id="line2d_7">
    <path d="M 446.139461 145.358262 
L 446.139461 199.257199 
L 455.122617 202.251584 
L 437.156305 208.240355 
L 455.122617 214.229125 
L 437.156305 220.217896 
L 455.122617 226.206667 
L 437.156305 232.195437 
L 446.139461 235.189823 
L 446.139461 289.088759 
" clip-path="url(#pc3151b7790)" style="fill: none; stroke: #000000; stroke-width: 2; stroke-linecap: round"/>
   </g>
   <g id="line2d_8">
    <path d="M 446.139461 289.088759 
L 248.510029 289.088759 
L 50.880596 289.088759 
" clip-path="url(#pc3151b7790)" style="fill: none; stroke: #000000; stroke-width: 2; stroke-linecap: round"/>
   </g>
   <g id="line2d_9">
    <path d="M 302.408965 145.358262 
L 302.408965 199.257199 
L 302.408965 199.257199 
M 302.408965 235.189823 
L 302.408965 235.189823 
L 302.408965 289.088759 
" clip-path="url(#pc3151b7790)" style="fill: none; stroke: #000000; stroke-width: 2; stroke-linecap: round"/>
   </g>
   <g id="line2d_10">
    <path d="M 302.408965 208.240355 
L 302.408965 217.223511 
" clip-path="url(#pc3151b7790)" style="fill: none; stroke: #000000; stroke-width: 2; stroke-linecap: round"/>
   </g>
   <g id="patch_8">
    <path d="M 305.103912 217.223511 
L 302.408965 226.206667 
L 299.714018 217.223511 
z
" clip-path="url(#pc3151b7790)"/>
   </g>
   <g id="line2d_11">
    <path d="M 50.880596 145.358262 
L 50.880596 100.442482 
L 50.880596 55.526702 
" clip-path="url(#pc3151b7790)" style="fill: none; stroke: #000000; stroke-width: 2; stroke-linecap: round"/>
   </g>
   <g id="line2d_12">
    <path d="M 50.880596 55.526702 
L 113.762688 55.526702 
L 176.64478 55.526702 
" clip-path="url(#pc3151b7790)" style="fill: none; stroke: #000000; stroke-width: 2; stroke-linecap: round"/>
   </g>
   <g id="line2d_13">
    <path d="M 176.64478 55.526702 
L 230.543716 55.526702 
L 233.538102 46.543546 
L 239.526873 64.509858 
L 245.515643 46.543546 
L 251.504414 64.509858 
L 257.493185 46.543546 
L 263.481955 64.509858 
L 266.476341 55.526702 
L 320.375277 55.526702 
" clip-path="url(#pc3151b7790)" style="fill: none; stroke: #000000; stroke-width: 2; stroke-linecap: round"/>
   </g>
   <g id="line2d_14">
    <path d="M 320.375277 55.526702 
L 383.257369 55.526702 
L 446.139461 55.526702 
" clip-path="url(#pc3151b7790)" style="fill: none; stroke: #000000; stroke-width: 2; stroke-linecap: round"/>
   </g>
   <g id="line2d_15">
    <path d="M 446.139461 55.526702 
L 446.139461 100.442482 
L 446.139461 145.358262 
" clip-path="url(#pc3151b7790)" style="fill: none; stroke: #000000; stroke-width: 2; stroke-linecap: round"/>
   </g>
   <g id="text_1">
    <!-- 1A -->
    <g transform="translate(72.44017 221.086636) scale(0.14 -0.14)">
     <defs>
      <path id="DejaVuSans-31" d="M 794 531 
L 1825 531 
L 1825 4091 
L 703 3866 
L 703 4441 
L 1819 4666 
L 2450 4666 
L 2450 531 
L 3481 531 
L 3481 0 
L 794 0 
L 794 531 
z
" transform="scale(0.015625)"/>
      <path id="DejaVuSans-41" d="M 2188 4044 
L 1331 1722 
L 3047 1722 
L 2188 4044 
z
M 1831 4666 
L 2547 4666 
L 4325 0 
L 3669 0 
L 3244 1197 
L 1141 1197 
L 716 0 
L 50 0 
L 1831 4666 
z
" transform="scale(0.015625)"/>
     </defs>
     <use xlink:href="#DejaVuSans-31"/>
     <use xlink:href="#DejaVuSans-41" transform="translate(63.623047 0)"/>
    </g>
   </g>
   <g id="text_2">
    <!-- $I_{S1}$ -->
    <g transform="translate(12.241021 221.086636) scale(0.14 -0.14)">
     <defs>
      <path id="DejaVuSans-Oblique-49" d="M 1081 4666 
L 1716 4666 
L 806 0 
L 172 0 
L 1081 4666 
z
" transform="scale(0.015625)"/>
      <path id="DejaVuSans-Oblique-53" d="M 3859 4513 
L 3738 3897 
Q 3422 4066 3111 4152 
Q 2800 4238 2509 4238 
Q 1944 4238 1609 3991 
Q 1275 3744 1275 3334 
Q 1275 3109 1398 2989 
Q 1522 2869 2034 2731 
L 2413 2638 
Q 3053 2472 3303 2217 
Q 3553 1963 3553 1503 
Q 3553 797 2998 353 
Q 2444 -91 1538 -91 
Q 1166 -91 791 -17 
Q 416 56 38 206 
L 166 856 
Q 513 641 861 531 
Q 1209 422 1556 422 
Q 2147 422 2503 684 
Q 2859 947 2859 1369 
Q 2859 1650 2717 1795 
Q 2575 1941 2106 2059 
L 1728 2156 
Q 1081 2325 845 2545 
Q 609 2766 609 3163 
Q 609 3859 1145 4304 
Q 1681 4750 2541 4750 
Q 2875 4750 3203 4690 
Q 3531 4631 3859 4513 
z
" transform="scale(0.015625)"/>
     </defs>
     <use xlink:href="#DejaVuSans-Oblique-49" transform="translate(0 0.09375)"/>
     <use xlink:href="#DejaVuSans-Oblique-53" transform="translate(29.492188 -16.3125) scale(0.7)"/>
     <use xlink:href="#DejaVuSans-31" transform="translate(73.925781 -16.3125) scale(0.7)"/>
    </g>
   </g>
   <g id="text_3">
    <!-- 12Ω -->
    <g transform="translate(171.254887 221.086636) scale(0.14 -0.14)">
     <defs>
      <path id="DejaVuSans-32" d="M 1228 531 
L 3431 531 
L 3431 0 
L 469 0 
L 469 531 
Q 828 903 1448 1529 
Q 2069 2156 2228 2338 
Q 2531 2678 2651 2914 
Q 2772 3150 2772 3378 
Q 2772 3750 2511 3984 
Q 2250 4219 1831 4219 
Q 1534 4219 1204 4116 
Q 875 4013 500 3803 
L 500 4441 
Q 881 4594 1212 4672 
Q 1544 4750 1819 4750 
Q 2544 4750 2975 4387 
Q 3406 4025 3406 3419 
Q 3406 3131 3298 2873 
Q 3191 2616 2906 2266 
Q 2828 2175 2409 1742 
Q 1991 1309 1228 531 
z
" transform="scale(0.015625)"/>
      <path id="DejaVuSans-3a9" d="M 4647 556 
L 4647 0 
L 2772 0 
L 2772 556 
Q 3325 859 3634 1378 
Q 3944 1897 3944 2528 
Q 3944 3278 3531 3731 
Q 3119 4184 2444 4184 
Q 1769 4184 1355 3729 
Q 941 3275 941 2528 
Q 941 1897 1250 1378 
Q 1563 859 2119 556 
L 2119 0 
L 244 0 
L 244 556 
L 1241 556 
Q 747 991 519 1456 
Q 294 1922 294 2497 
Q 294 3491 894 4106 
Q 1491 4722 2444 4722 
Q 3391 4722 3994 4106 
Q 4594 3494 4594 2528 
Q 4594 1922 4372 1459 
Q 4150 997 3647 556 
L 4647 556 
z
" transform="scale(0.015625)"/>
     </defs>
     <use xlink:href="#DejaVuSans-31"/>
     <use xlink:href="#DejaVuSans-32" transform="translate(63.623047 0)"/>
     <use xlink:href="#DejaVuSans-3a9" transform="translate(127.246094 0)"/>
    </g>
   </g>
   <g id="text_4">
    <!-- $R_1$ -->
    <g transform="translate(129.72205 221.086636) scale(0.14 -0.14)">
     <defs>
      <path id="DejaVuSans-Oblique-52" d="M 1613 4147 
L 1294 2491 
L 2106 2491 
Q 2584 2491 2879 2755 
Q 3175 3019 3175 3444 
Q 3175 3784 2976 3965 
Q 2778 4147 2406 4147 
L 1613 4147 
z
M 2772 2241 
Q 2972 2194 3105 2009 
Q 3238 1825 3413 1275 
L 3809 0 
L 3144 0 
L 2778 1197 
Q 2638 1659 2453 1815 
Q 2269 1972 1888 1972 
L 1191 1972 
L 806 0 
L 172 0 
L 1081 4666 
L 2503 4666 
Q 3150 4666 3495 4373 
Q 3841 4081 3841 3531 
Q 3841 3044 3547 2687 
Q 3253 2331 2772 2241 
z
" transform="scale(0.015625)"/>
     </defs>
     <use xlink:href="#DejaVuSans-Oblique-52" transform="translate(0 0.09375)"/>
     <use xlink:href="#DejaVuSans-31" transform="translate(69.482422 -16.3125) scale(0.7)"/>
    </g>
   </g>
   <g id="text_5">
    <!-- 6Ω -->
    <g transform="translate(220.740435 168.572493) scale(0.14 -0.14)">
     <defs>
      <path id="DejaVuSans-36" d="M 2113 2584 
Q 1688 2584 1439 2293 
Q 1191 2003 1191 1497 
Q 1191 994 1439 701 
Q 1688 409 2113 409 
Q 2538 409 2786 701 
Q 3034 994 3034 1497 
Q 3034 2003 2786 2293 
Q 2538 2584 2113 2584 
z
M 3366 4563 
L 3366 3988 
Q 3128 4100 2886 4159 
Q 2644 4219 2406 4219 
Q 1781 4219 1451 3797 
Q 1122 3375 1075 2522 
Q 1259 2794 1537 2939 
Q 1816 3084 2150 3084 
Q 2853 3084 3261 2657 
Q 3669 2231 3669 1497 
Q 3669 778 3244 343 
Q 2819 -91 2113 -91 
Q 1303 -91 875 529 
Q 447 1150 447 2328 
Q 447 3434 972 4092 
Q 1497 4750 2381 4750 
Q 2619 4750 2861 4703 
Q 3103 4656 3366 4563 
z
" transform="scale(0.015625)"/>
     </defs>
     <use xlink:href="#DejaVuSans-36"/>
     <use xlink:href="#DejaVuSans-3a9" transform="translate(63.623047 0)"/>
    </g>
   </g>
   <g id="text_6">
    <!-- $R_2$ -->
    <g transform="translate(222.353716 129.870281) scale(0.14 -0.14)">
     <use xlink:href="#DejaVuSans-Oblique-52" transform="translate(0 0.09375)"/>
     <use xlink:href="#DejaVuSans-32" transform="translate(69.482422 -16.3125) scale(0.7)"/>
    </g>
   </g>
   <g id="text_7">
    <!-- 5Ω -->
    <g transform="translate(364.470932 168.572493) scale(0.14 -0.14)">
     <defs>
      <path id="DejaVuSans-35" d="M 691 4666 
L 3169 4666 
L 3169 4134 
L 1269 4134 
L 1269 2991 
Q 1406 3038 1543 3061 
Q 1681 3084 1819 3084 
Q 2600 3084 3056 2656 
Q 3513 2228 3513 1497 
Q 3513 744 3044 326 
Q 2575 -91 1722 -91 
Q 1428 -91 1123 -41 
Q 819 9 494 109 
L 494 744 
Q 775 591 1075 516 
Q 1375 441 1709 441 
Q 2250 441 2565 725 
Q 2881 1009 2881 1497 
Q 2881 1984 2565 2268 
Q 2250 2553 1709 2553 
Q 1456 2553 1204 2497 
Q 953 2441 691 2322 
L 691 4666 
z
" transform="scale(0.015625)"/>
     </defs>
     <use xlink:href="#DejaVuSans-35"/>
     <use xlink:href="#DejaVuSans-3a9" transform="translate(63.623047 0)"/>
    </g>
   </g>
   <g id="text_8">
    <!-- $R_3$ -->
    <g transform="translate(366.084213 129.870281) scale(0.14 -0.14)">
     <defs>
      <path id="DejaVuSans-33" d="M 2597 2516 
Q 3050 2419 3304 2112 
Q 3559 1806 3559 1356 
Q 3559 666 3084 287 
Q 2609 -91 1734 -91 
Q 1441 -91 1130 -33 
Q 819 25 488 141 
L 488 750 
Q 750 597 1062 519 
Q 1375 441 1716 441 
Q 2309 441 2620 675 
Q 2931 909 2931 1356 
Q 2931 1769 2642 2001 
Q 2353 2234 1838 2234 
L 1294 2234 
L 1294 2753 
L 1863 2753 
Q 2328 2753 2575 2939 
Q 2822 3125 2822 3475 
Q 2822 3834 2567 4026 
Q 2313 4219 1838 4219 
Q 1578 4219 1281 4162 
Q 984 4106 628 3988 
L 628 4550 
Q 988 4650 1302 4700 
Q 1616 4750 1894 4750 
Q 2613 4750 3031 4423 
Q 3450 4097 3450 3541 
Q 3450 3153 3228 2886 
Q 3006 2619 2597 2516 
z
" transform="scale(0.015625)"/>
     </defs>
     <use xlink:href="#DejaVuSans-Oblique-52" transform="translate(0 0.09375)"/>
     <use xlink:href="#DejaVuSans-33" transform="translate(69.482422 -16.3125) scale(0.7)"/>
    </g>
   </g>
   <g id="text_9">
    <!-- 3Ω -->
    <g transform="translate(458.71588 221.086636) scale(0.14 -0.14)">
     <use xlink:href="#DejaVuSans-33"/>
     <use xlink:href="#DejaVuSans-3a9" transform="translate(63.623047 0)"/>
    </g>
   </g>
   <g id="text_10">
    <!-- $R_4$ -->
    <g transform="translate(417.183043 221.086636) scale(0.14 -0.14)">
     <defs>
      <path id="DejaVuSans-34" d="M 2419 4116 
L 825 1625 
L 2419 1625 
L 2419 4116 
z
M 2253 4666 
L 3047 4666 
L 3047 1625 
L 3713 1625 
L 3713 1100 
L 3047 1100 
L 3047 0 
L 2419 0 
L 2419 1100 
L 313 1100 
L 313 1709 
L 2253 4666 
z
" transform="scale(0.015625)"/>
     </defs>
     <use xlink:href="#DejaVuSans-Oblique-52" transform="translate(0 0.09375)"/>
     <use xlink:href="#DejaVuSans-34" transform="translate(69.482422 -16.3125) scale(0.7)"/>
    </g>
   </g>
   <g id="text_11">
    <!-- 4A -->
    <g transform="translate(323.968539 221.086636) scale(0.14 -0.14)">
     <use xlink:href="#DejaVuSans-34"/>
     <use xlink:href="#DejaVuSans-41" transform="translate(63.623047 0)"/>
    </g>
   </g>
   <g id="text_12">
    <!-- $I_{S2}$ -->
    <g transform="translate(263.76939 221.086636) scale(0.14 -0.14)">
     <use xlink:href="#DejaVuSans-Oblique-49" transform="translate(0 0.09375)"/>
     <use xlink:href="#DejaVuSans-Oblique-53" transform="translate(29.492188 -16.3125) scale(0.7)"/>
     <use xlink:href="#DejaVuSans-32" transform="translate(73.925781 -16.3125) scale(0.7)"/>
    </g>
   </g>
   <g id="text_13">
    <!-- 4Ω -->
    <g transform="translate(238.706747 78.740933) scale(0.14 -0.14)">
     <use xlink:href="#DejaVuSans-34"/>
     <use xlink:href="#DejaVuSans-3a9" transform="translate(63.623047 0)"/>
    </g>
   </g>
   <g id="text_14">
    <!-- $R_5$ -->
    <g transform="translate(240.320029 40.038721) scale(0.14 -0.14)">
     <use xlink:href="#DejaVuSans-Oblique-52" transform="translate(0 0.09375)"/>
     <use xlink:href="#DejaVuSans-35" transform="translate(69.482422 -16.3125) scale(0.7)"/>
    </g>
   </g>
   <g id="text_15">
    <!-- Common Node -->
    <g style="fill: #0000ff" transform="translate(194.361189 15.521265) scale(0.14 -0.14)">
     <defs>
      <path id="DejaVuSans-43" d="M 4122 4306 
L 4122 3641 
Q 3803 3938 3442 4084 
Q 3081 4231 2675 4231 
Q 1875 4231 1450 3742 
Q 1025 3253 1025 2328 
Q 1025 1406 1450 917 
Q 1875 428 2675 428 
Q 3081 428 3442 575 
Q 3803 722 4122 1019 
L 4122 359 
Q 3791 134 3420 21 
Q 3050 -91 2638 -91 
Q 1578 -91 968 557 
Q 359 1206 359 2328 
Q 359 3453 968 4101 
Q 1578 4750 2638 4750 
Q 3056 4750 3426 4639 
Q 3797 4528 4122 4306 
z
" transform="scale(0.015625)"/>
      <path id="DejaVuSans-6f" d="M 1959 3097 
Q 1497 3097 1228 2736 
Q 959 2375 959 1747 
Q 959 1119 1226 758 
Q 1494 397 1959 397 
Q 2419 397 2687 759 
Q 2956 1122 2956 1747 
Q 2956 2369 2687 2733 
Q 2419 3097 1959 3097 
z
M 1959 3584 
Q 2709 3584 3137 3096 
Q 3566 2609 3566 1747 
Q 3566 888 3137 398 
Q 2709 -91 1959 -91 
Q 1206 -91 779 398 
Q 353 888 353 1747 
Q 353 2609 779 3096 
Q 1206 3584 1959 3584 
z
" transform="scale(0.015625)"/>
      <path id="DejaVuSans-6d" d="M 3328 2828 
Q 3544 3216 3844 3400 
Q 4144 3584 4550 3584 
Q 5097 3584 5394 3201 
Q 5691 2819 5691 2113 
L 5691 0 
L 5113 0 
L 5113 2094 
Q 5113 2597 4934 2840 
Q 4756 3084 4391 3084 
Q 3944 3084 3684 2787 
Q 3425 2491 3425 1978 
L 3425 0 
L 2847 0 
L 2847 2094 
Q 2847 2600 2669 2842 
Q 2491 3084 2119 3084 
Q 1678 3084 1418 2786 
Q 1159 2488 1159 1978 
L 1159 0 
L 581 0 
L 581 3500 
L 1159 3500 
L 1159 2956 
Q 1356 3278 1631 3431 
Q 1906 3584 2284 3584 
Q 2666 3584 2933 3390 
Q 3200 3197 3328 2828 
z
" transform="scale(0.015625)"/>
      <path id="DejaVuSans-6e" d="M 3513 2113 
L 3513 0 
L 2938 0 
L 2938 2094 
Q 2938 2591 2744 2837 
Q 2550 3084 2163 3084 
Q 1697 3084 1428 2787 
Q 1159 2491 1159 1978 
L 1159 0 
L 581 0 
L 581 3500 
L 1159 3500 
L 1159 2956 
Q 1366 3272 1645 3428 
Q 1925 3584 2291 3584 
Q 2894 3584 3203 3211 
Q 3513 2838 3513 2113 
z
" transform="scale(0.015625)"/>
      <path id="DejaVuSans-20" transform="scale(0.015625)"/>
      <path id="DejaVuSans-4e" d="M 628 4666 
L 1478 4666 
L 3547 763 
L 3547 4666 
L 4159 4666 
L 4159 0 
L 3309 0 
L 1241 3903 
L 1241 0 
L 628 0 
L 628 4666 
z
" transform="scale(0.015625)"/>
      <path id="DejaVuSans-64" d="M 2906 2969 
L 2906 4863 
L 3481 4863 
L 3481 0 
L 2906 0 
L 2906 525 
Q 2725 213 2448 61 
Q 2172 -91 1784 -91 
Q 1150 -91 751 415 
Q 353 922 353 1747 
Q 353 2572 751 3078 
Q 1150 3584 1784 3584 
Q 2172 3584 2448 3432 
Q 2725 3281 2906 2969 
z
M 947 1747 
Q 947 1113 1208 752 
Q 1469 391 1925 391 
Q 2381 391 2643 752 
Q 2906 1113 2906 1747 
Q 2906 2381 2643 2742 
Q 2381 3103 1925 3103 
Q 1469 3103 1208 2742 
Q 947 2381 947 1747 
z
" transform="scale(0.015625)"/>
      <path id="DejaVuSans-65" d="M 3597 1894 
L 3597 1613 
L 953 1613 
Q 991 1019 1311 708 
Q 1631 397 2203 397 
Q 2534 397 2845 478 
Q 3156 559 3463 722 
L 3463 178 
Q 3153 47 2828 -22 
Q 2503 -91 2169 -91 
Q 1331 -91 842 396 
Q 353 884 353 1716 
Q 353 2575 817 3079 
Q 1281 3584 2069 3584 
Q 2775 3584 3186 3129 
Q 3597 2675 3597 1894 
z
M 3022 2063 
Q 3016 2534 2758 2815 
Q 2500 3097 2075 3097 
Q 1594 3097 1305 2825 
Q 1016 2553 972 2059 
L 3022 2063 
z
" transform="scale(0.015625)"/>
     </defs>
     <use xlink:href="#DejaVuSans-43"/>
     <use xlink:href="#DejaVuSans-6f" transform="translate(69.824219 0)"/>
     <use xlink:href="#DejaVuSans-6d" transform="translate(131.005859 0)"/>
     <use xlink:href="#DejaVuSans-6d" transform="translate(228.417969 0)"/>
     <use xlink:href="#DejaVuSans-6f" transform="translate(325.830078 0)"/>
     <use xlink:href="#DejaVuSans-6e" transform="translate(387.011719 0)"/>
     <use xlink:href="#DejaVuSans-20" transform="translate(450.390625 0)"/>
     <use xlink:href="#DejaVuSans-4e" transform="translate(482.177734 0)"/>
     <use xlink:href="#DejaVuSans-6f" transform="translate(556.982422 0)"/>
     <use xlink:href="#DejaVuSans-64" transform="translate(618.164062 0)"/>
     <use xlink:href="#DejaVuSans-65" transform="translate(681.640625 0)"/>
    </g>
   </g>
   <g id="patch_9">
    <path d="M 158.678468 148.053209 
C 159.393176 148.053209 160.078708 147.769253 160.584083 147.263877 
C 161.089458 146.758502 161.373415 146.072971 161.373415 145.358262 
C 161.373415 144.643554 161.089458 143.958022 160.584083 143.452647 
C 160.078708 142.947272 159.393176 142.663316 158.678468 142.663316 
C 157.96376 142.663316 157.278228 142.947272 156.772853 143.452647 
C 156.267478 143.958022 155.983521 144.643554 155.983521 145.358262 
C 155.983521 146.072971 156.267478 146.758502 156.772853 147.263877 
C 157.278228 147.769253 157.96376 148.053209 158.678468 148.053209 
z
" clip-path="url(#pc3151b7790)" style="stroke: #000000; stroke-width: 2; stroke-linejoin: miter"/>
   </g>
   <g id="text_16">
    <!-- $V_1$ -->
    <g transform="translate(150.558468 136.158491) scale(0.14 -0.14)">
     <defs>
      <path id="DejaVuSans-Oblique-56" d="M 1319 0 
L 500 4666 
L 1119 4666 
L 1797 653 
L 4063 4666 
L 4750 4666 
L 2053 0 
L 1319 0 
z
" transform="scale(0.015625)"/>
     </defs>
     <use xlink:href="#DejaVuSans-Oblique-56" transform="translate(0 0.09375)"/>
     <use xlink:href="#DejaVuSans-31" transform="translate(68.408203 -16.3125) scale(0.7)"/>
    </g>
   </g>
   <g id="patch_10">
    <path d="M 302.408965 148.053209 
C 303.123673 148.053209 303.809205 147.769253 304.31458 147.263877 
C 304.819955 146.758502 305.103912 146.072971 305.103912 145.358262 
C 305.103912 144.643554 304.819955 143.958022 304.31458 143.452647 
C 303.809205 142.947272 303.123673 142.663316 302.408965 142.663316 
C 301.694256 142.663316 301.008725 142.947272 300.50335 143.452647 
C 299.997975 143.958022 299.714018 144.643554 299.714018 145.358262 
C 299.714018 146.072971 299.997975 146.758502 300.50335 147.263877 
C 301.008725 147.769253 301.694256 148.053209 302.408965 148.053209 
z
" clip-path="url(#pc3151b7790)" style="stroke: #000000; stroke-width: 2; stroke-linejoin: miter"/>
   </g>
   <g id="text_17">
    <!-- $V_2$ -->
    <g transform="translate(294.288965 136.158491) scale(0.14 -0.14)">
     <use xlink:href="#DejaVuSans-Oblique-56" transform="translate(0 0.09375)"/>
     <use xlink:href="#DejaVuSans-32" transform="translate(68.408203 -16.3125) scale(0.7)"/>
    </g>
   </g>
   <g id="patch_11">
    <path d="M 446.139461 148.053209 
C 446.85417 148.053209 447.539701 147.769253 448.045076 147.263877 
C 448.550452 146.758502 448.834408 146.072971 448.834408 145.358262 
C 448.834408 144.643554 448.550452 143.958022 448.045076 143.452647 
C 447.539701 142.947272 446.85417 142.663316 446.139461 142.663316 
C 445.424753 142.663316 444.739221 142.947272 444.233846 143.452647 
C 443.728471 143.958022 443.444514 144.643554 443.444514 145.358262 
C 443.444514 146.072971 443.728471 146.758502 444.233846 147.263877 
C 444.739221 147.769253 445.424753 148.053209 446.139461 148.053209 
z
" clip-path="url(#pc3151b7790)" style="stroke: #000000; stroke-width: 2; stroke-linejoin: miter"/>
   </g>
   <g id="text_18">
    <!-- $V_3$ -->
    <g transform="translate(452.427671 149.221387) scale(0.14 -0.14)">
     <use xlink:href="#DejaVuSans-Oblique-56" transform="translate(0 0.09375)"/>
     <use xlink:href="#DejaVuSans-33" transform="translate(68.408203 -16.3125) scale(0.7)"/>
    </g>
   </g>
   <g id="patch_12">
    <path d="M 50.880596 148.053209 
C 51.595304 148.053209 52.280836 147.769253 52.786211 147.263877 
C 53.291586 146.758502 53.575543 146.072971 53.575543 145.358262 
C 53.575543 144.643554 53.291586 143.958022 52.786211 143.452647 
C 52.280836 142.947272 51.595304 142.663316 50.880596 142.663316 
C 50.165888 142.663316 49.480356 142.947272 48.974981 143.452647 
C 48.469606 143.958022 48.185649 144.643554 48.185649 145.358262 
C 48.185649 146.072971 48.469606 146.758502 48.974981 147.263877 
C 49.480356 147.769253 50.165888 148.053209 50.880596 148.053209 
z
" clip-path="url(#pc3151b7790)" style="stroke: #000000; stroke-width: 2; stroke-linejoin: miter"/>
   </g>
   <g id="patch_13">
    <path d="M 50.880596 58.221649 
C 51.595304 58.221649 52.280836 57.937692 52.786211 57.432317 
C 53.291586 56.926942 53.575543 56.24141 53.575543 55.526702 
C 53.575543 54.811994 53.291586 54.126462 52.786211 53.621087 
C 52.280836 53.115712 51.595304 52.831755 50.880596 52.831755 
C 50.165888 52.831755 49.480356 53.115712 48.974981 53.621087 
C 48.469606 54.126462 48.185649 54.811994 48.185649 55.526702 
C 48.185649 56.24141 48.469606 56.926942 48.974981 57.432317 
C 49.480356 57.937692 50.165888 58.221649 50.880596 58.221649 
z
" clip-path="url(#pc3151b7790)" style="stroke: #000000; stroke-width: 2; stroke-linejoin: miter"/>
   </g>
  </g>
 </g>
 <defs>
  <clipPath id="pc3151b7790">
   <rect x="0" y="0" width="483.090176" height="293.76"/>
  </clipPath>
 </defs>
</svg>
