<?xml version="1.0" encoding="utf-8" standalone="no"?>
<!DOCTYPE svg PUBLIC "-//W3C//DTD SVG 1.1//EN"
  "http://www.w3.org/Graphics/SVG/1.1/DTD/svg11.dtd">
<svg xmlns:xlink="http://www.w3.org/1999/xlink" width="689.83597pt" height="186.48pt" viewBox="0 0 689.83597 186.48" xmlns="http://www.w3.org/2000/svg" version="1.1">
 <metadata>
  <rdf:RDF xmlns:dc="http://purl.org/dc/elements/1.1/" xmlns:cc="http://creativecommons.org/ns#" xmlns:rdf="http://www.w3.org/1999/02/22-rdf-syntax-ns#">
   <cc:Work>
    <dc:type rdf:resource="http://purl.org/dc/dcmitype/StillImage"/>
    <dc:date>2025-04-17T22:02:28.058440</dc:date>
    <dc:format>image/svg+xml</dc:format>
    <dc:creator>
     <cc:Agent>
      <dc:title>Matplotlib v3.10.1, https://matplotlib.org/</dc:title>
     </cc:Agent>
    </dc:creator>
   </cc:Work>
  </rdf:RDF>
 </metadata>
 <defs>
  <style type="text/css">*{stroke-linejoin: round; stroke-linecap: butt}</style>
 </defs>
 <g id="figure_1">
  <g id="patch_1">
   <path d="M 0 186.48 
L 689.83597 186.48 
L 689.83597 0 
L 0 0 
L 0 186.48 
z
" style="fill: none"/>
  </g>
  <g id="axes_1">
   <g id="patch_2">
    <path d="M 57.962768 120.839612 
C 62.71909 120.839612 67.281246 118.949905 70.644473 115.586678 
C 74.007701 112.223451 75.897407 107.661295 75.897407 102.904973 
C 75.897407 98.148651 74.007701 93.586496 70.644473 90.223268 
C 67.281246 86.860041 62.71909 84.970334 57.962768 84.970334 
C 53.206447 84.970334 48.644291 86.860041 45.281064 90.223268 
C 41.917836 93.586496 40.028129 98.148651 40.028129 102.904973 
C 40.028129 107.661295 41.917836 112.223451 45.281064 115.586678 
C 48.644291 118.949905 53.206447 120.839612 57.962768 120.839612 
L 57.962768 120.839612 
z
" clip-path="url(#p2ffe1ce09a)" style="fill: none; stroke: #000000; stroke-width: 2; stroke-linejoin: miter"/>
   </g>
   <g id="patch_3">
    <path d="M 631.871217 120.839612 
C 636.627539 120.839612 641.189694 118.949905 644.552922 115.586678 
C 647.916149 112.223451 649.805856 107.661295 649.805856 102.904973 
C 649.805856 98.148651 647.916149 93.586496 644.552922 90.223268 
C 641.189694 86.860041 636.627539 84.970334 631.871217 84.970334 
C 627.114895 84.970334 622.552739 86.860041 619.189512 90.223268 
C 615.826285 93.586496 613.936578 98.148651 613.936578 102.904973 
C 613.936578 107.661295 615.826285 112.223451 619.189512 115.586678 
C 622.552739 118.949905 627.114895 120.839612 631.871217 120.839612 
L 631.871217 120.839612 
z
" clip-path="url(#p2ffe1ce09a)" style="fill: none; stroke: #000000; stroke-width: 2; stroke-linejoin: miter"/>
   </g>
   <g id="patch_4">
    <path d="M 204.967026 102.904973 
C 204.967026 92.54229 202.376375 82.280371 197.343333 72.706501 
C 192.310291 63.13263 184.932739 54.432995 175.632891 47.105472 
C 166.333043 39.777948 155.291756 33.965038 143.140918 29.999411 
C 130.990081 26.033784 117.965996 23.992562 104.814024 23.992562 
C 91.662052 23.992562 78.637967 26.033784 66.487129 29.999411 
C 54.336291 33.965038 43.295005 39.777948 33.995157 47.105472 
C 24.695308 54.432995 17.317756 63.13263 12.284715 72.706501 
C 7.251673 82.280371 4.661021 92.54229 4.661021 102.904973 
C 4.661021 113.267656 7.251673 123.529575 12.284715 133.103446 
C 17.317756 142.677316 24.695308 151.376951 33.995157 158.704475 
C 43.295005 166.031998 54.336291 171.844908 66.487129 175.810535 
C 78.637967 179.776162 91.662052 181.817385 104.814024 181.817385 
C 117.965996 181.817385 130.990081 179.776162 143.140918 175.810535 
C 155.291756 171.844908 166.333043 166.031998 175.632891 158.704475 
C 184.932739 151.376951 192.310291 142.677316 197.343333 133.103446 
C 202.376375 123.529575 204.967026 113.267656 204.967026 102.904973 
" clip-path="url(#p2ffe1ce09a)" style="fill: none; stroke-dasharray: 7.4,3.2; stroke-dashoffset: 0; stroke: #0000ff; stroke-width: 2; stroke-linejoin: miter"/>
   </g>
   <g id="patch_5">
    <path d="M 685.172964 102.904973 
C 685.172964 92.54229 682.634271 82.280371 677.702172 72.706501 
C 672.770074 63.13263 665.540487 54.432995 656.427157 47.105472 
C 647.313828 39.777948 636.493986 33.965038 624.586847 29.999411 
C 612.679708 26.033784 599.916835 23.992562 587.028641 23.992562 
C 574.140447 23.992562 561.377574 26.033784 549.470435 29.999411 
C 537.563296 33.965038 526.743454 39.777948 517.630125 47.105472 
C 508.516795 54.432995 501.287208 63.13263 496.35511 72.706501 
C 491.423011 82.280371 488.884318 92.54229 488.884318 102.904973 
C 488.884318 113.267656 491.423011 123.529575 496.35511 133.103446 
C 501.287208 142.677316 508.516795 151.376951 517.630125 158.704475 
C 526.743454 166.031998 537.563296 171.844908 549.470435 175.810535 
C 561.377574 179.776162 574.140447 181.817385 587.028641 181.817385 
C 599.916835 181.817385 612.679708 179.776162 624.586847 175.810535 
C 636.493986 171.844908 647.313828 166.031998 656.427157 158.704475 
C 665.540487 151.376951 672.770074 142.677316 677.702172 133.103446 
C 682.634271 123.529575 685.172964 113.267656 685.172964 102.904973 
" clip-path="url(#p2ffe1ce09a)" style="fill: none; stroke-dasharray: 7.4,3.2; stroke-dashoffset: 0; stroke: #0000ff; stroke-width: 2; stroke-linejoin: miter"/>
   </g>
   <g id="line2d_1">
    <path d="M 57.962768 174.643529 
L 57.962768 120.839612 
L 57.962768 120.839612 
M 57.962768 84.970334 
L 57.962768 84.970334 
L 57.962768 31.166417 
" clip-path="url(#p2ffe1ce09a)" style="fill: none; stroke: #000000; stroke-width: 2; stroke-linecap: round"/>
   </g>
   <g id="line2d_2">
    <path d="M 57.962768 111.872293 
L 57.962768 102.904973 
" clip-path="url(#p2ffe1ce09a)" style="fill: none; stroke: #000000; stroke-width: 2; stroke-linecap: round"/>
   </g>
   <g id="patch_6">
    <path d="M 55.272573 102.904973 
L 57.962768 93.937654 
L 60.652964 102.904973 
z
" clip-path="url(#p2ffe1ce09a)"/>
   </g>
   <g id="line2d_3">
    <path d="M 57.962768 31.166417 
L 111.766685 31.166417 
L 165.570602 31.166417 
" clip-path="url(#p2ffe1ce09a)" style="fill: none; stroke: #000000; stroke-width: 2; stroke-linecap: round"/>
   </g>
   <g id="line2d_4">
    <path d="M 165.570602 31.166417 
L 165.570602 84.970334 
L 174.537922 87.959441 
L 156.603283 93.937654 
L 174.537922 99.915867 
L 156.603283 105.89408 
L 174.537922 111.872293 
L 156.603283 117.850506 
L 165.570602 120.839612 
L 165.570602 174.643529 
" clip-path="url(#p2ffe1ce09a)" style="fill: none; stroke: #000000; stroke-width: 2; stroke-linecap: round"/>
   </g>
   <g id="line2d_5">
    <path d="M 165.570602 31.166417 
L 219.37452 31.166417 
L 273.178437 31.166417 
" clip-path="url(#p2ffe1ce09a)" style="fill: none; stroke: #000000; stroke-width: 2; stroke-linecap: round"/>
   </g>
   <g id="line2d_6">
    <path d="M 273.178437 31.166417 
L 273.178437 84.970334 
L 282.145756 87.959441 
L 264.211117 93.937654 
L 282.145756 99.915867 
L 264.211117 105.89408 
L 282.145756 111.872293 
L 264.211117 117.850506 
L 273.178437 120.839612 
L 273.178437 174.643529 
" clip-path="url(#p2ffe1ce09a)" style="fill: none; stroke: #000000; stroke-width: 2; stroke-linecap: round"/>
   </g>
   <g id="line2d_7">
    <path d="M 273.178437 31.166417 
L 326.982354 31.166417 
L 329.97146 22.199098 
L 335.949673 40.133737 
L 341.927886 22.199098 
L 347.906099 40.133737 
L 353.884312 22.199098 
L 359.862525 40.133737 
L 362.851632 31.166417 
L 416.655549 31.166417 
" clip-path="url(#p2ffe1ce09a)" style="fill: none; stroke: #000000; stroke-width: 2; stroke-linecap: round"/>
   </g>
   <g id="line2d_8">
    <path d="M 416.655549 31.166417 
L 416.655549 84.970334 
L 425.622868 87.959441 
L 407.688229 93.937654 
L 425.622868 99.915867 
L 407.688229 105.89408 
L 425.622868 111.872293 
L 407.688229 117.850506 
L 416.655549 120.839612 
L 416.655549 174.643529 
" clip-path="url(#p2ffe1ce09a)" style="fill: none; stroke: #000000; stroke-width: 2; stroke-linecap: round"/>
   </g>
   <g id="line2d_9">
    <path d="M 416.655549 31.166417 
L 470.459466 31.166417 
L 524.263383 31.166417 
" clip-path="url(#p2ffe1ce09a)" style="fill: none; stroke: #000000; stroke-width: 2; stroke-linecap: round"/>
   </g>
   <g id="line2d_10">
    <path d="M 524.263383 31.166417 
L 524.263383 84.970334 
L 533.230702 87.959441 
L 515.296063 93.937654 
L 533.230702 99.915867 
L 515.296063 105.89408 
L 533.230702 111.872293 
L 515.296063 117.850506 
L 524.263383 120.839612 
L 524.263383 174.643529 
" clip-path="url(#p2ffe1ce09a)" style="fill: none; stroke: #000000; stroke-width: 2; stroke-linecap: round"/>
   </g>
   <g id="line2d_11">
    <path d="M 524.263383 31.166417 
L 578.0673 31.166417 
L 631.871217 31.166417 
" clip-path="url(#p2ffe1ce09a)" style="fill: none; stroke: #000000; stroke-width: 2; stroke-linecap: round"/>
   </g>
   <g id="line2d_12">
    <path d="M 631.871217 31.166417 
L 631.871217 84.970334 
L 631.871217 84.970334 
M 631.871217 120.839612 
L 631.871217 120.839612 
L 631.871217 174.643529 
" clip-path="url(#p2ffe1ce09a)" style="fill: none; stroke: #000000; stroke-width: 2; stroke-linecap: round"/>
   </g>
   <g id="line2d_13">
    <path d="M 631.871217 93.937654 
L 631.871217 102.904973 
" clip-path="url(#p2ffe1ce09a)" style="fill: none; stroke: #000000; stroke-width: 2; stroke-linecap: round"/>
   </g>
   <g id="patch_7">
    <path d="M 634.561413 102.904973 
L 631.871217 111.872293 
L 629.181021 102.904973 
z
" clip-path="url(#p2ffe1ce09a)"/>
   </g>
   <g id="line2d_14">
    <path d="M 631.871217 174.643529 
L 344.916993 174.643529 
L 57.962768 174.643529 
" clip-path="url(#p2ffe1ce09a)" style="fill: none; stroke: #000000; stroke-width: 2; stroke-linecap: round"/>
   </g>
   <g id="text_1">
    <!-- 1A -->
    <g transform="translate(79.484335 106.768098) scale(0.14 -0.14)">
     <defs>
      <path id="DejaVuSans-31" d="M 794 531 
L 1825 531 
L 1825 4091 
L 703 3866 
L 703 4441 
L 1819 4666 
L 2450 4666 
L 2450 531 
L 3481 531 
L 3481 0 
L 794 0 
L 794 531 
z
" transform="scale(0.015625)"/>
      <path id="DejaVuSans-41" d="M 2188 4044 
L 1331 1722 
L 3047 1722 
L 2188 4044 
z
M 1831 4666 
L 2547 4666 
L 4325 0 
L 3669 0 
L 3244 1197 
L 1141 1197 
L 716 0 
L 50 0 
L 1831 4666 
z
" transform="scale(0.015625)"/>
     </defs>
     <use xlink:href="#DejaVuSans-31"/>
     <use xlink:href="#DejaVuSans-41" transform="translate(63.623047 0)"/>
    </g>
   </g>
   <g id="text_2">
    <!-- $I_{S1}$ -->
    <g transform="translate(19.361202 106.768098) scale(0.14 -0.14)">
     <defs>
      <path id="DejaVuSans-Oblique-49" d="M 1081 4666 
L 1716 4666 
L 806 0 
L 172 0 
L 1081 4666 
z
" transform="scale(0.015625)"/>
      <path id="DejaVuSans-Oblique-53" d="M 3859 4513 
L 3738 3897 
Q 3422 4066 3111 4152 
Q 2800 4238 2509 4238 
Q 1944 4238 1609 3991 
Q 1275 3744 1275 3334 
Q 1275 3109 1398 2989 
Q 1522 2869 2034 2731 
L 2413 2638 
Q 3053 2472 3303 2217 
Q 3553 1963 3553 1503 
Q 3553 797 2998 353 
Q 2444 -91 1538 -91 
Q 1166 -91 791 -17 
Q 416 56 38 206 
L 166 856 
Q 513 641 861 531 
Q 1209 422 1556 422 
Q 2147 422 2503 684 
Q 2859 947 2859 1369 
Q 2859 1650 2717 1795 
Q 2575 1941 2106 2059 
L 1728 2156 
Q 1081 2325 845 2545 
Q 609 2766 609 3163 
Q 609 3859 1145 4304 
Q 1681 4750 2541 4750 
Q 2875 4750 3203 4690 
Q 3531 4631 3859 4513 
z
" transform="scale(0.015625)"/>
     </defs>
     <use xlink:href="#DejaVuSans-Oblique-49" transform="translate(0 0.09375)"/>
     <use xlink:href="#DejaVuSans-Oblique-53" transform="translate(29.492188 -16.3125) scale(0.7)"/>
     <use xlink:href="#DejaVuSans-31" transform="translate(73.925781 -16.3125) scale(0.7)"/>
    </g>
   </g>
   <g id="text_3">
    <!-- 6Ω -->
    <g transform="translate(178.12485 106.768098) scale(0.14 -0.14)">
     <defs>
      <path id="DejaVuSans-36" d="M 2113 2584 
Q 1688 2584 1439 2293 
Q 1191 2003 1191 1497 
Q 1191 994 1439 701 
Q 1688 409 2113 409 
Q 2538 409 2786 701 
Q 3034 994 3034 1497 
Q 3034 2003 2786 2293 
Q 2538 2584 2113 2584 
z
M 3366 4563 
L 3366 3988 
Q 3128 4100 2886 4159 
Q 2644 4219 2406 4219 
Q 1781 4219 1451 3797 
Q 1122 3375 1075 2522 
Q 1259 2794 1537 2939 
Q 1816 3084 2150 3084 
Q 2853 3084 3261 2657 
Q 3669 2231 3669 1497 
Q 3669 778 3244 343 
Q 2819 -91 2113 -91 
Q 1303 -91 875 529 
Q 447 1150 447 2328 
Q 447 3434 972 4092 
Q 1497 4750 2381 4750 
Q 2619 4750 2861 4703 
Q 3103 4656 3366 4563 
z
" transform="scale(0.015625)"/>
      <path id="DejaVuSans-3a9" d="M 4647 556 
L 4647 0 
L 2772 0 
L 2772 556 
Q 3325 859 3634 1378 
Q 3944 1897 3944 2528 
Q 3944 3278 3531 3731 
Q 3119 4184 2444 4184 
Q 1769 4184 1355 3729 
Q 941 3275 941 2528 
Q 941 1897 1250 1378 
Q 1563 859 2119 556 
L 2119 0 
L 244 0 
L 244 556 
L 1241 556 
Q 747 991 519 1456 
Q 294 1922 294 2497 
Q 294 3491 894 4106 
Q 1491 4722 2444 4722 
Q 3391 4722 3994 4106 
Q 4594 3494 4594 2528 
Q 4594 1922 4372 1459 
Q 4150 997 3647 556 
L 4647 556 
z
" transform="scale(0.015625)"/>
     </defs>
     <use xlink:href="#DejaVuSans-36"/>
     <use xlink:href="#DejaVuSans-3a9" transform="translate(63.623047 0)"/>
    </g>
   </g>
   <g id="text_4">
    <!-- $R_1$ -->
    <g transform="translate(136.636355 106.768098) scale(0.14 -0.14)">
     <defs>
      <path id="DejaVuSans-Oblique-52" d="M 1613 4147 
L 1294 2491 
L 2106 2491 
Q 2584 2491 2879 2755 
Q 3175 3019 3175 3444 
Q 3175 3784 2976 3965 
Q 2778 4147 2406 4147 
L 1613 4147 
z
M 2772 2241 
Q 2972 2194 3105 2009 
Q 3238 1825 3413 1275 
L 3809 0 
L 3144 0 
L 2778 1197 
Q 2638 1659 2453 1815 
Q 2269 1972 1888 1972 
L 1191 1972 
L 806 0 
L 172 0 
L 1081 4666 
L 2503 4666 
Q 3150 4666 3495 4373 
Q 3841 4081 3841 3531 
Q 3841 3044 3547 2687 
Q 3253 2331 2772 2241 
z
" transform="scale(0.015625)"/>
     </defs>
     <use xlink:href="#DejaVuSans-Oblique-52" transform="translate(0 0.09375)"/>
     <use xlink:href="#DejaVuSans-31" transform="translate(69.482422 -16.3125) scale(0.7)"/>
    </g>
   </g>
   <g id="text_5">
    <!-- 3Ω -->
    <g transform="translate(285.732684 106.768098) scale(0.14 -0.14)">
     <defs>
      <path id="DejaVuSans-33" d="M 2597 2516 
Q 3050 2419 3304 2112 
Q 3559 1806 3559 1356 
Q 3559 666 3084 287 
Q 2609 -91 1734 -91 
Q 1441 -91 1130 -33 
Q 819 25 488 141 
L 488 750 
Q 750 597 1062 519 
Q 1375 441 1716 441 
Q 2309 441 2620 675 
Q 2931 909 2931 1356 
Q 2931 1769 2642 2001 
Q 2353 2234 1838 2234 
L 1294 2234 
L 1294 2753 
L 1863 2753 
Q 2328 2753 2575 2939 
Q 2822 3125 2822 3475 
Q 2822 3834 2567 4026 
Q 2313 4219 1838 4219 
Q 1578 4219 1281 4162 
Q 984 4106 628 3988 
L 628 4550 
Q 988 4650 1302 4700 
Q 1616 4750 1894 4750 
Q 2613 4750 3031 4423 
Q 3450 4097 3450 3541 
Q 3450 3153 3228 2886 
Q 3006 2619 2597 2516 
z
" transform="scale(0.015625)"/>
     </defs>
     <use xlink:href="#DejaVuSans-33"/>
     <use xlink:href="#DejaVuSans-3a9" transform="translate(63.623047 0)"/>
    </g>
   </g>
   <g id="text_6">
    <!-- $R_2$ -->
    <g transform="translate(244.244189 106.768098) scale(0.14 -0.14)">
     <defs>
      <path id="DejaVuSans-32" d="M 1228 531 
L 3431 531 
L 3431 0 
L 469 0 
L 469 531 
Q 828 903 1448 1529 
Q 2069 2156 2228 2338 
Q 2531 2678 2651 2914 
Q 2772 3150 2772 3378 
Q 2772 3750 2511 3984 
Q 2250 4219 1831 4219 
Q 1534 4219 1204 4116 
Q 875 4013 500 3803 
L 500 4441 
Q 881 4594 1212 4672 
Q 1544 4750 1819 4750 
Q 2544 4750 2975 4387 
Q 3406 4025 3406 3419 
Q 3406 3131 3298 2873 
Q 3191 2616 2906 2266 
Q 2828 2175 2409 1742 
Q 1991 1309 1228 531 
z
" transform="scale(0.015625)"/>
     </defs>
     <use xlink:href="#DejaVuSans-Oblique-52" transform="translate(0 0.09375)"/>
     <use xlink:href="#DejaVuSans-32" transform="translate(69.482422 -16.3125) scale(0.7)"/>
    </g>
   </g>
   <g id="text_7">
    <!-- 6Ω -->
    <g transform="translate(335.113711 54.358477) scale(0.14 -0.14)">
     <use xlink:href="#DejaVuSans-36"/>
     <use xlink:href="#DejaVuSans-3a9" transform="translate(63.623047 0)"/>
    </g>
   </g>
   <g id="text_8">
    <!-- $R_3$ -->
    <g transform="translate(336.726993 15.700607) scale(0.14 -0.14)">
     <use xlink:href="#DejaVuSans-Oblique-52" transform="translate(0 0.09375)"/>
     <use xlink:href="#DejaVuSans-33" transform="translate(69.482422 -16.3125) scale(0.7)"/>
    </g>
   </g>
   <g id="text_9">
    <!-- 4Ω -->
    <g transform="translate(429.209796 106.768098) scale(0.14 -0.14)">
     <defs>
      <path id="DejaVuSans-34" d="M 2419 4116 
L 825 1625 
L 2419 1625 
L 2419 4116 
z
M 2253 4666 
L 3047 4666 
L 3047 1625 
L 3713 1625 
L 3713 1100 
L 3047 1100 
L 3047 0 
L 2419 0 
L 2419 1100 
L 313 1100 
L 313 1709 
L 2253 4666 
z
" transform="scale(0.015625)"/>
     </defs>
     <use xlink:href="#DejaVuSans-34"/>
     <use xlink:href="#DejaVuSans-3a9" transform="translate(63.623047 0)"/>
    </g>
   </g>
   <g id="text_10">
    <!-- $R_4$ -->
    <g transform="translate(387.721301 106.768098) scale(0.14 -0.14)">
     <use xlink:href="#DejaVuSans-Oblique-52" transform="translate(0 0.09375)"/>
     <use xlink:href="#DejaVuSans-34" transform="translate(69.482422 -16.3125) scale(0.7)"/>
    </g>
   </g>
   <g id="text_11">
    <!-- 2Ω -->
    <g transform="translate(536.81763 106.768098) scale(0.14 -0.14)">
     <use xlink:href="#DejaVuSans-32"/>
     <use xlink:href="#DejaVuSans-3a9" transform="translate(63.623047 0)"/>
    </g>
   </g>
   <g id="text_12">
    <!-- $R_5$ -->
    <g transform="translate(495.329135 106.768098) scale(0.14 -0.14)">
     <defs>
      <path id="DejaVuSans-35" d="M 691 4666 
L 3169 4666 
L 3169 4134 
L 1269 4134 
L 1269 2991 
Q 1406 3038 1543 3061 
Q 1681 3084 1819 3084 
Q 2600 3084 3056 2656 
Q 3513 2228 3513 1497 
Q 3513 744 3044 326 
Q 2575 -91 1722 -91 
Q 1428 -91 1123 -41 
Q 819 9 494 109 
L 494 744 
Q 775 591 1075 516 
Q 1375 441 1709 441 
Q 2250 441 2565 725 
Q 2881 1009 2881 1497 
Q 2881 1984 2565 2268 
Q 2250 2553 1709 2553 
Q 1456 2553 1204 2497 
Q 953 2441 691 2322 
L 691 4666 
z
" transform="scale(0.015625)"/>
     </defs>
     <use xlink:href="#DejaVuSans-Oblique-52" transform="translate(0 0.09375)"/>
     <use xlink:href="#DejaVuSans-35" transform="translate(69.482422 -16.3125) scale(0.7)"/>
    </g>
   </g>
   <g id="text_13">
    <!-- 1.5A -->
    <g transform="translate(578.5084 106.768098) scale(0.14 -0.14)">
     <defs>
      <path id="DejaVuSans-2e" d="M 684 794 
L 1344 794 
L 1344 0 
L 684 0 
L 684 794 
z
" transform="scale(0.015625)"/>
     </defs>
     <use xlink:href="#DejaVuSans-31"/>
     <use xlink:href="#DejaVuSans-2e" transform="translate(63.623047 0)"/>
     <use xlink:href="#DejaVuSans-35" transform="translate(95.410156 0)"/>
     <use xlink:href="#DejaVuSans-41" transform="translate(159.033203 0)"/>
    </g>
   </g>
   <g id="text_14">
    <!-- $I_{S2}$ -->
    <g transform="translate(653.392784 106.768098) scale(0.14 -0.14)">
     <use xlink:href="#DejaVuSans-Oblique-49" transform="translate(0 0.09375)"/>
     <use xlink:href="#DejaVuSans-Oblique-53" transform="translate(29.492188 -16.3125) scale(0.7)"/>
     <use xlink:href="#DejaVuSans-32" transform="translate(73.925781 -16.3125) scale(0.7)"/>
    </g>
   </g>
  </g>
 </g>
 <defs>
  <clipPath id="p2ffe1ce09a">
   <rect x="0" y="0" width="689.83597" height="186.48"/>
  </clipPath>
 </defs>
</svg>
