<?xml version="1.0" encoding="utf-8" standalone="no"?>
<!DOCTYPE svg PUBLIC "-//W3C//DTD SVG 1.1//EN"
  "http://www.w3.org/Graphics/SVG/1.1/DTD/svg11.dtd">
<svg xmlns:xlink="http://www.w3.org/1999/xlink" width="542.465998pt" height="193.68pt" viewBox="0 0 542.465998 193.68" xmlns="http://www.w3.org/2000/svg" version="1.1">
 <metadata>
  <rdf:RDF xmlns:dc="http://purl.org/dc/elements/1.1/" xmlns:cc="http://creativecommons.org/ns#" xmlns:rdf="http://www.w3.org/1999/02/22-rdf-syntax-ns#">
   <cc:Work>
    <dc:type rdf:resource="http://purl.org/dc/dcmitype/StillImage"/>
    <dc:date>2025-04-17T22:04:31.543188</dc:date>
    <dc:format>image/svg+xml</dc:format>
    <dc:creator>
     <cc:Agent>
      <dc:title>Matplotlib v3.10.1, https://matplotlib.org/</dc:title>
     </cc:Agent>
    </dc:creator>
   </cc:Work>
  </rdf:RDF>
 </metadata>
 <defs>
  <style type="text/css">*{stroke-linejoin: round; stroke-linecap: butt}</style>
 </defs>
 <g id="figure_1">
  <g id="patch_1">
   <path d="M 0 193.68 
L 542.465998 193.68 
L 542.465998 0 
L 0 0 
L 0 193.68 
z
" style="fill: none"/>
  </g>
  <g id="axes_1">
   <g id="patch_2">
    <path d="M 55.987695 128.030639 
C 60.744672 128.030639 65.307456 126.140672 68.671146 122.776981 
C 72.034837 119.413291 73.924804 114.850507 73.924804 110.09353 
C 73.924804 105.336553 72.034837 100.77377 68.671146 97.410079 
C 65.307456 94.046389 60.744672 92.156422 55.987695 92.156422 
C 51.230718 92.156422 46.667935 94.046389 43.304244 97.410079 
C 39.940553 100.77377 38.050587 105.336553 38.050587 110.09353 
C 38.050587 114.850507 39.940553 119.413291 43.304244 122.776981 
C 46.667935 126.140672 51.230718 128.030639 55.987695 128.030639 
L 55.987695 128.030639 
z
" clip-path="url(#pf4a89df300)" style="fill: none; stroke: #000000; stroke-width: 2; stroke-linejoin: miter"/>
   </g>
   <g id="patch_3">
    <path d="M 486.478303 128.030639 
C 491.23528 128.030639 495.798064 126.140672 499.161754 122.776981 
C 502.525445 119.413291 504.415412 114.850507 504.415412 110.09353 
C 504.415412 105.336553 502.525445 100.77377 499.161754 97.410079 
C 495.798064 94.046389 491.23528 92.156422 486.478303 92.156422 
C 481.721326 92.156422 477.158543 94.046389 473.794852 97.410079 
C 470.431162 100.77377 468.541195 105.336553 468.541195 110.09353 
C 468.541195 114.850507 470.431162 119.413291 473.794852 122.776981 
C 477.158543 126.140672 481.721326 128.030639 486.478303 128.030639 
L 486.478303 128.030639 
z
" clip-path="url(#pf4a89df300)" style="fill: none; stroke: #000000; stroke-width: 2; stroke-linejoin: miter"/>
   </g>
   <g id="patch_4">
    <path d="M 170.785191 96.84 
C 170.785191 84.735452 169.007845 72.748606 165.554871 61.565463 
C 162.101896 50.382319 157.040445 40.220361 150.66018 31.661154 
C 144.279915 23.101946 136.704918 16.311943 128.3687 11.679733 
C 120.032482 7.047523 111.097163 4.663192 102.074106 4.663192 
C 93.051049 4.663192 84.11573 7.047523 75.779513 11.679733 
C 67.443295 16.311943 59.868298 23.101946 53.488033 31.661154 
C 47.107768 40.220361 42.046316 50.382319 38.593342 61.565463 
C 35.140368 72.748606 33.363022 84.735452 33.363022 96.84 
C 33.363022 108.944548 35.140368 120.931394 38.593342 132.114537 
C 42.046316 143.297681 47.107768 153.459639 53.488033 162.018846 
C 59.868298 170.578054 67.443295 177.368057 75.779513 182.000267 
C 84.11573 186.632477 93.051049 189.016808 102.074106 189.016808 
C 111.097163 189.016808 120.032482 186.632477 128.3687 182.000267 
C 136.704918 177.368057 144.279915 170.578054 150.66018 162.018846 
C 157.040445 153.459639 162.101896 143.297681 165.554871 132.114537 
C 169.007845 120.931394 170.785191 108.944548 170.785191 96.84 
" clip-path="url(#pf4a89df300)" style="fill: none; stroke-dasharray: 7.4,3.2; stroke-dashoffset: 0; stroke: #0000ff; stroke-width: 2; stroke-linejoin: miter"/>
   </g>
   <g id="patch_5">
    <path d="M 509.102976 96.84 
C 509.102976 84.735452 507.325631 72.748606 503.872656 61.565463 
C 500.419682 50.382319 495.35823 40.220361 488.977966 31.661154 
C 482.597701 23.101946 475.022703 16.311943 466.686486 11.679733 
C 458.350268 7.047523 449.414949 4.663192 440.391892 4.663192 
C 431.368835 4.663192 422.433516 7.047523 414.097298 11.679733 
C 405.761081 16.311943 398.186083 23.101946 391.805818 31.661154 
C 385.425554 40.220361 380.364102 50.382319 376.911128 61.565463 
C 373.458153 72.748606 371.680808 84.735452 371.680808 96.84 
C 371.680808 108.944548 373.458153 120.931394 376.911128 132.114537 
C 380.364102 143.297681 385.425554 153.459639 391.805818 162.018846 
C 398.186083 170.578054 405.761081 177.368057 414.097298 182.000267 
C 422.433516 186.632477 431.368835 189.016808 440.391892 189.016808 
C 449.414949 189.016808 458.350268 186.632477 466.686486 182.000267 
C 475.022703 177.368057 482.597701 170.578054 488.977966 162.018846 
C 495.35823 153.459639 500.419682 143.297681 503.872656 132.114537 
C 507.325631 120.931394 509.102976 108.944548 509.102976 96.84 
" clip-path="url(#pf4a89df300)" style="fill: none; stroke-dasharray: 7.4,3.2; stroke-dashoffset: 0; stroke: #0000ff; stroke-width: 2; stroke-linejoin: miter"/>
   </g>
   <g id="line2d_1">
    <path d="M 55.987695 181.841965 
L 55.987695 128.030639 
L 55.987695 128.030639 
M 55.987695 92.156422 
L 55.987695 92.156422 
L 55.987695 38.345096 
" clip-path="url(#pf4a89df300)" style="fill: none; stroke: #000000; stroke-width: 2; stroke-linecap: round"/>
   </g>
   <g id="line2d_2">
    <path d="M 59.575117 119.062085 
L 52.400273 119.062085 
" clip-path="url(#pf4a89df300)" style="fill: none; stroke: #000000; stroke-width: 2; stroke-linecap: round"/>
   </g>
   <g id="line2d_3">
    <path d="M 55.987695 104.712398 
L 55.987695 97.537554 
" clip-path="url(#pf4a89df300)" style="fill: none; stroke: #000000; stroke-width: 2; stroke-linecap: round"/>
   </g>
   <g id="line2d_4">
    <path d="M 59.575117 101.124976 
L 52.400273 101.124976 
" clip-path="url(#pf4a89df300)" style="fill: none; stroke: #000000; stroke-width: 2; stroke-linecap: round"/>
   </g>
   <g id="line2d_5">
    <path d="M 55.987695 38.345096 
L 109.799021 38.345096 
L 112.788539 29.376541 
L 118.767576 47.31365 
L 124.746612 29.376541 
L 130.725648 47.31365 
L 136.704684 29.376541 
L 142.68372 47.31365 
L 145.673239 38.345096 
L 199.484565 38.345096 
" clip-path="url(#pf4a89df300)" style="fill: none; stroke: #000000; stroke-width: 2; stroke-linecap: round"/>
   </g>
   <g id="line2d_6">
    <path d="M 199.484565 38.345096 
L 199.484565 92.156422 
L 208.453119 95.14594 
L 190.51601 101.124976 
L 208.453119 107.104012 
L 190.51601 113.083048 
L 208.453119 119.062085 
L 190.51601 125.041121 
L 199.484565 128.030639 
L 199.484565 181.841965 
" clip-path="url(#pf4a89df300)" style="fill: none; stroke: #000000; stroke-width: 2; stroke-linecap: round"/>
   </g>
   <g id="line2d_7">
    <path d="M 199.484565 38.345096 
L 253.295891 38.345096 
L 256.285409 29.376541 
L 262.264445 47.31365 
L 268.243481 29.376541 
L 274.222517 47.31365 
L 280.201554 29.376541 
L 286.18059 47.31365 
L 289.170108 38.345096 
L 342.981434 38.345096 
" clip-path="url(#pf4a89df300)" style="fill: none; stroke: #000000; stroke-width: 2; stroke-linecap: round"/>
   </g>
   <g id="line2d_8">
    <path d="M 342.981434 38.345096 
L 342.981434 92.156422 
L 351.949988 95.14594 
L 334.01288 101.124976 
L 351.949988 107.104012 
L 334.01288 113.083048 
L 351.949988 119.062085 
L 334.01288 125.041121 
L 342.981434 128.030639 
L 342.981434 181.841965 
" clip-path="url(#pf4a89df300)" style="fill: none; stroke: #000000; stroke-width: 2; stroke-linecap: round"/>
   </g>
   <g id="line2d_9">
    <path d="M 342.981434 38.345096 
L 396.79276 38.345096 
L 399.782278 29.376541 
L 405.761314 47.31365 
L 411.74035 29.376541 
L 417.719387 47.31365 
L 423.698423 29.376541 
L 429.677459 47.31365 
L 432.666977 38.345096 
L 486.478303 38.345096 
" clip-path="url(#pf4a89df300)" style="fill: none; stroke: #000000; stroke-width: 2; stroke-linecap: round"/>
   </g>
   <g id="line2d_10">
    <path d="M 486.478303 38.345096 
L 486.478303 92.156422 
L 486.478303 92.156422 
M 486.478303 128.030639 
L 486.478303 128.030639 
L 486.478303 181.841965 
" clip-path="url(#pf4a89df300)" style="fill: none; stroke: #000000; stroke-width: 2; stroke-linecap: round"/>
   </g>
   <g id="line2d_11">
    <path d="M 482.890882 101.124976 
L 490.065725 101.124976 
" clip-path="url(#pf4a89df300)" style="fill: none; stroke: #000000; stroke-width: 2; stroke-linecap: round"/>
   </g>
   <g id="line2d_12">
    <path d="M 486.478303 115.474663 
L 486.478303 122.649506 
" clip-path="url(#pf4a89df300)" style="fill: none; stroke: #000000; stroke-width: 2; stroke-linecap: round"/>
   </g>
   <g id="line2d_13">
    <path d="M 482.890882 119.062085 
L 490.065725 119.062085 
" clip-path="url(#pf4a89df300)" style="fill: none; stroke: #000000; stroke-width: 2; stroke-linecap: round"/>
   </g>
   <g id="line2d_14">
    <path d="M 486.478303 181.841965 
L 271.232999 181.841965 
L 55.987695 181.841965 
" clip-path="url(#pf4a89df300)" style="fill: none; stroke: #000000; stroke-width: 2; stroke-linecap: round"/>
   </g>
   <g id="text_1">
    <!-- 6V -->
    <g transform="translate(77.512226 113.956655) scale(0.14 -0.14)">
     <defs>
      <path id="DejaVuSans-36" d="M 2113 2584 
Q 1688 2584 1439 2293 
Q 1191 2003 1191 1497 
Q 1191 994 1439 701 
Q 1688 409 2113 409 
Q 2538 409 2786 701 
Q 3034 994 3034 1497 
Q 3034 2003 2786 2293 
Q 2538 2584 2113 2584 
z
M 3366 4563 
L 3366 3988 
Q 3128 4100 2886 4159 
Q 2644 4219 2406 4219 
Q 1781 4219 1451 3797 
Q 1122 3375 1075 2522 
Q 1259 2794 1537 2939 
Q 1816 3084 2150 3084 
Q 2853 3084 3261 2657 
Q 3669 2231 3669 1497 
Q 3669 778 3244 343 
Q 2819 -91 2113 -91 
Q 1303 -91 875 529 
Q 447 1150 447 2328 
Q 447 3434 972 4092 
Q 1497 4750 2381 4750 
Q 2619 4750 2861 4703 
Q 3103 4656 3366 4563 
z
" transform="scale(0.015625)"/>
      <path id="DejaVuSans-56" d="M 1831 0 
L 50 4666 
L 709 4666 
L 2188 738 
L 3669 4666 
L 4325 4666 
L 2547 0 
L 1831 0 
z
" transform="scale(0.015625)"/>
     </defs>
     <use xlink:href="#DejaVuSans-36"/>
     <use xlink:href="#DejaVuSans-56" transform="translate(63.623047 0)"/>
    </g>
   </g>
   <g id="text_2">
    <!-- $V_{S1}$ -->
    <g transform="translate(11.923165 113.956655) scale(0.14 -0.14)">
     <defs>
      <path id="DejaVuSans-Oblique-56" d="M 1319 0 
L 500 4666 
L 1119 4666 
L 1797 653 
L 4063 4666 
L 4750 4666 
L 2053 0 
L 1319 0 
z
" transform="scale(0.015625)"/>
      <path id="DejaVuSans-Oblique-53" d="M 3859 4513 
L 3738 3897 
Q 3422 4066 3111 4152 
Q 2800 4238 2509 4238 
Q 1944 4238 1609 3991 
Q 1275 3744 1275 3334 
Q 1275 3109 1398 2989 
Q 1522 2869 2034 2731 
L 2413 2638 
Q 3053 2472 3303 2217 
Q 3553 1963 3553 1503 
Q 3553 797 2998 353 
Q 2444 -91 1538 -91 
Q 1166 -91 791 -17 
Q 416 56 38 206 
L 166 856 
Q 513 641 861 531 
Q 1209 422 1556 422 
Q 2147 422 2503 684 
Q 2859 947 2859 1369 
Q 2859 1650 2717 1795 
Q 2575 1941 2106 2059 
L 1728 2156 
Q 1081 2325 845 2545 
Q 609 2766 609 3163 
Q 609 3859 1145 4304 
Q 1681 4750 2541 4750 
Q 2875 4750 3203 4690 
Q 3531 4631 3859 4513 
z
" transform="scale(0.015625)"/>
      <path id="DejaVuSans-31" d="M 794 531 
L 1825 531 
L 1825 4091 
L 703 3866 
L 703 4441 
L 1819 4666 
L 2450 4666 
L 2450 531 
L 3481 531 
L 3481 0 
L 794 0 
L 794 531 
z
" transform="scale(0.015625)"/>
     </defs>
     <use xlink:href="#DejaVuSans-Oblique-56" transform="translate(0 0.09375)"/>
     <use xlink:href="#DejaVuSans-Oblique-53" transform="translate(68.408203 -16.3125) scale(0.7)"/>
     <use xlink:href="#DejaVuSans-31" transform="translate(112.841797 -16.3125) scale(0.7)"/>
    </g>
   </g>
   <g id="text_3">
    <!-- 6Ω -->
    <g transform="translate(117.932849 61.538884) scale(0.14 -0.14)">
     <defs>
      <path id="DejaVuSans-3a9" d="M 4647 556 
L 4647 0 
L 2772 0 
L 2772 556 
Q 3325 859 3634 1378 
Q 3944 1897 3944 2528 
Q 3944 3278 3531 3731 
Q 3119 4184 2444 4184 
Q 1769 4184 1355 3729 
Q 941 3275 941 2528 
Q 941 1897 1250 1378 
Q 1563 859 2119 556 
L 2119 0 
L 244 0 
L 244 556 
L 1241 556 
Q 747 991 519 1456 
Q 294 1922 294 2497 
Q 294 3491 894 4106 
Q 1491 4722 2444 4722 
Q 3391 4722 3994 4106 
Q 4594 3494 4594 2528 
Q 4594 1922 4372 1459 
Q 4150 997 3647 556 
L 4647 556 
z
" transform="scale(0.015625)"/>
     </defs>
     <use xlink:href="#DejaVuSans-36"/>
     <use xlink:href="#DejaVuSans-3a9" transform="translate(63.623047 0)"/>
    </g>
   </g>
   <g id="text_4">
    <!-- $R_1$ -->
    <g transform="translate(119.54613 22.877557) scale(0.14 -0.14)">
     <defs>
      <path id="DejaVuSans-Oblique-52" d="M 1613 4147 
L 1294 2491 
L 2106 2491 
Q 2584 2491 2879 2755 
Q 3175 3019 3175 3444 
Q 3175 3784 2976 3965 
Q 2778 4147 2406 4147 
L 1613 4147 
z
M 2772 2241 
Q 2972 2194 3105 2009 
Q 3238 1825 3413 1275 
L 3809 0 
L 3144 0 
L 2778 1197 
Q 2638 1659 2453 1815 
Q 2269 1972 1888 1972 
L 1191 1972 
L 806 0 
L 172 0 
L 1081 4666 
L 2503 4666 
Q 3150 4666 3495 4373 
Q 3841 4081 3841 3531 
Q 3841 3044 3547 2687 
Q 3253 2331 2772 2241 
z
" transform="scale(0.015625)"/>
     </defs>
     <use xlink:href="#DejaVuSans-Oblique-52" transform="translate(0 0.09375)"/>
     <use xlink:href="#DejaVuSans-31" transform="translate(69.482422 -16.3125) scale(0.7)"/>
    </g>
   </g>
   <g id="text_5">
    <!-- 3Ω -->
    <g transform="translate(212.040541 113.956655) scale(0.14 -0.14)">
     <defs>
      <path id="DejaVuSans-33" d="M 2597 2516 
Q 3050 2419 3304 2112 
Q 3559 1806 3559 1356 
Q 3559 666 3084 287 
Q 2609 -91 1734 -91 
Q 1441 -91 1130 -33 
Q 819 25 488 141 
L 488 750 
Q 750 597 1062 519 
Q 1375 441 1716 441 
Q 2309 441 2620 675 
Q 2931 909 2931 1356 
Q 2931 1769 2642 2001 
Q 2353 2234 1838 2234 
L 1294 2234 
L 1294 2753 
L 1863 2753 
Q 2328 2753 2575 2939 
Q 2822 3125 2822 3475 
Q 2822 3834 2567 4026 
Q 2313 4219 1838 4219 
Q 1578 4219 1281 4162 
Q 984 4106 628 3988 
L 628 4550 
Q 988 4650 1302 4700 
Q 1616 4750 1894 4750 
Q 2613 4750 3031 4423 
Q 3450 4097 3450 3541 
Q 3450 3153 3228 2886 
Q 3006 2619 2597 2516 
z
" transform="scale(0.015625)"/>
     </defs>
     <use xlink:href="#DejaVuSans-33"/>
     <use xlink:href="#DejaVuSans-3a9" transform="translate(63.623047 0)"/>
    </g>
   </g>
   <g id="text_6">
    <!-- $R_2$ -->
    <g transform="translate(170.548588 113.956655) scale(0.14 -0.14)">
     <defs>
      <path id="DejaVuSans-32" d="M 1228 531 
L 3431 531 
L 3431 0 
L 469 0 
L 469 531 
Q 828 903 1448 1529 
Q 2069 2156 2228 2338 
Q 2531 2678 2651 2914 
Q 2772 3150 2772 3378 
Q 2772 3750 2511 3984 
Q 2250 4219 1831 4219 
Q 1534 4219 1204 4116 
Q 875 4013 500 3803 
L 500 4441 
Q 881 4594 1212 4672 
Q 1544 4750 1819 4750 
Q 2544 4750 2975 4387 
Q 3406 4025 3406 3419 
Q 3406 3131 3298 2873 
Q 3191 2616 2906 2266 
Q 2828 2175 2409 1742 
Q 1991 1309 1228 531 
z
" transform="scale(0.015625)"/>
     </defs>
     <use xlink:href="#DejaVuSans-Oblique-52" transform="translate(0 0.09375)"/>
     <use xlink:href="#DejaVuSans-32" transform="translate(69.482422 -16.3125) scale(0.7)"/>
    </g>
   </g>
   <g id="text_7">
    <!-- 6Ω -->
    <g transform="translate(261.429718 61.538884) scale(0.14 -0.14)">
     <use xlink:href="#DejaVuSans-36"/>
     <use xlink:href="#DejaVuSans-3a9" transform="translate(63.623047 0)"/>
    </g>
   </g>
   <g id="text_8">
    <!-- $R_3$ -->
    <g transform="translate(263.042999 22.877557) scale(0.14 -0.14)">
     <use xlink:href="#DejaVuSans-Oblique-52" transform="translate(0 0.09375)"/>
     <use xlink:href="#DejaVuSans-33" transform="translate(69.482422 -16.3125) scale(0.7)"/>
    </g>
   </g>
   <g id="text_9">
    <!-- 4Ω -->
    <g transform="translate(355.53741 113.956655) scale(0.14 -0.14)">
     <defs>
      <path id="DejaVuSans-34" d="M 2419 4116 
L 825 1625 
L 2419 1625 
L 2419 4116 
z
M 2253 4666 
L 3047 4666 
L 3047 1625 
L 3713 1625 
L 3713 1100 
L 3047 1100 
L 3047 0 
L 2419 0 
L 2419 1100 
L 313 1100 
L 313 1709 
L 2253 4666 
z
" transform="scale(0.015625)"/>
     </defs>
     <use xlink:href="#DejaVuSans-34"/>
     <use xlink:href="#DejaVuSans-3a9" transform="translate(63.623047 0)"/>
    </g>
   </g>
   <g id="text_10">
    <!-- $R_4$ -->
    <g transform="translate(314.045458 113.956655) scale(0.14 -0.14)">
     <use xlink:href="#DejaVuSans-Oblique-52" transform="translate(0 0.09375)"/>
     <use xlink:href="#DejaVuSans-34" transform="translate(69.482422 -16.3125) scale(0.7)"/>
    </g>
   </g>
   <g id="text_11">
    <!-- 2Ω -->
    <g transform="translate(404.926587 61.538884) scale(0.14 -0.14)">
     <use xlink:href="#DejaVuSans-32"/>
     <use xlink:href="#DejaVuSans-3a9" transform="translate(63.623047 0)"/>
    </g>
   </g>
   <g id="text_12">
    <!-- $R_5$ -->
    <g transform="translate(406.539869 22.877557) scale(0.14 -0.14)">
     <defs>
      <path id="DejaVuSans-35" d="M 691 4666 
L 3169 4666 
L 3169 4134 
L 1269 4134 
L 1269 2991 
Q 1406 3038 1543 3061 
Q 1681 3084 1819 3084 
Q 2600 3084 3056 2656 
Q 3513 2228 3513 1497 
Q 3513 744 3044 326 
Q 2575 -91 1722 -91 
Q 1428 -91 1123 -41 
Q 819 9 494 109 
L 494 744 
Q 775 591 1075 516 
Q 1375 441 1709 441 
Q 2250 441 2565 725 
Q 2881 1009 2881 1497 
Q 2881 1984 2565 2268 
Q 2250 2553 1709 2553 
Q 1456 2553 1204 2497 
Q 953 2441 691 2322 
L 691 4666 
z
" transform="scale(0.015625)"/>
     </defs>
     <use xlink:href="#DejaVuSans-Oblique-52" transform="translate(0 0.09375)"/>
     <use xlink:href="#DejaVuSans-35" transform="translate(69.482422 -16.3125) scale(0.7)"/>
    </g>
   </g>
   <g id="text_13">
    <!-- 3V -->
    <g transform="translate(446.469398 113.956655) scale(0.14 -0.14)">
     <use xlink:href="#DejaVuSans-33"/>
     <use xlink:href="#DejaVuSans-56" transform="translate(63.623047 0)"/>
    </g>
   </g>
   <g id="text_14">
    <!-- $V_{S2}$ -->
    <g transform="translate(508.002834 113.956655) scale(0.14 -0.14)">
     <use xlink:href="#DejaVuSans-Oblique-56" transform="translate(0 0.09375)"/>
     <use xlink:href="#DejaVuSans-Oblique-53" transform="translate(68.408203 -16.3125) scale(0.7)"/>
     <use xlink:href="#DejaVuSans-32" transform="translate(112.841797 -16.3125) scale(0.7)"/>
    </g>
   </g>
  </g>
 </g>
 <defs>
  <clipPath id="pf4a89df300">
   <rect x="0" y="0" width="542.465998" height="193.68"/>
  </clipPath>
 </defs>
</svg>
