<?xml version="1.0" encoding="utf-8" standalone="no"?>
<!DOCTYPE svg PUBLIC "-//W3C//DTD SVG 1.1//EN"
  "http://www.w3.org/Graphics/SVG/1.1/DTD/svg11.dtd">
<svg xmlns:xlink="http://www.w3.org/1999/xlink" width="471.024024pt" height="238.32pt" viewBox="0 0 471.024024 238.32" xmlns="http://www.w3.org/2000/svg" version="1.1">
 <metadata>
  <rdf:RDF xmlns:dc="http://purl.org/dc/elements/1.1/" xmlns:cc="http://creativecommons.org/ns#" xmlns:rdf="http://www.w3.org/1999/02/22-rdf-syntax-ns#">
   <cc:Work>
    <dc:type rdf:resource="http://purl.org/dc/dcmitype/StillImage"/>
    <dc:date>2025-04-17T12:05:29.311666</dc:date>
    <dc:format>image/svg+xml</dc:format>
    <dc:creator>
     <cc:Agent>
      <dc:title>Matplotlib v3.10.1, https://matplotlib.org/</dc:title>
     </cc:Agent>
    </dc:creator>
   </cc:Work>
  </rdf:RDF>
 </metadata>
 <defs>
  <style type="text/css">*{stroke-linejoin: round; stroke-linecap: butt}</style>
 </defs>
 <g id="figure_1">
  <g id="patch_1">
   <path d="M 0 238.32 
L 471.024024 238.32 
L 471.024024 0 
L 0 0 
L 0 238.32 
z
" style="fill: none"/>
  </g>
  <g id="axes_1">
   <g id="patch_2">
    <path d="M 56.024146 138.883722 
C 60.78422 138.883722 65.349974 136.992525 68.715855 133.626644 
C 72.081735 130.260764 73.972933 125.695009 73.972933 120.934936 
C 73.972933 116.174862 72.081735 111.609107 68.715855 108.243227 
C 65.349974 104.877346 60.78422 102.986149 56.024146 102.986149 
C 51.264072 102.986149 46.698318 104.877346 43.332437 108.243227 
C 39.966557 111.609107 38.075359 116.174862 38.075359 120.934936 
C 38.075359 125.695009 39.966557 130.260764 43.332437 133.626644 
C 46.698318 136.992525 51.264072 138.883722 56.024146 138.883722 
L 56.024146 138.883722 
z
" clip-path="url(#pe5dbe86282)" style="fill: none; stroke: #000000; stroke-width: 2; stroke-linejoin: miter"/>
   </g>
   <g id="patch_3">
    <path d="M 414.999878 138.883722 
C 419.759952 138.883722 424.325706 136.992525 427.691587 133.626644 
C 431.057467 130.260764 432.948665 125.695009 432.948665 120.934936 
C 432.948665 116.174862 431.057467 111.609107 427.691587 108.243227 
C 424.325706 104.877346 419.759952 102.986149 414.999878 102.986149 
C 410.239804 102.986149 405.67405 104.877346 402.308169 108.243227 
C 398.942289 111.609107 397.051092 116.174862 397.051092 120.934936 
C 397.051092 125.695009 398.942289 130.260764 402.308169 133.626644 
C 405.67405 136.992525 410.239804 138.883722 414.999878 138.883722 
L 414.999878 138.883722 
z
" clip-path="url(#pe5dbe86282)" style="fill: none; stroke: #000000; stroke-width: 2; stroke-linejoin: miter"/>
   </g>
   <g id="line2d_1">
    <path d="M 56.024146 210.678869 
L 56.024146 138.883722 
L 56.024146 138.883722 
M 56.024146 102.986149 
L 56.024146 102.986149 
L 56.024146 31.191003 
" clip-path="url(#pe5dbe86282)" style="fill: none; stroke: #000000; stroke-width: 2; stroke-linecap: round"/>
   </g>
   <g id="line2d_2">
    <path d="M 59.613903 129.909329 
L 52.434389 129.909329 
" clip-path="url(#pe5dbe86282)" style="fill: none; stroke: #000000; stroke-width: 2; stroke-linecap: round"/>
   </g>
   <g id="line2d_3">
    <path d="M 56.024146 115.5503 
L 56.024146 108.370785 
" clip-path="url(#pe5dbe86282)" style="fill: none; stroke: #000000; stroke-width: 2; stroke-linecap: round"/>
   </g>
   <g id="line2d_4">
    <path d="M 59.613903 111.960542 
L 52.434389 111.960542 
" clip-path="url(#pe5dbe86282)" style="fill: none; stroke: #000000; stroke-width: 2; stroke-linecap: round"/>
   </g>
   <g id="line2d_5">
    <path d="M 56.024146 31.191003 
L 127.819292 31.191003 
L 130.810757 22.216609 
L 136.793686 40.165396 
L 142.776615 22.216609 
L 148.759543 40.165396 
L 154.742472 22.216609 
L 160.725401 40.165396 
L 163.716866 31.191003 
L 235.512012 31.191003 
" clip-path="url(#pe5dbe86282)" style="fill: none; stroke: #000000; stroke-width: 2; stroke-linecap: round"/>
   </g>
   <g id="line2d_6">
    <path d="M 235.512012 31.191003 
L 235.512012 102.986149 
L 244.486405 105.977613 
L 226.537619 111.960542 
L 244.486405 117.943471 
L 226.537619 123.9264 
L 244.486405 129.909329 
L 226.537619 135.892258 
L 235.512012 138.883722 
L 235.512012 210.678869 
" clip-path="url(#pe5dbe86282)" style="fill: none; stroke: #000000; stroke-width: 2; stroke-linecap: round"/>
   </g>
   <g id="line2d_7">
    <path d="M 235.512012 31.191003 
L 307.307158 31.191003 
L 310.298623 22.216609 
L 316.281552 40.165396 
L 322.264481 22.216609 
L 328.24741 40.165396 
L 334.230338 22.216609 
L 340.213267 40.165396 
L 343.204732 31.191003 
L 414.999878 31.191003 
" clip-path="url(#pe5dbe86282)" style="fill: none; stroke: #000000; stroke-width: 2; stroke-linecap: round"/>
   </g>
   <g id="line2d_8">
    <path d="M 414.999878 31.191003 
L 414.999878 102.986149 
L 414.999878 102.986149 
M 414.999878 138.883722 
L 414.999878 138.883722 
L 414.999878 210.678869 
" clip-path="url(#pe5dbe86282)" style="fill: none; stroke: #000000; stroke-width: 2; stroke-linecap: round"/>
   </g>
   <g id="line2d_9">
    <path d="M 418.589635 129.909329 
L 411.410121 129.909329 
" clip-path="url(#pe5dbe86282)" style="fill: none; stroke: #000000; stroke-width: 2; stroke-linecap: round"/>
   </g>
   <g id="line2d_10">
    <path d="M 414.999878 108.370785 
L 414.999878 115.5503 
" clip-path="url(#pe5dbe86282)" style="fill: none; stroke: #000000; stroke-width: 2; stroke-linecap: round"/>
   </g>
   <g id="line2d_11">
    <path d="M 418.589635 111.960542 
L 411.410121 111.960542 
" clip-path="url(#pe5dbe86282)" style="fill: none; stroke: #000000; stroke-width: 2; stroke-linecap: round"/>
   </g>
   <g id="line2d_12">
    <path d="M 414.999878 210.678869 
L 235.512012 210.678869 
L 56.024146 210.678869 
" clip-path="url(#pe5dbe86282)" style="fill: none; stroke: #000000; stroke-width: 2; stroke-linecap: round"/>
   </g>
   <g id="line2d_13">
    <path d="M 235.512012 210.678869 
L 235.512012 225.037898 
L 226.537619 225.037898 
L 244.486405 225.037898 
M 229.229937 229.345607 
L 241.794087 229.345607 
M 233.717133 233.653315 
L 237.306891 233.653315 
" clip-path="url(#pe5dbe86282)" style="fill: none; stroke: #000000; stroke-width: 2; stroke-linecap: round"/>
   </g>
   <g id="text_1">
    <!-- 6V -->
    <g transform="translate(77.56269 124.798061) scale(0.14 -0.14)">
     <defs>
      <path id="DejaVuSans-36" d="M 2113 2584 
Q 1688 2584 1439 2293 
Q 1191 2003 1191 1497 
Q 1191 994 1439 701 
Q 1688 409 2113 409 
Q 2538 409 2786 701 
Q 3034 994 3034 1497 
Q 3034 2003 2786 2293 
Q 2538 2584 2113 2584 
z
M 3366 4563 
L 3366 3988 
Q 3128 4100 2886 4159 
Q 2644 4219 2406 4219 
Q 1781 4219 1451 3797 
Q 1122 3375 1075 2522 
Q 1259 2794 1537 2939 
Q 1816 3084 2150 3084 
Q 2853 3084 3261 2657 
Q 3669 2231 3669 1497 
Q 3669 778 3244 343 
Q 2819 -91 2113 -91 
Q 1303 -91 875 529 
Q 447 1150 447 2328 
Q 447 3434 972 4092 
Q 1497 4750 2381 4750 
Q 2619 4750 2861 4703 
Q 3103 4656 3366 4563 
z
" transform="scale(0.015625)"/>
      <path id="DejaVuSans-56" d="M 1831 0 
L 50 4666 
L 709 4666 
L 2188 738 
L 3669 4666 
L 4325 4666 
L 2547 0 
L 1831 0 
z
" transform="scale(0.015625)"/>
     </defs>
     <use xlink:href="#DejaVuSans-36"/>
     <use xlink:href="#DejaVuSans-56" transform="translate(63.623047 0)"/>
    </g>
   </g>
   <g id="text_2">
    <!-- $V_{S1}$ -->
    <g transform="translate(11.945602 124.798061) scale(0.14 -0.14)">
     <defs>
      <path id="DejaVuSans-Oblique-56" d="M 1319 0 
L 500 4666 
L 1119 4666 
L 1797 653 
L 4063 4666 
L 4750 4666 
L 2053 0 
L 1319 0 
z
" transform="scale(0.015625)"/>
      <path id="DejaVuSans-Oblique-53" d="M 3859 4513 
L 3738 3897 
Q 3422 4066 3111 4152 
Q 2800 4238 2509 4238 
Q 1944 4238 1609 3991 
Q 1275 3744 1275 3334 
Q 1275 3109 1398 2989 
Q 1522 2869 2034 2731 
L 2413 2638 
Q 3053 2472 3303 2217 
Q 3553 1963 3553 1503 
Q 3553 797 2998 353 
Q 2444 -91 1538 -91 
Q 1166 -91 791 -17 
Q 416 56 38 206 
L 166 856 
Q 513 641 861 531 
Q 1209 422 1556 422 
Q 2147 422 2503 684 
Q 2859 947 2859 1369 
Q 2859 1650 2717 1795 
Q 2575 1941 2106 2059 
L 1728 2156 
Q 1081 2325 845 2545 
Q 609 2766 609 3163 
Q 609 3859 1145 4304 
Q 1681 4750 2541 4750 
Q 2875 4750 3203 4690 
Q 3531 4631 3859 4513 
z
" transform="scale(0.015625)"/>
      <path id="DejaVuSans-31" d="M 794 531 
L 1825 531 
L 1825 4091 
L 703 3866 
L 703 4441 
L 1819 4666 
L 2450 4666 
L 2450 531 
L 3481 531 
L 3481 0 
L 794 0 
L 794 531 
z
" transform="scale(0.015625)"/>
     </defs>
     <use xlink:href="#DejaVuSans-Oblique-56" transform="translate(0 0.09375)"/>
     <use xlink:href="#DejaVuSans-Oblique-53" transform="translate(68.408203 -16.3125) scale(0.7)"/>
     <use xlink:href="#DejaVuSans-31" transform="translate(112.841797 -16.3125) scale(0.7)"/>
    </g>
   </g>
   <g id="text_3">
    <!-- 6Ω -->
    <g transform="translate(135.964798 54.392966) scale(0.14 -0.14)">
     <defs>
      <path id="DejaVuSans-3a9" d="M 4647 556 
L 4647 0 
L 2772 0 
L 2772 556 
Q 3325 859 3634 1378 
Q 3944 1897 3944 2528 
Q 3944 3278 3531 3731 
Q 3119 4184 2444 4184 
Q 1769 4184 1355 3729 
Q 941 3275 941 2528 
Q 941 1897 1250 1378 
Q 1563 859 2119 556 
L 2119 0 
L 244 0 
L 244 556 
L 1241 556 
Q 747 991 519 1456 
Q 294 1922 294 2497 
Q 294 3491 894 4106 
Q 1491 4722 2444 4722 
Q 3391 4722 3994 4106 
Q 4594 3494 4594 2528 
Q 4594 1922 4372 1459 
Q 4150 997 3647 556 
L 4647 556 
z
" transform="scale(0.015625)"/>
     </defs>
     <use xlink:href="#DejaVuSans-36"/>
     <use xlink:href="#DejaVuSans-3a9" transform="translate(63.623047 0)"/>
    </g>
   </g>
   <g id="text_4">
    <!-- $R_1$ -->
    <g transform="translate(137.578079 15.715289) scale(0.14 -0.14)">
     <defs>
      <path id="DejaVuSans-Oblique-52" d="M 1613 4147 
L 1294 2491 
L 2106 2491 
Q 2584 2491 2879 2755 
Q 3175 3019 3175 3444 
Q 3175 3784 2976 3965 
Q 2778 4147 2406 4147 
L 1613 4147 
z
M 2772 2241 
Q 2972 2194 3105 2009 
Q 3238 1825 3413 1275 
L 3809 0 
L 3144 0 
L 2778 1197 
Q 2638 1659 2453 1815 
Q 2269 1972 1888 1972 
L 1191 1972 
L 806 0 
L 172 0 
L 1081 4666 
L 2503 4666 
Q 3150 4666 3495 4373 
Q 3841 4081 3841 3531 
Q 3841 3044 3547 2687 
Q 3253 2331 2772 2241 
z
" transform="scale(0.015625)"/>
     </defs>
     <use xlink:href="#DejaVuSans-Oblique-52" transform="translate(0 0.09375)"/>
     <use xlink:href="#DejaVuSans-31" transform="translate(69.482422 -16.3125) scale(0.7)"/>
    </g>
   </g>
   <g id="text_5">
    <!-- 3Ω -->
    <g transform="translate(248.076163 124.798061) scale(0.14 -0.14)">
     <defs>
      <path id="DejaVuSans-33" d="M 2597 2516 
Q 3050 2419 3304 2112 
Q 3559 1806 3559 1356 
Q 3559 666 3084 287 
Q 2609 -91 1734 -91 
Q 1441 -91 1130 -33 
Q 819 25 488 141 
L 488 750 
Q 750 597 1062 519 
Q 1375 441 1716 441 
Q 2309 441 2620 675 
Q 2931 909 2931 1356 
Q 2931 1769 2642 2001 
Q 2353 2234 1838 2234 
L 1294 2234 
L 1294 2753 
L 1863 2753 
Q 2328 2753 2575 2939 
Q 2822 3125 2822 3475 
Q 2822 3834 2567 4026 
Q 2313 4219 1838 4219 
Q 1578 4219 1281 4162 
Q 984 4106 628 3988 
L 628 4550 
Q 988 4650 1302 4700 
Q 1616 4750 1894 4750 
Q 2613 4750 3031 4423 
Q 3450 4097 3450 3541 
Q 3450 3153 3228 2886 
Q 3006 2619 2597 2516 
z
" transform="scale(0.015625)"/>
     </defs>
     <use xlink:href="#DejaVuSans-33"/>
     <use xlink:href="#DejaVuSans-3a9" transform="translate(63.623047 0)"/>
    </g>
   </g>
   <g id="text_6">
    <!-- $R_2$ -->
    <g transform="translate(206.567861 124.798061) scale(0.14 -0.14)">
     <defs>
      <path id="DejaVuSans-32" d="M 1228 531 
L 3431 531 
L 3431 0 
L 469 0 
L 469 531 
Q 828 903 1448 1529 
Q 2069 2156 2228 2338 
Q 2531 2678 2651 2914 
Q 2772 3150 2772 3378 
Q 2772 3750 2511 3984 
Q 2250 4219 1831 4219 
Q 1534 4219 1204 4116 
Q 875 4013 500 3803 
L 500 4441 
Q 881 4594 1212 4672 
Q 1544 4750 1819 4750 
Q 2544 4750 2975 4387 
Q 3406 4025 3406 3419 
Q 3406 3131 3298 2873 
Q 3191 2616 2906 2266 
Q 2828 2175 2409 1742 
Q 1991 1309 1228 531 
z
" transform="scale(0.015625)"/>
     </defs>
     <use xlink:href="#DejaVuSans-Oblique-52" transform="translate(0 0.09375)"/>
     <use xlink:href="#DejaVuSans-32" transform="translate(69.482422 -16.3125) scale(0.7)"/>
    </g>
   </g>
   <g id="text_7">
    <!-- 6Ω -->
    <g transform="translate(315.452664 54.392966) scale(0.14 -0.14)">
     <use xlink:href="#DejaVuSans-36"/>
     <use xlink:href="#DejaVuSans-3a9" transform="translate(63.623047 0)"/>
    </g>
   </g>
   <g id="text_8">
    <!-- $R_3$ -->
    <g transform="translate(317.065945 15.715289) scale(0.14 -0.14)">
     <use xlink:href="#DejaVuSans-Oblique-52" transform="translate(0 0.09375)"/>
     <use xlink:href="#DejaVuSans-33" transform="translate(69.482422 -16.3125) scale(0.7)"/>
    </g>
   </g>
   <g id="text_9">
    <!-- 3V -->
    <g transform="translate(374.976959 124.798061) scale(0.14 -0.14)">
     <use xlink:href="#DejaVuSans-33"/>
     <use xlink:href="#DejaVuSans-56" transform="translate(63.623047 0)"/>
    </g>
   </g>
   <g id="text_10">
    <!-- $V_{S2}$ -->
    <g transform="translate(436.538422 124.798061) scale(0.14 -0.14)">
     <use xlink:href="#DejaVuSans-Oblique-56" transform="translate(0 0.09375)"/>
     <use xlink:href="#DejaVuSans-Oblique-53" transform="translate(68.408203 -16.3125) scale(0.7)"/>
     <use xlink:href="#DejaVuSans-32" transform="translate(112.841797 -16.3125) scale(0.7)"/>
    </g>
   </g>
   <g id="text_11">
    <!-- $V_G = 0$ -->
    <g transform="translate(248.076163 226.029217) scale(0.14 -0.14)">
     <defs>
      <path id="DejaVuSans-Oblique-47" d="M 3494 697 
L 3738 1919 
L 2700 1919 
L 2797 2438 
L 4453 2438 
L 4050 384 
Q 3634 156 3143 32 
Q 2653 -91 2156 -91 
Q 1278 -91 783 396 
Q 288 884 288 1753 
Q 288 2475 589 3126 
Q 891 3778 1422 4213 
Q 1756 4484 2153 4617 
Q 2550 4750 3034 4750 
Q 3472 4750 3873 4639 
Q 4275 4528 4641 4306 
L 4513 3634 
Q 4231 3928 3853 4083 
Q 3475 4238 3047 4238 
Q 2550 4238 2172 4048 
Q 1794 3859 1497 3463 
Q 1244 3125 1098 2667 
Q 953 2209 953 1734 
Q 953 1081 1287 751 
Q 1622 422 2284 422 
Q 2616 422 2925 492 
Q 3234 563 3494 697 
z
" transform="scale(0.015625)"/>
      <path id="DejaVuSans-3d" d="M 678 2906 
L 4684 2906 
L 4684 2381 
L 678 2381 
L 678 2906 
z
M 678 1631 
L 4684 1631 
L 4684 1100 
L 678 1100 
L 678 1631 
z
" transform="scale(0.015625)"/>
      <path id="DejaVuSans-30" d="M 2034 4250 
Q 1547 4250 1301 3770 
Q 1056 3291 1056 2328 
Q 1056 1369 1301 889 
Q 1547 409 2034 409 
Q 2525 409 2770 889 
Q 3016 1369 3016 2328 
Q 3016 3291 2770 3770 
Q 2525 4250 2034 4250 
z
M 2034 4750 
Q 2819 4750 3233 4129 
Q 3647 3509 3647 2328 
Q 3647 1150 3233 529 
Q 2819 -91 2034 -91 
Q 1250 -91 836 529 
Q 422 1150 422 2328 
Q 422 3509 836 4129 
Q 1250 4750 2034 4750 
z
" transform="scale(0.015625)"/>
     </defs>
     <use xlink:href="#DejaVuSans-Oblique-56" transform="translate(0 0.78125)"/>
     <use xlink:href="#DejaVuSans-Oblique-47" transform="translate(68.408203 -15.625) scale(0.7)"/>
     <use xlink:href="#DejaVuSans-3d" transform="translate(144.868164 0.78125)"/>
     <use xlink:href="#DejaVuSans-30" transform="translate(248.139648 0.78125)"/>
    </g>
   </g>
   <g id="patch_4">
    <path d="M 235.512012 33.883321 
C 236.226023 33.883321 236.910886 33.599641 237.415768 33.094759 
C 237.92065 32.589877 238.20433 31.905014 238.20433 31.191003 
C 238.20433 30.476991 237.92065 29.792128 237.415768 29.287246 
C 236.910886 28.782364 236.226023 28.498685 235.512012 28.498685 
C 234.798001 28.498685 234.113138 28.782364 233.608256 29.287246 
C 233.103374 29.792128 232.819694 30.476991 232.819694 31.191003 
C 232.819694 31.905014 233.103374 32.589877 233.608256 33.094759 
C 234.113138 33.599641 234.798001 33.883321 235.512012 33.883321 
z
" clip-path="url(#pe5dbe86282)" style="stroke: #000000; stroke-width: 2; stroke-linejoin: miter"/>
   </g>
   <g id="text_12">
    <!-- $V_1$ -->
    <g transform="translate(227.392012 21.997365) scale(0.14 -0.14)">
     <use xlink:href="#DejaVuSans-Oblique-56" transform="translate(0 0.09375)"/>
     <use xlink:href="#DejaVuSans-31" transform="translate(68.408203 -16.3125) scale(0.7)"/>
    </g>
   </g>
   <g id="patch_5">
    <path d="M 235.512012 213.371187 
C 236.226023 213.371187 236.910886 213.087507 237.415768 212.582625 
C 237.92065 212.077743 238.20433 211.39288 238.20433 210.678869 
C 238.20433 209.964858 237.92065 209.279994 237.415768 208.775112 
C 236.910886 208.27023 236.226023 207.986551 235.512012 207.986551 
C 234.798001 207.986551 234.113138 208.27023 233.608256 208.775112 
C 233.103374 209.279994 232.819694 209.964858 232.819694 210.678869 
C 232.819694 211.39288 233.103374 212.077743 233.608256 212.582625 
C 234.113138 213.087507 234.798001 213.371187 235.512012 213.371187 
z
" clip-path="url(#pe5dbe86282)" style="stroke: #000000; stroke-width: 2; stroke-linejoin: miter"/>
   </g>
   <g id="patch_6">
    <path d="M 56.024146 33.883321 
C 56.738157 33.883321 57.42302 33.599641 57.927902 33.094759 
C 58.432784 32.589877 58.716464 31.905014 58.716464 31.191003 
C 58.716464 30.476991 58.432784 29.792128 57.927902 29.287246 
C 57.42302 28.782364 56.738157 28.498685 56.024146 28.498685 
C 55.310135 28.498685 54.625272 28.782364 54.12039 29.287246 
C 53.615508 29.792128 53.331828 30.476991 53.331828 31.191003 
C 53.331828 31.905014 53.615508 32.589877 54.12039 33.094759 
C 54.625272 33.599641 55.310135 33.883321 56.024146 33.883321 
z
" clip-path="url(#pe5dbe86282)" style="stroke: #000000; stroke-width: 2; stroke-linejoin: miter"/>
   </g>
   <g id="text_13">
    <!-- $V_2$ -->
    <g transform="translate(47.904146 21.997365) scale(0.14 -0.14)">
     <use xlink:href="#DejaVuSans-Oblique-56" transform="translate(0 0.09375)"/>
     <use xlink:href="#DejaVuSans-32" transform="translate(68.408203 -16.3125) scale(0.7)"/>
    </g>
   </g>
   <g id="patch_7">
    <path d="M 414.999878 33.883321 
C 415.713889 33.883321 416.398752 33.599641 416.903634 33.094759 
C 417.408517 32.589877 417.692196 31.905014 417.692196 31.191003 
C 417.692196 30.476991 417.408517 29.792128 416.903634 29.287246 
C 416.398752 28.782364 415.713889 28.498685 414.999878 28.498685 
C 414.285867 28.498685 413.601004 28.782364 413.096122 29.287246 
C 412.59124 29.792128 412.30756 30.476991 412.30756 31.191003 
C 412.30756 31.905014 412.59124 32.589877 413.096122 33.094759 
C 413.601004 33.599641 414.285867 33.883321 414.999878 33.883321 
z
" clip-path="url(#pe5dbe86282)" style="stroke: #000000; stroke-width: 2; stroke-linejoin: miter"/>
   </g>
   <g id="text_14">
    <!-- $V_3$ -->
    <g transform="translate(406.879878 21.997365) scale(0.14 -0.14)">
     <use xlink:href="#DejaVuSans-Oblique-56" transform="translate(0 0.09375)"/>
     <use xlink:href="#DejaVuSans-33" transform="translate(68.408203 -16.3125) scale(0.7)"/>
    </g>
   </g>
  </g>
 </g>
 <defs>
  <clipPath id="pe5dbe86282">
   <rect x="0" y="-0" width="471.024024" height="238.32"/>
  </clipPath>
 </defs>
</svg>
