<?xml version="1.0" encoding="utf-8" standalone="no"?>
<!DOCTYPE svg PUBLIC "-//W3C//DTD SVG 1.1//EN"
  "http://www.w3.org/Graphics/SVG/1.1/DTD/svg11.dtd">
<svg xmlns:xlink="http://www.w3.org/1999/xlink" width="471.024024pt" height="238.32pt" viewBox="0 0 471.024024 238.32" xmlns="http://www.w3.org/2000/svg" version="1.1">
 <metadata>
  <rdf:RDF xmlns:dc="http://purl.org/dc/elements/1.1/" xmlns:cc="http://creativecommons.org/ns#" xmlns:rdf="http://www.w3.org/1999/02/22-rdf-syntax-ns#">
   <cc:Work>
    <dc:type rdf:resource="http://purl.org/dc/dcmitype/StillImage"/>
    <dc:date>2025-04-17T12:20:04.151822</dc:date>
    <dc:format>image/svg+xml</dc:format>
    <dc:creator>
     <cc:Agent>
      <dc:title>Matplotlib v3.10.1, https://matplotlib.org/</dc:title>
     </cc:Agent>
    </dc:creator>
   </cc:Work>
  </rdf:RDF>
 </metadata>
 <defs>
  <style type="text/css">*{stroke-linejoin: round; stroke-linecap: butt}</style>
 </defs>
 <g id="figure_1">
  <g id="patch_1">
   <path d="M 0 238.32 
L 471.024024 238.32 
L 471.024024 0 
L 0 0 
L 0 238.32 
z
" style="fill: none"/>
  </g>
  <g id="axes_1">
   <g id="patch_2">
    <path d="M 56.024146 138.883722 
C 60.78422 138.883722 65.349974 136.992525 68.715855 133.626644 
C 72.081735 130.260764 73.972933 125.695009 73.972933 120.934936 
C 73.972933 116.174862 72.081735 111.609107 68.715855 108.243227 
C 65.349974 104.877346 60.78422 102.986149 56.024146 102.986149 
C 51.264072 102.986149 46.698318 104.877346 43.332437 108.243227 
C 39.966557 111.609107 38.075359 116.174862 38.075359 120.934936 
C 38.075359 125.695009 39.966557 130.260764 43.332437 133.626644 
C 46.698318 136.992525 51.264072 138.883722 56.024146 138.883722 
L 56.024146 138.883722 
z
" clip-path="url(#p00601e82fe)" style="fill: none; stroke: #000000; stroke-width: 2; stroke-linejoin: miter"/>
   </g>
   <g id="patch_3">
    <path d="M 414.999878 138.883722 
C 419.759952 138.883722 424.325706 136.992525 427.691587 133.626644 
C 431.057467 130.260764 432.948665 125.695009 432.948665 120.934936 
C 432.948665 116.174862 431.057467 111.609107 427.691587 108.243227 
C 424.325706 104.877346 419.759952 102.986149 414.999878 102.986149 
C 410.239804 102.986149 405.67405 104.877346 402.308169 108.243227 
C 398.942289 111.609107 397.051092 116.174862 397.051092 120.934936 
C 397.051092 125.695009 398.942289 130.260764 402.308169 133.626644 
C 405.67405 136.992525 410.239804 138.883722 414.999878 138.883722 
L 414.999878 138.883722 
z
" clip-path="url(#p00601e82fe)" style="fill: none; stroke: #000000; stroke-width: 2; stroke-linejoin: miter"/>
   </g>
   <g id="line2d_1">
    <path d="M 56.024146 210.678869 
L 56.024146 138.883722 
L 56.024146 138.883722 
M 56.024146 102.986149 
L 56.024146 102.986149 
L 56.024146 31.191003 
" clip-path="url(#p00601e82fe)" style="fill: none; stroke: #000000; stroke-width: 2; stroke-linecap: round"/>
   </g>
   <g id="line2d_2">
    <path d="M 59.613903 129.909329 
L 52.434389 129.909329 
" clip-path="url(#p00601e82fe)" style="fill: none; stroke: #000000; stroke-width: 2; stroke-linecap: round"/>
   </g>
   <g id="line2d_3">
    <path d="M 56.024146 115.5503 
L 56.024146 108.370785 
" clip-path="url(#p00601e82fe)" style="fill: none; stroke: #000000; stroke-width: 2; stroke-linecap: round"/>
   </g>
   <g id="line2d_4">
    <path d="M 59.613903 111.960542 
L 52.434389 111.960542 
" clip-path="url(#p00601e82fe)" style="fill: none; stroke: #000000; stroke-width: 2; stroke-linecap: round"/>
   </g>
   <g id="line2d_5">
    <path d="M 56.024146 31.191003 
L 127.819292 31.191003 
L 130.810757 22.216609 
L 136.793686 40.165396 
L 142.776615 22.216609 
L 148.759543 40.165396 
L 154.742472 22.216609 
L 160.725401 40.165396 
L 163.716866 31.191003 
L 235.512012 31.191003 
" clip-path="url(#p00601e82fe)" style="fill: none; stroke: #000000; stroke-width: 2; stroke-linecap: round"/>
   </g>
   <g id="line2d_6">
    <path d="M 235.512012 31.191003 
L 235.512012 102.986149 
L 244.486405 105.977613 
L 226.537619 111.960542 
L 244.486405 117.943471 
L 226.537619 123.9264 
L 244.486405 129.909329 
L 226.537619 135.892258 
L 235.512012 138.883722 
L 235.512012 210.678869 
" clip-path="url(#p00601e82fe)" style="fill: none; stroke: #000000; stroke-width: 2; stroke-linecap: round"/>
   </g>
   <g id="line2d_7">
    <path d="M 235.512012 31.191003 
L 307.307158 31.191003 
L 310.298623 22.216609 
L 316.281552 40.165396 
L 322.264481 22.216609 
L 328.24741 40.165396 
L 334.230338 22.216609 
L 340.213267 40.165396 
L 343.204732 31.191003 
L 414.999878 31.191003 
" clip-path="url(#p00601e82fe)" style="fill: none; stroke: #000000; stroke-width: 2; stroke-linecap: round"/>
   </g>
   <g id="line2d_8">
    <path d="M 414.999878 31.191003 
L 414.999878 102.986149 
L 414.999878 102.986149 
M 414.999878 138.883722 
L 414.999878 138.883722 
L 414.999878 210.678869 
" clip-path="url(#p00601e82fe)" style="fill: none; stroke: #000000; stroke-width: 2; stroke-linecap: round"/>
   </g>
   <g id="line2d_9">
    <path d="M 418.589635 129.909329 
L 411.410121 129.909329 
" clip-path="url(#p00601e82fe)" style="fill: none; stroke: #000000; stroke-width: 2; stroke-linecap: round"/>
   </g>
   <g id="line2d_10">
    <path d="M 414.999878 108.370785 
L 414.999878 115.5503 
" clip-path="url(#p00601e82fe)" style="fill: none; stroke: #000000; stroke-width: 2; stroke-linecap: round"/>
   </g>
   <g id="line2d_11">
    <path d="M 418.589635 111.960542 
L 411.410121 111.960542 
" clip-path="url(#p00601e82fe)" style="fill: none; stroke: #000000; stroke-width: 2; stroke-linecap: round"/>
   </g>
   <g id="line2d_12">
    <path d="M 414.999878 210.678869 
L 235.512012 210.678869 
L 56.024146 210.678869 
" clip-path="url(#p00601e82fe)" style="fill: none; stroke: #000000; stroke-width: 2; stroke-linecap: round"/>
   </g>
   <g id="line2d_13">
    <path d="M 235.512012 210.678869 
L 235.512012 225.037898 
L 226.537619 225.037898 
L 244.486405 225.037898 
M 229.229937 229.345607 
L 241.794087 229.345607 
M 233.717133 233.653315 
L 237.306891 233.653315 
" clip-path="url(#p00601e82fe)" style="fill: none; stroke: #000000; stroke-width: 2; stroke-linecap: round"/>
   </g>
   <g id="text_1">
    <!-- 6V -->
    <g transform="translate(77.56269 124.798061) scale(0.14 -0.14)">
     <defs>
      <path id="DejaVuSans-36" d="M 2113 2584 
Q 1688 2584 1439 2293 
Q 1191 2003 1191 1497 
Q 1191 994 1439 701 
Q 1688 409 2113 409 
Q 2538 409 2786 701 
Q 3034 994 3034 1497 
Q 3034 2003 2786 2293 
Q 2538 2584 2113 2584 
z
M 3366 4563 
L 3366 3988 
Q 3128 4100 2886 4159 
Q 2644 4219 2406 4219 
Q 1781 4219 1451 3797 
Q 1122 3375 1075 2522 
Q 1259 2794 1537 2939 
Q 1816 3084 2150 3084 
Q 2853 3084 3261 2657 
Q 3669 2231 3669 1497 
Q 3669 778 3244 343 
Q 2819 -91 2113 -91 
Q 1303 -91 875 529 
Q 447 1150 447 2328 
Q 447 3434 972 4092 
Q 1497 4750 2381 4750 
Q 2619 4750 2861 4703 
Q 3103 4656 3366 4563 
z
" transform="scale(0.015625)"/>
      <path id="DejaVuSans-56" d="M 1831 0 
L 50 4666 
L 709 4666 
L 2188 738 
L 3669 4666 
L 4325 4666 
L 2547 0 
L 1831 0 
z
" transform="scale(0.015625)"/>
     </defs>
     <use xlink:href="#DejaVuSans-36"/>
     <use xlink:href="#DejaVuSans-56" transform="translate(63.623047 0)"/>
    </g>
   </g>
   <g id="text_2">
    <!-- $V_{S1}$ -->
    <g transform="translate(11.945602 124.798061) scale(0.14 -0.14)">
     <defs>
      <path id="DejaVuSans-Oblique-56" d="M 1319 0 
L 500 4666 
L 1119 4666 
L 1797 653 
L 4063 4666 
L 4750 4666 
L 2053 0 
L 1319 0 
z
" transform="scale(0.015625)"/>
      <path id="DejaVuSans-Oblique-53" d="M 3859 4513 
L 3738 3897 
Q 3422 4066 3111 4152 
Q 2800 4238 2509 4238 
Q 1944 4238 1609 3991 
Q 1275 3744 1275 3334 
Q 1275 3109 1398 2989 
Q 1522 2869 2034 2731 
L 2413 2638 
Q 3053 2472 3303 2217 
Q 3553 1963 3553 1503 
Q 3553 797 2998 353 
Q 2444 -91 1538 -91 
Q 1166 -91 791 -17 
Q 416 56 38 206 
L 166 856 
Q 513 641 861 531 
Q 1209 422 1556 422 
Q 2147 422 2503 684 
Q 2859 947 2859 1369 
Q 2859 1650 2717 1795 
Q 2575 1941 2106 2059 
L 1728 2156 
Q 1081 2325 845 2545 
Q 609 2766 609 3163 
Q 609 3859 1145 4304 
Q 1681 4750 2541 4750 
Q 2875 4750 3203 4690 
Q 3531 4631 3859 4513 
z
" transform="scale(0.015625)"/>
      <path id="DejaVuSans-31" d="M 794 531 
L 1825 531 
L 1825 4091 
L 703 3866 
L 703 4441 
L 1819 4666 
L 2450 4666 
L 2450 531 
L 3481 531 
L 3481 0 
L 794 0 
L 794 531 
z
" transform="scale(0.015625)"/>
     </defs>
     <use xlink:href="#DejaVuSans-Oblique-56" transform="translate(0 0.09375)"/>
     <use xlink:href="#DejaVuSans-Oblique-53" transform="translate(68.408203 -16.3125) scale(0.7)"/>
     <use xlink:href="#DejaVuSans-31" transform="translate(112.841797 -16.3125) scale(0.7)"/>
    </g>
   </g>
   <g id="text_3">
    <!-- $R_1$ -->
    <g transform="translate(137.578079 15.715289) scale(0.14 -0.14)">
     <defs>
      <path id="DejaVuSans-Oblique-52" d="M 1613 4147 
L 1294 2491 
L 2106 2491 
Q 2584 2491 2879 2755 
Q 3175 3019 3175 3444 
Q 3175 3784 2976 3965 
Q 2778 4147 2406 4147 
L 1613 4147 
z
M 2772 2241 
Q 2972 2194 3105 2009 
Q 3238 1825 3413 1275 
L 3809 0 
L 3144 0 
L 2778 1197 
Q 2638 1659 2453 1815 
Q 2269 1972 1888 1972 
L 1191 1972 
L 806 0 
L 172 0 
L 1081 4666 
L 2503 4666 
Q 3150 4666 3495 4373 
Q 3841 4081 3841 3531 
Q 3841 3044 3547 2687 
Q 3253 2331 2772 2241 
z
" transform="scale(0.015625)"/>
     </defs>
     <use xlink:href="#DejaVuSans-Oblique-52" transform="translate(0 0.09375)"/>
     <use xlink:href="#DejaVuSans-31" transform="translate(69.482422 -16.3125) scale(0.7)"/>
    </g>
   </g>
   <g id="text_4">
    <!-- + -->
    <g transform="translate(95.030331 54.392966) scale(0.14 -0.14)">
     <defs>
      <path id="DejaVuSans-2b" d="M 2944 4013 
L 2944 2272 
L 4684 2272 
L 4684 1741 
L 2944 1741 
L 2944 0 
L 2419 0 
L 2419 1741 
L 678 1741 
L 678 2272 
L 2419 2272 
L 2419 4013 
L 2944 4013 
z
" transform="scale(0.015625)"/>
     </defs>
     <use xlink:href="#DejaVuSans-2b"/>
    </g>
   </g>
   <g id="text_5">
    <!-- $V_{R1}$ -->
    <g transform="translate(134.218079 54.392966) scale(0.14 -0.14)">
     <use xlink:href="#DejaVuSans-Oblique-56" transform="translate(0 0.09375)"/>
     <use xlink:href="#DejaVuSans-Oblique-52" transform="translate(68.408203 -16.3125) scale(0.7)"/>
     <use xlink:href="#DejaVuSans-31" transform="translate(117.045898 -16.3125) scale(0.7)"/>
    </g>
   </g>
   <g id="text_6">
    <!-- - -->
    <g transform="translate(188.114577 54.392966) scale(0.14 -0.14)">
     <defs>
      <path id="DejaVuSans-2d" d="M 313 2009 
L 1997 2009 
L 1997 1497 
L 313 1497 
L 313 2009 
z
" transform="scale(0.015625)"/>
     </defs>
     <use xlink:href="#DejaVuSans-2d"/>
    </g>
   </g>
   <g id="text_7">
    <!-- $V_{R2}$ -->
    <g transform="translate(248.076163 124.798061) scale(0.14 -0.14)">
     <defs>
      <path id="DejaVuSans-32" d="M 1228 531 
L 3431 531 
L 3431 0 
L 469 0 
L 469 531 
Q 828 903 1448 1529 
Q 2069 2156 2228 2338 
Q 2531 2678 2651 2914 
Q 2772 3150 2772 3378 
Q 2772 3750 2511 3984 
Q 2250 4219 1831 4219 
Q 1534 4219 1204 4116 
Q 875 4013 500 3803 
L 500 4441 
Q 881 4594 1212 4672 
Q 1544 4750 1819 4750 
Q 2544 4750 2975 4387 
Q 3406 4025 3406 3419 
Q 3406 3131 3298 2873 
Q 3191 2616 2906 2266 
Q 2828 2175 2409 1742 
Q 1991 1309 1228 531 
z
" transform="scale(0.015625)"/>
     </defs>
     <use xlink:href="#DejaVuSans-Oblique-56" transform="translate(0 0.09375)"/>
     <use xlink:href="#DejaVuSans-Oblique-52" transform="translate(68.408203 -16.3125) scale(0.7)"/>
     <use xlink:href="#DejaVuSans-32" transform="translate(117.045898 -16.3125) scale(0.7)"/>
    </g>
   </g>
   <g id="text_8">
    <!-- $R_2$ -->
    <g transform="translate(206.567861 124.798061) scale(0.14 -0.14)">
     <use xlink:href="#DejaVuSans-Oblique-52" transform="translate(0 0.09375)"/>
     <use xlink:href="#DejaVuSans-32" transform="translate(69.482422 -16.3125) scale(0.7)"/>
    </g>
   </g>
   <g id="text_9">
    <!-- + -->
    <g transform="translate(248.076163 79.926094) scale(0.14 -0.14)">
     <use xlink:href="#DejaVuSans-2b"/>
    </g>
   </g>
   <g id="text_10">
    <!-- - -->
    <g transform="translate(248.076163 169.670027) scale(0.14 -0.14)">
     <use xlink:href="#DejaVuSans-2d"/>
    </g>
   </g>
   <g id="text_11">
    <!-- $V_{R3}$ -->
    <g transform="translate(313.705945 54.392966) scale(0.14 -0.14)">
     <defs>
      <path id="DejaVuSans-33" d="M 2597 2516 
Q 3050 2419 3304 2112 
Q 3559 1806 3559 1356 
Q 3559 666 3084 287 
Q 2609 -91 1734 -91 
Q 1441 -91 1130 -33 
Q 819 25 488 141 
L 488 750 
Q 750 597 1062 519 
Q 1375 441 1716 441 
Q 2309 441 2620 675 
Q 2931 909 2931 1356 
Q 2931 1769 2642 2001 
Q 2353 2234 1838 2234 
L 1294 2234 
L 1294 2753 
L 1863 2753 
Q 2328 2753 2575 2939 
Q 2822 3125 2822 3475 
Q 2822 3834 2567 4026 
Q 2313 4219 1838 4219 
Q 1578 4219 1281 4162 
Q 984 4106 628 3988 
L 628 4550 
Q 988 4650 1302 4700 
Q 1616 4750 1894 4750 
Q 2613 4750 3031 4423 
Q 3450 4097 3450 3541 
Q 3450 3153 3228 2886 
Q 3006 2619 2597 2516 
z
" transform="scale(0.015625)"/>
     </defs>
     <use xlink:href="#DejaVuSans-Oblique-56" transform="translate(0 0.09375)"/>
     <use xlink:href="#DejaVuSans-Oblique-52" transform="translate(68.408203 -16.3125) scale(0.7)"/>
     <use xlink:href="#DejaVuSans-33" transform="translate(117.045898 -16.3125) scale(0.7)"/>
    </g>
   </g>
   <g id="text_12">
    <!-- $R_3$ -->
    <g transform="translate(317.065945 15.715289) scale(0.14 -0.14)">
     <use xlink:href="#DejaVuSans-Oblique-52" transform="translate(0 0.09375)"/>
     <use xlink:href="#DejaVuSans-33" transform="translate(69.482422 -16.3125) scale(0.7)"/>
    </g>
   </g>
   <g id="text_13">
    <!-- - -->
    <g transform="translate(277.85851 54.392966) scale(0.14 -0.14)">
     <use xlink:href="#DejaVuSans-2d"/>
    </g>
   </g>
   <g id="text_14">
    <!-- + -->
    <g transform="translate(364.26213 54.392966) scale(0.14 -0.14)">
     <use xlink:href="#DejaVuSans-2b"/>
    </g>
   </g>
   <g id="text_15">
    <!-- 3V -->
    <g transform="translate(374.976959 124.798061) scale(0.14 -0.14)">
     <use xlink:href="#DejaVuSans-33"/>
     <use xlink:href="#DejaVuSans-56" transform="translate(63.623047 0)"/>
    </g>
   </g>
   <g id="text_16">
    <!-- $V_{S2}$ -->
    <g transform="translate(436.538422 124.798061) scale(0.14 -0.14)">
     <use xlink:href="#DejaVuSans-Oblique-56" transform="translate(0 0.09375)"/>
     <use xlink:href="#DejaVuSans-Oblique-53" transform="translate(68.408203 -16.3125) scale(0.7)"/>
     <use xlink:href="#DejaVuSans-32" transform="translate(112.841797 -16.3125) scale(0.7)"/>
    </g>
   </g>
   <g id="line2d_14">
    <path d="M 106.280748 31.191003 
L 106.280748 31.191003 
" clip-path="url(#p00601e82fe)" style="fill: none; stroke: #000000; stroke-width: 2; stroke-linecap: round"/>
   </g>
   <g id="patch_4">
    <path d="M 106.280748 25.806367 
L 117.05002 31.191003 
L 106.280748 36.575638 
z
" clip-path="url(#p00601e82fe)"/>
   </g>
   <g id="text_17">
    <!-- $I_1$ -->
    <g transform="translate(106.275384 17.510168) scale(0.14 -0.14)">
     <defs>
      <path id="DejaVuSans-Oblique-49" d="M 1081 4666 
L 1716 4666 
L 806 0 
L 172 0 
L 1081 4666 
z
" transform="scale(0.015625)"/>
     </defs>
     <use xlink:href="#DejaVuSans-Oblique-49" transform="translate(0 0.09375)"/>
     <use xlink:href="#DejaVuSans-31" transform="translate(29.492188 -16.3125) scale(0.7)"/>
    </g>
   </g>
   <g id="line2d_15">
    <path d="M 235.512012 81.447605 
L 235.512012 81.447605 
" clip-path="url(#p00601e82fe)" style="fill: none; stroke: #000000; stroke-width: 2; stroke-linecap: round"/>
   </g>
   <g id="patch_5">
    <path d="M 240.896648 81.447605 
L 235.512012 92.216877 
L 230.127376 81.447605 
z
" clip-path="url(#p00601e82fe)"/>
   </g>
   <g id="text_18">
    <!-- $I_2$ -->
    <g transform="translate(213.96274 90.695366) scale(0.14 -0.14)">
     <use xlink:href="#DejaVuSans-Oblique-49" transform="translate(0 0.09375)"/>
     <use xlink:href="#DejaVuSans-32" transform="translate(29.492188 -16.3125) scale(0.7)"/>
    </g>
   </g>
   <g id="line2d_16">
    <path d="M 296.537887 31.191003 
L 296.537887 31.191003 
" clip-path="url(#p00601e82fe)" style="fill: none; stroke: #000000; stroke-width: 2; stroke-linecap: round"/>
   </g>
   <g id="patch_6">
    <path d="M 296.537887 36.575638 
L 285.768615 31.191003 
L 296.537887 25.806367 
z
" clip-path="url(#p00601e82fe)"/>
   </g>
   <g id="text_19">
    <!-- $I_3$ -->
    <g transform="translate(285.763251 17.510168) scale(0.14 -0.14)">
     <use xlink:href="#DejaVuSans-Oblique-49" transform="translate(0 0.09375)"/>
     <use xlink:href="#DejaVuSans-33" transform="translate(29.492188 -16.3125) scale(0.7)"/>
    </g>
   </g>
   <g id="patch_7">
    <path d="M 235.512012 33.883321 
C 236.226023 33.883321 236.910886 33.599641 237.415768 33.094759 
C 237.92065 32.589877 238.20433 31.905014 238.20433 31.191003 
C 238.20433 30.476991 237.92065 29.792128 237.415768 29.287246 
C 236.910886 28.782364 236.226023 28.498685 235.512012 28.498685 
C 234.798001 28.498685 234.113138 28.782364 233.608256 29.287246 
C 233.103374 29.792128 232.819694 30.476991 232.819694 31.191003 
C 232.819694 31.905014 233.103374 32.589877 233.608256 33.094759 
C 234.113138 33.599641 234.798001 33.883321 235.512012 33.883321 
z
" clip-path="url(#p00601e82fe)" style="stroke: #000000; stroke-width: 2; stroke-linejoin: miter"/>
   </g>
   <g id="text_20">
    <!-- $V_1$ -->
    <g transform="translate(227.392012 21.997365) scale(0.14 -0.14)">
     <use xlink:href="#DejaVuSans-Oblique-56" transform="translate(0 0.09375)"/>
     <use xlink:href="#DejaVuSans-31" transform="translate(68.408203 -16.3125) scale(0.7)"/>
    </g>
   </g>
  </g>
 </g>
 <defs>
  <clipPath id="p00601e82fe">
   <rect x="0" y="-0" width="471.024024" height="238.32"/>
  </clipPath>
 </defs>
</svg>
