<?xml version="1.0" encoding="utf-8" standalone="no"?>
<!DOCTYPE svg PUBLIC "-//W3C//DTD SVG 1.1//EN"
  "http://www.w3.org/Graphics/SVG/1.1/DTD/svg11.dtd">
<svg xmlns:xlink="http://www.w3.org/1999/xlink" width="471.442322pt" height="346.32pt" viewBox="0 0 471.442322 346.32" xmlns="http://www.w3.org/2000/svg" version="1.1">
 <metadata>
  <rdf:RDF xmlns:dc="http://purl.org/dc/elements/1.1/" xmlns:cc="http://creativecommons.org/ns#" xmlns:rdf="http://www.w3.org/1999/02/22-rdf-syntax-ns#">
   <cc:Work>
    <dc:type rdf:resource="http://purl.org/dc/dcmitype/StillImage"/>
    <dc:date>2025-04-17T16:49:16.278997</dc:date>
    <dc:format>image/svg+xml</dc:format>
    <dc:creator>
     <cc:Agent>
      <dc:title>Matplotlib v3.10.1, https://matplotlib.org/</dc:title>
     </cc:Agent>
    </dc:creator>
   </cc:Work>
  </rdf:RDF>
 </metadata>
 <defs>
  <style type="text/css">*{stroke-linejoin: round; stroke-linecap: butt}</style>
 </defs>
 <g id="figure_1">
  <g id="patch_1">
   <path d="M 0 346.32 
L 471.442322 346.32 
L 471.442322 0 
L 0 0 
L 0 346.32 
z
" style="fill: none"/>
  </g>
  <g id="axes_1">
   <g id="patch_2">
    <path d="M 56.073899 246.795417 
C 60.8382 246.795417 65.408009 244.90254 68.776879 241.53367 
C 72.145748 238.164801 74.038625 233.594992 74.038625 228.83069 
C 74.038625 224.066389 72.145748 219.49658 68.776879 216.127711 
C 65.408009 212.758841 60.8382 210.865964 56.073899 210.865964 
C 51.309598 210.865964 46.739789 212.758841 43.370919 216.127711 
C 40.002049 219.49658 38.109173 224.066389 38.109173 228.83069 
C 38.109173 233.594992 40.002049 238.164801 43.370919 241.53367 
C 46.739789 244.90254 51.309598 246.795417 56.073899 246.795417 
L 56.073899 246.795417 
z
" clip-path="url(#p71ee93bd68)" style="fill: none; stroke: #000000; stroke-width: 2; stroke-linejoin: miter"/>
   </g>
   <g id="patch_3">
    <path d="M 415.368423 246.795417 
C 420.132724 246.795417 424.702533 244.90254 428.071403 241.53367 
C 431.440273 238.164801 433.33315 233.594992 433.33315 228.83069 
C 433.33315 224.066389 431.440273 219.49658 428.071403 216.127711 
C 424.702533 212.758841 420.132724 210.865964 415.368423 210.865964 
C 410.604122 210.865964 406.034313 212.758841 402.665444 216.127711 
C 399.296574 219.49658 397.403697 224.066389 397.403697 228.83069 
C 397.403697 233.594992 399.296574 238.164801 402.665444 241.53367 
C 406.034313 244.90254 410.604122 246.795417 415.368423 246.795417 
L 415.368423 246.795417 
z
" clip-path="url(#p71ee93bd68)" style="fill: none; stroke: #000000; stroke-width: 2; stroke-linejoin: miter"/>
   </g>
   <g id="line2d_1">
    <path d="M 56.073899 318.654322 
L 56.073899 246.795417 
L 56.073899 246.795417 
M 56.073899 210.865964 
L 56.073899 210.865964 
L 56.073899 139.007059 
" clip-path="url(#p71ee93bd68)" style="fill: none; stroke: #000000; stroke-width: 2; stroke-linecap: round"/>
   </g>
   <g id="line2d_2">
    <path d="M 59.666844 237.813054 
L 52.480954 237.813054 
" clip-path="url(#p71ee93bd68)" style="fill: none; stroke: #000000; stroke-width: 2; stroke-linecap: round"/>
   </g>
   <g id="line2d_3">
    <path d="M 56.073899 223.441273 
L 56.073899 216.255382 
" clip-path="url(#p71ee93bd68)" style="fill: none; stroke: #000000; stroke-width: 2; stroke-linecap: round"/>
   </g>
   <g id="line2d_4">
    <path d="M 59.666844 219.848327 
L 52.480954 219.848327 
" clip-path="url(#p71ee93bd68)" style="fill: none; stroke: #000000; stroke-width: 2; stroke-linecap: round"/>
   </g>
   <g id="line2d_5">
    <path d="M 56.073899 139.007059 
L 127.932804 139.007059 
L 130.926925 130.024696 
L 136.915167 147.989422 
L 142.903409 130.024696 
L 148.891651 147.989422 
L 154.879893 130.024696 
L 160.868135 147.989422 
L 163.862256 139.007059 
L 235.721161 139.007059 
" clip-path="url(#p71ee93bd68)" style="fill: none; stroke: #000000; stroke-width: 2; stroke-linecap: round"/>
   </g>
   <g id="line2d_6">
    <path d="M 235.721161 139.007059 
L 235.721161 210.865964 
L 244.703524 213.860085 
L 226.738798 219.848327 
L 244.703524 225.836569 
L 226.738798 231.824812 
L 244.703524 237.813054 
L 226.738798 243.801296 
L 235.721161 246.795417 
L 235.721161 318.654322 
" clip-path="url(#p71ee93bd68)" style="fill: none; stroke: #000000; stroke-width: 2; stroke-linecap: round"/>
   </g>
   <g id="line2d_7">
    <path d="M 235.721161 139.007059 
L 307.580066 139.007059 
L 310.574187 130.024696 
L 316.562429 147.989422 
L 322.550671 130.024696 
L 328.538913 147.989422 
L 334.527155 130.024696 
L 340.515397 147.989422 
L 343.509518 139.007059 
L 415.368423 139.007059 
" clip-path="url(#p71ee93bd68)" style="fill: none; stroke: #000000; stroke-width: 2; stroke-linecap: round"/>
   </g>
   <g id="line2d_8">
    <path d="M 415.368423 139.007059 
L 415.368423 210.865964 
L 415.368423 210.865964 
M 415.368423 246.795417 
L 415.368423 246.795417 
L 415.368423 318.654322 
" clip-path="url(#p71ee93bd68)" style="fill: none; stroke: #000000; stroke-width: 2; stroke-linecap: round"/>
   </g>
   <g id="line2d_9">
    <path d="M 418.961369 237.813054 
L 411.775478 237.813054 
" clip-path="url(#p71ee93bd68)" style="fill: none; stroke: #000000; stroke-width: 2; stroke-linecap: round"/>
   </g>
   <g id="line2d_10">
    <path d="M 415.368423 216.255382 
L 415.368423 223.441273 
" clip-path="url(#p71ee93bd68)" style="fill: none; stroke: #000000; stroke-width: 2; stroke-linecap: round"/>
   </g>
   <g id="line2d_11">
    <path d="M 418.961369 219.848327 
L 411.775478 219.848327 
" clip-path="url(#p71ee93bd68)" style="fill: none; stroke: #000000; stroke-width: 2; stroke-linecap: round"/>
   </g>
   <g id="line2d_12">
    <path d="M 415.368423 318.654322 
L 235.721161 318.654322 
L 56.073899 318.654322 
" clip-path="url(#p71ee93bd68)" style="fill: none; stroke: #000000; stroke-width: 2; stroke-linecap: round"/>
   </g>
   <g id="line2d_13">
    <path d="M 56.073899 139.007059 
L 56.073899 85.112881 
L 56.073899 31.218702 
" clip-path="url(#p71ee93bd68)" style="fill: none; stroke: #000000; stroke-width: 2; stroke-linecap: round"/>
   </g>
   <g id="line2d_14">
    <path d="M 56.073899 31.218702 
L 102.782187 31.218702 
L 149.490475 31.218702 
" clip-path="url(#p71ee93bd68)" style="fill: none; stroke: #000000; stroke-width: 2; stroke-linecap: round"/>
   </g>
   <g id="line2d_15">
    <path d="M 149.490475 31.218702 
L 221.34938 31.218702 
L 224.343501 22.236339 
L 230.331743 40.201065 
L 236.319985 22.236339 
L 242.308227 40.201065 
L 248.296469 22.236339 
L 254.284711 40.201065 
L 257.278833 31.218702 
L 329.137737 31.218702 
" clip-path="url(#p71ee93bd68)" style="fill: none; stroke: #000000; stroke-width: 2; stroke-linecap: round"/>
   </g>
   <g id="line2d_16">
    <path d="M 329.137737 31.218702 
L 372.25308 31.218702 
L 415.368423 31.218702 
" clip-path="url(#p71ee93bd68)" style="fill: none; stroke: #000000; stroke-width: 2; stroke-linecap: round"/>
   </g>
   <g id="line2d_17">
    <path d="M 415.368423 31.218702 
L 415.368423 85.112881 
L 415.368423 139.007059 
" clip-path="url(#p71ee93bd68)" style="fill: none; stroke: #000000; stroke-width: 2; stroke-linecap: round"/>
   </g>
   <g id="line2d_18">
    <path d="M 235.721161 318.654322 
L 235.721161 333.026103 
L 226.738798 333.026103 
L 244.703524 333.026103 
M 229.433507 337.337637 
L 242.008815 337.337637 
M 233.924688 341.649171 
L 237.517634 341.649171 
" clip-path="url(#p71ee93bd68)" style="fill: none; stroke: #000000; stroke-width: 2; stroke-linecap: round"/>
   </g>
   <g id="text_1">
    <!-- 6V -->
    <g transform="translate(77.63157 232.693815) scale(0.14 -0.14)">
     <defs>
      <path id="DejaVuSans-36" d="M 2113 2584 
Q 1688 2584 1439 2293 
Q 1191 2003 1191 1497 
Q 1191 994 1439 701 
Q 1688 409 2113 409 
Q 2538 409 2786 701 
Q 3034 994 3034 1497 
Q 3034 2003 2786 2293 
Q 2538 2584 2113 2584 
z
M 3366 4563 
L 3366 3988 
Q 3128 4100 2886 4159 
Q 2644 4219 2406 4219 
Q 1781 4219 1451 3797 
Q 1122 3375 1075 2522 
Q 1259 2794 1537 2939 
Q 1816 3084 2150 3084 
Q 2853 3084 3261 2657 
Q 3669 2231 3669 1497 
Q 3669 778 3244 343 
Q 2819 -91 2113 -91 
Q 1303 -91 875 529 
Q 447 1150 447 2328 
Q 447 3434 972 4092 
Q 1497 4750 2381 4750 
Q 2619 4750 2861 4703 
Q 3103 4656 3366 4563 
z
" transform="scale(0.015625)"/>
      <path id="DejaVuSans-56" d="M 1831 0 
L 50 4666 
L 709 4666 
L 2188 738 
L 3669 4666 
L 4325 4666 
L 2547 0 
L 1831 0 
z
" transform="scale(0.015625)"/>
     </defs>
     <use xlink:href="#DejaVuSans-36"/>
     <use xlink:href="#DejaVuSans-56" transform="translate(63.623047 0)"/>
    </g>
   </g>
   <g id="text_2">
    <!-- $V_{S1}$ -->
    <g transform="translate(11.976227 232.693815) scale(0.14 -0.14)">
     <defs>
      <path id="DejaVuSans-Oblique-56" d="M 1319 0 
L 500 4666 
L 1119 4666 
L 1797 653 
L 4063 4666 
L 4750 4666 
L 2053 0 
L 1319 0 
z
" transform="scale(0.015625)"/>
      <path id="DejaVuSans-Oblique-53" d="M 3859 4513 
L 3738 3897 
Q 3422 4066 3111 4152 
Q 2800 4238 2509 4238 
Q 1944 4238 1609 3991 
Q 1275 3744 1275 3334 
Q 1275 3109 1398 2989 
Q 1522 2869 2034 2731 
L 2413 2638 
Q 3053 2472 3303 2217 
Q 3553 1963 3553 1503 
Q 3553 797 2998 353 
Q 2444 -91 1538 -91 
Q 1166 -91 791 -17 
Q 416 56 38 206 
L 166 856 
Q 513 641 861 531 
Q 1209 422 1556 422 
Q 2147 422 2503 684 
Q 2859 947 2859 1369 
Q 2859 1650 2717 1795 
Q 2575 1941 2106 2059 
L 1728 2156 
Q 1081 2325 845 2545 
Q 609 2766 609 3163 
Q 609 3859 1145 4304 
Q 1681 4750 2541 4750 
Q 2875 4750 3203 4690 
Q 3531 4631 3859 4513 
z
" transform="scale(0.015625)"/>
      <path id="DejaVuSans-31" d="M 794 531 
L 1825 531 
L 1825 4091 
L 703 3866 
L 703 4441 
L 1819 4666 
L 2450 4666 
L 2450 531 
L 3481 531 
L 3481 0 
L 794 0 
L 794 531 
z
" transform="scale(0.015625)"/>
     </defs>
     <use xlink:href="#DejaVuSans-Oblique-56" transform="translate(0 0.09375)"/>
     <use xlink:href="#DejaVuSans-Oblique-53" transform="translate(68.408203 -16.3125) scale(0.7)"/>
     <use xlink:href="#DejaVuSans-31" transform="translate(112.841797 -16.3125) scale(0.7)"/>
    </g>
   </g>
   <g id="text_3">
    <!-- 6立 -->
    <g transform="translate(136.094249 162.22018) scale(0.14 -0.14)">
     <defs>
      <path id="DejaVuSans-3a9" d="M 4647 556 
L 4647 0 
L 2772 0 
L 2772 556 
Q 3325 859 3634 1378 
Q 3944 1897 3944 2528 
Q 3944 3278 3531 3731 
Q 3119 4184 2444 4184 
Q 1769 4184 1355 3729 
Q 941 3275 941 2528 
Q 941 1897 1250 1378 
Q 1563 859 2119 556 
L 2119 0 
L 244 0 
L 244 556 
L 1241 556 
Q 747 991 519 1456 
Q 294 1922 294 2497 
Q 294 3491 894 4106 
Q 1491 4722 2444 4722 
Q 3391 4722 3994 4106 
Q 4594 3494 4594 2528 
Q 4594 1922 4372 1459 
Q 4150 997 3647 556 
L 4647 556 
z
" transform="scale(0.015625)"/>
     </defs>
     <use xlink:href="#DejaVuSans-36"/>
     <use xlink:href="#DejaVuSans-3a9" transform="translate(63.623047 0)"/>
    </g>
   </g>
   <g id="text_4">
    <!-- $R_1$ -->
    <g transform="translate(137.70753 123.520189) scale(0.14 -0.14)">
     <defs>
      <path id="DejaVuSans-Oblique-52" d="M 1613 4147 
L 1294 2491 
L 2106 2491 
Q 2584 2491 2879 2755 
Q 3175 3019 3175 3444 
Q 3175 3784 2976 3965 
Q 2778 4147 2406 4147 
L 1613 4147 
z
M 2772 2241 
Q 2972 2194 3105 2009 
Q 3238 1825 3413 1275 
L 3809 0 
L 3144 0 
L 2778 1197 
Q 2638 1659 2453 1815 
Q 2269 1972 1888 1972 
L 1191 1972 
L 806 0 
L 172 0 
L 1081 4666 
L 2503 4666 
Q 3150 4666 3495 4373 
Q 3841 4081 3841 3531 
Q 3841 3044 3547 2687 
Q 3253 2331 2772 2241 
z
" transform="scale(0.015625)"/>
     </defs>
     <use xlink:href="#DejaVuSans-Oblique-52" transform="translate(0 0.09375)"/>
     <use xlink:href="#DejaVuSans-31" transform="translate(69.482422 -16.3125) scale(0.7)"/>
    </g>
   </g>
   <g id="text_5">
    <!-- 3立 -->
    <g transform="translate(248.296469 232.693815) scale(0.14 -0.14)">
     <defs>
      <path id="DejaVuSans-33" d="M 2597 2516 
Q 3050 2419 3304 2112 
Q 3559 1806 3559 1356 
Q 3559 666 3084 287 
Q 2609 -91 1734 -91 
Q 1441 -91 1130 -33 
Q 819 25 488 141 
L 488 750 
Q 750 597 1062 519 
Q 1375 441 1716 441 
Q 2309 441 2620 675 
Q 2931 909 2931 1356 
Q 2931 1769 2642 2001 
Q 2353 2234 1838 2234 
L 1294 2234 
L 1294 2753 
L 1863 2753 
Q 2328 2753 2575 2939 
Q 2822 3125 2822 3475 
Q 2822 3834 2567 4026 
Q 2313 4219 1838 4219 
Q 1578 4219 1281 4162 
Q 984 4106 628 3988 
L 628 4550 
Q 988 4650 1302 4700 
Q 1616 4750 1894 4750 
Q 2613 4750 3031 4423 
Q 3450 4097 3450 3541 
Q 3450 3153 3228 2886 
Q 3006 2619 2597 2516 
z
" transform="scale(0.015625)"/>
     </defs>
     <use xlink:href="#DejaVuSans-33"/>
     <use xlink:href="#DejaVuSans-3a9" transform="translate(63.623047 0)"/>
    </g>
   </g>
   <g id="text_6">
    <!-- $R_2$ -->
    <g transform="translate(206.765853 232.693815) scale(0.14 -0.14)">
     <defs>
      <path id="DejaVuSans-32" d="M 1228 531 
L 3431 531 
L 3431 0 
L 469 0 
L 469 531 
Q 828 903 1448 1529 
Q 2069 2156 2228 2338 
Q 2531 2678 2651 2914 
Q 2772 3150 2772 3378 
Q 2772 3750 2511 3984 
Q 2250 4219 1831 4219 
Q 1534 4219 1204 4116 
Q 875 4013 500 3803 
L 500 4441 
Q 881 4594 1212 4672 
Q 1544 4750 1819 4750 
Q 2544 4750 2975 4387 
Q 3406 4025 3406 3419 
Q 3406 3131 3298 2873 
Q 3191 2616 2906 2266 
Q 2828 2175 2409 1742 
Q 1991 1309 1228 531 
z
" transform="scale(0.015625)"/>
     </defs>
     <use xlink:href="#DejaVuSans-Oblique-52" transform="translate(0 0.09375)"/>
     <use xlink:href="#DejaVuSans-32" transform="translate(69.482422 -16.3125) scale(0.7)"/>
    </g>
   </g>
   <g id="text_7">
    <!-- 6立 -->
    <g transform="translate(315.741511 162.22018) scale(0.14 -0.14)">
     <use xlink:href="#DejaVuSans-36"/>
     <use xlink:href="#DejaVuSans-3a9" transform="translate(63.623047 0)"/>
    </g>
   </g>
   <g id="text_8">
    <!-- $R_3$ -->
    <g transform="translate(317.354792 123.520189) scale(0.14 -0.14)">
     <use xlink:href="#DejaVuSans-Oblique-52" transform="translate(0 0.09375)"/>
     <use xlink:href="#DejaVuSans-33" transform="translate(69.482422 -16.3125) scale(0.7)"/>
    </g>
   </g>
   <g id="text_9">
    <!-- 3V -->
    <g transform="translate(375.326377 232.693815) scale(0.14 -0.14)">
     <use xlink:href="#DejaVuSans-33"/>
     <use xlink:href="#DejaVuSans-56" transform="translate(63.623047 0)"/>
    </g>
   </g>
   <g id="text_10">
    <!-- $V_{S2}$ -->
    <g transform="translate(436.926095 232.693815) scale(0.14 -0.14)">
     <use xlink:href="#DejaVuSans-Oblique-56" transform="translate(0 0.09375)"/>
     <use xlink:href="#DejaVuSans-Oblique-53" transform="translate(68.408203 -16.3125) scale(0.7)"/>
     <use xlink:href="#DejaVuSans-32" transform="translate(112.841797 -16.3125) scale(0.7)"/>
    </g>
   </g>
   <g id="text_11">
    <!-- 4立 -->
    <g transform="translate(229.510825 54.431823) scale(0.14 -0.14)">
     <defs>
      <path id="DejaVuSans-34" d="M 2419 4116 
L 825 1625 
L 2419 1625 
L 2419 4116 
z
M 2253 4666 
L 3047 4666 
L 3047 1625 
L 3713 1625 
L 3713 1100 
L 3047 1100 
L 3047 0 
L 2419 0 
L 2419 1100 
L 313 1100 
L 313 1709 
L 2253 4666 
z
" transform="scale(0.015625)"/>
     </defs>
     <use xlink:href="#DejaVuSans-34"/>
     <use xlink:href="#DejaVuSans-3a9" transform="translate(63.623047 0)"/>
    </g>
   </g>
   <g id="text_12">
    <!-- $R_4$ -->
    <g transform="translate(231.124106 15.731831) scale(0.14 -0.14)">
     <use xlink:href="#DejaVuSans-Oblique-52" transform="translate(0 0.09375)"/>
     <use xlink:href="#DejaVuSans-34" transform="translate(69.482422 -16.3125) scale(0.7)"/>
    </g>
   </g>
   <g id="line2d_19">
    <path d="M 56.073899 268.353088 
L 56.073899 268.353088 
" clip-path="url(#p71ee93bd68)" style="fill: none; stroke: #000000; stroke-width: 2; stroke-linecap: round"/>
   </g>
   <g id="patch_4">
    <path d="M 50.684481 268.353088 
L 56.073899 257.574252 
L 61.463317 268.353088 
z
" clip-path="url(#p71ee93bd68)"/>
   </g>
   <g id="text_13">
    <!-- $I_{V1}$ -->
    <g transform="translate(27.795063 266.826795) scale(0.14 -0.14)">
     <defs>
      <path id="DejaVuSans-Oblique-49" d="M 1081 4666 
L 1716 4666 
L 806 0 
L 172 0 
L 1081 4666 
z
" transform="scale(0.015625)"/>
     </defs>
     <use xlink:href="#DejaVuSans-Oblique-49" transform="translate(0 0.09375)"/>
     <use xlink:href="#DejaVuSans-Oblique-56" transform="translate(29.492188 -16.3125) scale(0.7)"/>
     <use xlink:href="#DejaVuSans-31" transform="translate(77.37793 -16.3125) scale(0.7)"/>
    </g>
   </g>
   <g id="line2d_20">
    <path d="M 415.368423 200.087129 
L 415.368423 200.087129 
" clip-path="url(#p71ee93bd68)" style="fill: none; stroke: #000000; stroke-width: 2; stroke-linecap: round"/>
   </g>
   <g id="patch_5">
    <path d="M 409.979005 200.087129 
L 415.368423 189.308293 
L 420.757841 200.087129 
z
" clip-path="url(#p71ee93bd68)"/>
   </g>
   <g id="text_14">
    <!-- $I_{V2}$ -->
    <g transform="translate(387.089588 198.560836) scale(0.14 -0.14)">
     <use xlink:href="#DejaVuSans-Oblique-49" transform="translate(0 0.09375)"/>
     <use xlink:href="#DejaVuSans-Oblique-56" transform="translate(29.492188 -16.3125) scale(0.7)"/>
     <use xlink:href="#DejaVuSans-32" transform="translate(77.37793 -16.3125) scale(0.7)"/>
    </g>
   </g>
   <g id="line2d_21">
    <path d="M 106.375132 139.007059 
L 106.375132 139.007059 
" clip-path="url(#p71ee93bd68)" style="fill: none; stroke: #000000; stroke-width: 2; stroke-linecap: round"/>
   </g>
   <g id="patch_6">
    <path d="M 106.375132 133.617641 
L 117.153968 139.007059 
L 106.375132 144.396477 
z
" clip-path="url(#p71ee93bd68)"/>
   </g>
   <g id="text_15">
    <!-- $I_1$ -->
    <g transform="translate(106.37455 125.316661) scale(0.14 -0.14)">
     <use xlink:href="#DejaVuSans-Oblique-49" transform="translate(0 0.09375)"/>
     <use xlink:href="#DejaVuSans-31" transform="translate(29.492188 -16.3125) scale(0.7)"/>
    </g>
   </g>
   <g id="line2d_22">
    <path d="M 296.80123 139.007059 
L 296.80123 139.007059 
" clip-path="url(#p71ee93bd68)" style="fill: none; stroke: #000000; stroke-width: 2; stroke-linecap: round"/>
   </g>
   <g id="patch_7">
    <path d="M 296.80123 144.396477 
L 286.022394 139.007059 
L 296.80123 133.617641 
z
" clip-path="url(#p71ee93bd68)"/>
   </g>
   <g id="text_16">
    <!-- $I_3$ -->
    <g transform="translate(286.021812 125.316661) scale(0.14 -0.14)">
     <use xlink:href="#DejaVuSans-Oblique-49" transform="translate(0 0.09375)"/>
     <use xlink:href="#DejaVuSans-33" transform="translate(29.492188 -16.3125) scale(0.7)"/>
    </g>
   </g>
   <g id="line2d_23">
    <path d="M 235.721161 189.308293 
L 235.721161 189.308293 
" clip-path="url(#p71ee93bd68)" style="fill: none; stroke: #000000; stroke-width: 2; stroke-linecap: round"/>
   </g>
   <g id="patch_8">
    <path d="M 241.110579 189.308293 
L 235.721161 200.087129 
L 230.331743 189.308293 
z
" clip-path="url(#p71ee93bd68)"/>
   </g>
   <g id="text_17">
    <!-- $I_2$ -->
    <g transform="translate(214.162325 198.560836) scale(0.14 -0.14)">
     <use xlink:href="#DejaVuSans-Oblique-49" transform="translate(0 0.09375)"/>
     <use xlink:href="#DejaVuSans-32" transform="translate(29.492188 -16.3125) scale(0.7)"/>
    </g>
   </g>
   <g id="line2d_24">
    <path d="M 199.791709 31.218702 
L 199.791709 31.218702 
" clip-path="url(#p71ee93bd68)" style="fill: none; stroke: #000000; stroke-width: 2; stroke-linecap: round"/>
   </g>
   <g id="patch_9">
    <path d="M 199.791709 25.829284 
L 210.570544 31.218702 
L 199.791709 36.60812 
z
" clip-path="url(#p71ee93bd68)"/>
   </g>
   <g id="text_18">
    <!-- $I_4$ -->
    <g transform="translate(199.791126 17.528304) scale(0.14 -0.14)">
     <use xlink:href="#DejaVuSans-Oblique-49" transform="translate(0 0.09375)"/>
     <use xlink:href="#DejaVuSans-34" transform="translate(29.492188 -16.3125) scale(0.7)"/>
    </g>
   </g>
   <g id="patch_10">
    <path d="M 235.721161 141.701768 
C 236.435806 141.701768 237.121278 141.417837 237.626608 140.912506 
C 238.131938 140.407176 238.41587 139.721705 238.41587 139.007059 
C 238.41587 138.292414 238.131938 137.606943 237.626608 137.101612 
C 237.121278 136.596282 236.435806 136.31235 235.721161 136.31235 
C 235.006516 136.31235 234.321045 136.596282 233.815714 137.101612 
C 233.310384 137.606943 233.026452 138.292414 233.026452 139.007059 
C 233.026452 139.721705 233.310384 140.407176 233.815714 140.912506 
C 234.321045 141.417837 235.006516 141.701768 235.721161 141.701768 
z
" clip-path="url(#p71ee93bd68)" style="stroke: #000000; stroke-width: 2; stroke-linejoin: miter"/>
   </g>
   <g id="text_19">
    <!-- $V_1$ -->
    <g transform="translate(227.601161 129.807843) scale(0.14 -0.14)">
     <use xlink:href="#DejaVuSans-Oblique-56" transform="translate(0 0.09375)"/>
     <use xlink:href="#DejaVuSans-31" transform="translate(68.408203 -16.3125) scale(0.7)"/>
    </g>
   </g>
  </g>
 </g>
 <defs>
  <clipPath id="p71ee93bd68">
   <rect x="0" y="0" width="471.442322" height="346.32"/>
  </clipPath>
 </defs>
</svg>
