<svg xmlns="http://www.w3.org/2000/svg" xml:lang="en" height="179.80000000000004pt" width="447.836pt" viewBox="-50.896 -175.20000000000002 447.836 179.80000000000004"><circle cx="4.408728476930472e-15" cy="-72.0" r="18.0" style="stroke:black;fill:none;stroke-width:2.0;stroke-dasharray:-;" /><circle cx="252.0" cy="-72.0" r="18.0" style="stroke:black;fill:none;stroke-width:2.0;stroke-dasharray:-;" /><path d="M 0.0,-0.0 L 3.3065463576978533e-15,-54.0 L 3.3065463576978533e-15,-54.0 M 5.5109105961630896e-15,-90.0 L 5.5109105961630896e-15,-90.0 L 8.817456953860943e-15,-144.0" style="stroke:black;fill:none;stroke-width:2.0;stroke-dasharray:-;stroke-linecap:round;stroke-linejoin:round;" /><path d="M 3.857637417314163e-15,-63.0 L 4.408728476930472e-15,-72.0" style="stroke:black;fill:none;stroke-width:2.0;stroke-dasharray:-;stroke-linecap:round;stroke-linejoin:round;" /><path d="M 4.8373548566320455e-15 -79.0 L 2.700000000000004 -72.0 L -2.6999999999999953 -72.0 Z" style="stroke:black;fill:black;stroke-linecap:butt;stroke-linejoin:miter;" /><path d="M 8.817456953860943e-15,-144.0 L 54.00000000000001,-144.0 L 108.00000000000001,-144.0" style="stroke:black;fill:none;stroke-width:2.0;stroke-dasharray:-;stroke-linecap:round;stroke-linejoin:round;" /><path d="M 108.00000000000001,-144.0 L 108.0,-90.0 L 117.0,-87.00000000000001 L 99.0,-81.0 L 117.0,-75.0 L 99.0,-69.00000000000001 L 117.0,-63.0 L 99.0,-57.00000000000001 L 108.0,-54.0 L 107.99999999999999,-0.0" style="stroke:black;fill:none;stroke-width:2.0;stroke-dasharray:-;stroke-linecap:round;stroke-linejoin:round;" /><path d="M 108.00000000000001,-144.0 L 162.0,-144.0 L 165.00000000000003,-153.0 L 171.0,-135.0 L 177.0,-153.0 L 183.00000000000003,-135.0 L 189.0,-153.0 L 195.0,-135.0 L 198.0,-144.0 L 252.0,-144.0" style="stroke:black;fill:none;stroke-width:2.0;stroke-dasharray:-;stroke-linecap:round;stroke-linejoin:round;" /><path d="M 252.0,-144.0 L 306.0,-144.0 L 360.0,-144.0" style="stroke:black;fill:none;stroke-width:2.0;stroke-dasharray:-;stroke-linecap:round;stroke-linejoin:round;" /><path d="M 360.0,-144.0 L 360.0,-90.0 L 369.0,-87.00000000000001 L 351.0,-81.0 L 369.0,-75.0 L 351.0,-69.00000000000001 L 369.0,-63.0 L 351.0,-57.00000000000001 L 360.0,-54.0 L 360.0,-0.0" style="stroke:black;fill:none;stroke-width:2.0;stroke-dasharray:-;stroke-linecap:round;stroke-linejoin:round;" /><path d="M 360.0,-0.0 L 180.0,-2.2043642384652358e-14 L 0.0,-4.4087284769304716e-14" style="stroke:black;fill:none;stroke-width:2.0;stroke-dasharray:-;stroke-linecap:round;stroke-linejoin:round;" /><path d="M 252.0,-144.0 L 252.0,-90.0 L 252.0,-90.0 M 251.99999999999997,-54.0 L 251.99999999999997,-54.0 L 251.99999999999997,-0.0" style="stroke:black;fill:none;stroke-width:2.0;stroke-dasharray:-;stroke-linecap:round;stroke-linejoin:round;" /><path d="M 252.0,-81.0 L 252.0,-72.0" style="stroke:black;fill:none;stroke-width:2.0;stroke-dasharray:-;stroke-linecap:round;stroke-linejoin:round;" /><path d="M 252.0 -65.0 L 249.3 -72.0 L 254.7 -72.0 Z" style="stroke:black;fill:black;stroke-linecap:butt;stroke-linejoin:miter;" /><text x="21.6" y="-86.0" dominant-baseline="central" fill="black" font-size="14.0" font-family="sans" text-anchor="start"><tspan x="21.6" dy="14.0">1A</tspan></text><text x="-21.599999999999994" y="-86.0" dominant-baseline="central" fill="black" font-size="14.0" font-family="sans" text-anchor="end"><tspan x="-21.599999999999994" dy="14.0">I<tspan baseline-shift="sub" font-size="smaller">S1</tspan></tspan></text><text x="120.60000000000001" y="-86.0" dominant-baseline="central" fill="black" font-size="14.0" font-family="sans" text-anchor="start"><tspan x="120.60000000000001" dy="14.0">8Ω</tspan></text><text x="95.39999999999999" y="-86.0" dominant-baseline="central" fill="black" font-size="14.0" font-family="sans" text-anchor="end"><tspan x="95.39999999999999" dy="14.0">R₁</tspan></text><text x="180.0" y="-145.4" dominant-baseline="hanging" fill="black" font-size="14.0" font-family="sans" text-anchor="middle"><tspan x="180.0" dy="14.0">2Ω</tspan></text><text x="180.0" y="-170.6" dominant-baseline="ideographic" fill="black" font-size="14.0" font-family="sans" text-anchor="middle"><tspan x="180.0" dy="14.0">R₂</tspan></text><text x="372.59999999999997" y="-86.0" dominant-baseline="central" fill="black" font-size="14.0" font-family="sans" text-anchor="start"><tspan x="372.59999999999997" dy="14.0">6Ω</tspan></text><text x="347.40000000000003" y="-86.0" dominant-baseline="central" fill="black" font-size="14.0" font-family="sans" text-anchor="end"><tspan x="347.40000000000003" dy="14.0">R₃</tspan></text><text x="273.59999999999997" y="-86.0" dominant-baseline="central" fill="black" font-size="14.0" font-family="sans" text-anchor="start"><tspan x="273.59999999999997" dy="14.0">2A</tspan></text><text x="230.39999999999998" y="-86.0" dominant-baseline="central" fill="black" font-size="14.0" font-family="sans" text-anchor="end"><tspan x="230.39999999999998" dy="14.0">I<tspan baseline-shift="sub" font-size="smaller">S2</tspan></tspan></text></svg>