<?xml version="1.0" encoding="utf-8" standalone="no"?>
<!DOCTYPE svg PUBLIC "-//W3C//DTD SVG 1.1//EN"
  "http://www.w3.org/Graphics/SVG/1.1/DTD/svg11.dtd">
<svg xmlns:xlink="http://www.w3.org/1999/xlink" width="533.338274pt" height="301.68pt" viewBox="0 0 533.338274 301.68" xmlns="http://www.w3.org/2000/svg" version="1.1">
 <metadata>
  <rdf:RDF xmlns:dc="http://purl.org/dc/elements/1.1/" xmlns:cc="http://creativecommons.org/ns#" xmlns:rdf="http://www.w3.org/1999/02/22-rdf-syntax-ns#">
   <cc:Work>
    <dc:type rdf:resource="http://purl.org/dc/dcmitype/StillImage"/>
    <dc:date>2025-04-17T19:29:44.906588</dc:date>
    <dc:format>image/svg+xml</dc:format>
    <dc:creator>
     <cc:Agent>
      <dc:title>Matplotlib v3.10.1, https://matplotlib.org/</dc:title>
     </cc:Agent>
    </dc:creator>
   </cc:Work>
  </rdf:RDF>
 </metadata>
 <defs>
  <style type="text/css">*{stroke-linejoin: round; stroke-linecap: butt}</style>
 </defs>
 <g id="figure_1">
  <g id="patch_1">
   <path d="M 0 301.68 
L 533.338274 301.68 
L 533.338274 0 
L 0 0 
L 0 301.68 
z
" style="fill: none"/>
  </g>
  <g id="axes_1">
   <g id="patch_2">
    <path d="M 50.921986 220.046591 
C 55.690583 220.046591 60.264514 218.152007 63.636421 214.780099 
C 67.008329 211.408191 68.902913 206.834261 68.902913 202.065664 
C 68.902913 197.297066 67.008329 192.723136 63.636421 189.351228 
C 60.264514 185.97932 55.690583 184.084736 50.921986 184.084736 
C 46.153388 184.084736 41.579458 185.97932 38.20755 189.351228 
C 34.835642 192.723136 32.941059 197.297066 32.941059 202.065664 
C 32.941059 206.834261 34.835642 211.408191 38.20755 214.780099 
C 41.579458 218.152007 46.153388 220.046591 50.921986 220.046591 
L 50.921986 220.046591 
z
" clip-path="url(#p25a6f3911c)" style="fill: none; stroke: #000000; stroke-width: 2; stroke-linejoin: miter"/>
   </g>
   <g id="patch_3">
    <path d="M 230.731257 148.122882 
C 235.499855 148.122882 240.073785 146.228298 243.445693 142.85639 
C 246.8176 139.484483 248.712184 134.910553 248.712184 130.141955 
C 248.712184 125.373357 246.8176 120.799427 243.445693 117.427519 
C 240.073785 114.055612 235.499855 112.161028 230.731257 112.161028 
C 225.96266 112.161028 221.388729 114.055612 218.016822 117.427519 
C 214.644914 120.799427 212.75033 125.373357 212.75033 130.141955 
C 212.75033 134.910553 214.644914 139.484483 218.016822 142.85639 
C 221.388729 146.228298 225.96266 148.122882 230.731257 148.122882 
L 230.731257 148.122882 
z
" clip-path="url(#p25a6f3911c)" style="fill: none; stroke: #000000; stroke-width: 2; stroke-linejoin: miter"/>
   </g>
   <g id="patch_4">
    <path d="M 338.61682 58.218246 
C 343.385418 58.218246 347.959348 56.323662 351.331256 52.951755 
C 354.703163 49.579847 356.597747 45.005917 356.597747 40.237319 
C 356.597747 35.468722 354.703163 30.894791 351.331256 27.522884 
C 347.959348 24.150976 343.385418 22.256392 338.61682 22.256392 
C 333.848223 22.256392 329.274292 24.150976 325.902385 27.522884 
C 322.530477 30.894791 320.635893 35.468722 320.635893 40.237319 
C 320.635893 45.005917 322.530477 49.579847 325.902385 52.951755 
C 329.274292 56.323662 333.848223 58.218246 338.61682 58.218246 
L 338.61682 58.218246 
z
" clip-path="url(#p25a6f3911c)" style="fill: none; stroke: #000000; stroke-width: 2; stroke-linejoin: miter"/>
   </g>
   <g id="line2d_1">
    <path d="M 50.921986 273.989372 
L 50.921986 220.046591 
L 50.921986 220.046591 
M 50.921986 184.084736 
L 50.921986 184.084736 
L 50.921986 130.141955 
" clip-path="url(#p25a6f3911c)" style="fill: none; stroke: #000000; stroke-width: 2; stroke-linecap: round"/>
   </g>
   <g id="line2d_2">
    <path d="M 50.921986 211.056127 
L 50.921986 202.065664 
" clip-path="url(#p25a6f3911c)" style="fill: none; stroke: #000000; stroke-width: 2; stroke-linecap: round"/>
   </g>
   <g id="patch_5">
    <path d="M 48.224847 202.065664 
L 50.921986 193.0752 
L 53.619125 202.065664 
z
" clip-path="url(#p25a6f3911c)"/>
   </g>
   <g id="line2d_3">
    <path d="M 50.921986 130.141955 
L 104.864767 130.141955 
L 158.807549 130.141955 
" clip-path="url(#p25a6f3911c)" style="fill: none; stroke: #000000; stroke-width: 2; stroke-linecap: round"/>
   </g>
   <g id="line2d_4">
    <path d="M 158.807549 130.141955 
L 158.807549 184.084736 
L 167.798012 187.081558 
L 149.817085 193.0752 
L 167.798012 199.068842 
L 149.817085 205.062485 
L 167.798012 211.056127 
L 149.817085 217.04977 
L 158.807549 220.046591 
L 158.807549 273.989372 
" clip-path="url(#p25a6f3911c)" style="fill: none; stroke: #000000; stroke-width: 2; stroke-linecap: round"/>
   </g>
   <g id="line2d_5">
    <path d="M 158.807549 130.141955 
L 212.75033 130.141955 
L 212.75033 130.141955 
M 248.712184 130.141955 
L 248.712184 130.141955 
L 302.654966 130.141955 
" clip-path="url(#p25a6f3911c)" style="fill: none; stroke: #000000; stroke-width: 2; stroke-linecap: round"/>
   </g>
   <g id="line2d_6">
    <path d="M 221.740794 133.73814 
L 221.740794 126.54577 
" clip-path="url(#p25a6f3911c)" style="fill: none; stroke: #000000; stroke-width: 2; stroke-linecap: round"/>
   </g>
   <g id="line2d_7">
    <path d="M 236.125535 130.141955 
L 243.317906 130.141955 
" clip-path="url(#p25a6f3911c)" style="fill: none; stroke: #000000; stroke-width: 2; stroke-linecap: round"/>
   </g>
   <g id="line2d_8">
    <path d="M 239.721721 133.73814 
L 239.721721 126.54577 
" clip-path="url(#p25a6f3911c)" style="fill: none; stroke: #000000; stroke-width: 2; stroke-linecap: round"/>
   </g>
   <g id="line2d_9">
    <path d="M 302.654966 130.141955 
L 302.654966 184.084736 
L 311.645429 187.081558 
L 293.664502 193.0752 
L 311.645429 199.068842 
L 293.664502 205.062485 
L 311.645429 211.056127 
L 293.664502 217.04977 
L 302.654966 220.046591 
L 302.654966 273.989372 
" clip-path="url(#p25a6f3911c)" style="fill: none; stroke: #000000; stroke-width: 2; stroke-linecap: round"/>
   </g>
   <g id="line2d_10">
    <path d="M 302.654966 130.141955 
L 356.597747 130.141955 
L 359.594568 121.151491 
L 365.588211 139.132419 
L 371.581853 121.151491 
L 377.575496 139.132419 
L 383.569138 121.151491 
L 389.56278 139.132419 
L 392.559602 130.141955 
L 446.502383 130.141955 
" clip-path="url(#p25a6f3911c)" style="fill: none; stroke: #000000; stroke-width: 2; stroke-linecap: round"/>
   </g>
   <g id="line2d_11">
    <path d="M 446.502383 130.141955 
L 446.502383 184.084736 
L 455.492847 187.081558 
L 437.511919 193.0752 
L 455.492847 199.068842 
L 437.511919 205.062485 
L 455.492847 211.056127 
L 437.511919 217.04977 
L 446.502383 220.046591 
L 446.502383 273.989372 
" clip-path="url(#p25a6f3911c)" style="fill: none; stroke: #000000; stroke-width: 2; stroke-linecap: round"/>
   </g>
   <g id="line2d_12">
    <path d="M 446.502383 273.989372 
L 248.712184 273.989372 
L 50.921986 273.989372 
" clip-path="url(#p25a6f3911c)" style="fill: none; stroke: #000000; stroke-width: 2; stroke-linecap: round"/>
   </g>
   <g id="line2d_13">
    <path d="M 158.807549 130.141955 
L 158.807549 85.189637 
L 158.807549 40.237319 
" clip-path="url(#p25a6f3911c)" style="fill: none; stroke: #000000; stroke-width: 2; stroke-linecap: round"/>
   </g>
   <g id="line2d_14">
    <path d="M 158.807549 40.237319 
L 212.75033 40.237319 
L 266.693112 40.237319 
" clip-path="url(#p25a6f3911c)" style="fill: none; stroke: #000000; stroke-width: 2; stroke-linecap: round"/>
   </g>
   <g id="line2d_15">
    <path d="M 266.693112 40.237319 
L 320.635893 40.237319 
L 320.635893 40.237319 
M 356.597747 40.237319 
L 356.597747 40.237319 
L 410.540529 40.237319 
" clip-path="url(#p25a6f3911c)" style="fill: none; stroke: #000000; stroke-width: 2; stroke-linecap: round"/>
   </g>
   <g id="line2d_16">
    <path d="M 329.626357 40.237319 
L 338.61682 40.237319 
" clip-path="url(#p25a6f3911c)" style="fill: none; stroke: #000000; stroke-width: 2; stroke-linecap: round"/>
   </g>
   <g id="patch_6">
    <path d="M 338.61682 37.54018 
L 347.607284 40.237319 
L 338.61682 42.934458 
z
" clip-path="url(#p25a6f3911c)"/>
   </g>
   <g id="line2d_17">
    <path d="M 410.540529 40.237319 
L 428.521456 40.237319 
L 446.502383 40.237319 
" clip-path="url(#p25a6f3911c)" style="fill: none; stroke: #000000; stroke-width: 2; stroke-linecap: round"/>
   </g>
   <g id="line2d_18">
    <path d="M 446.502383 40.237319 
L 446.502383 85.189637 
L 446.502383 130.141955 
" clip-path="url(#p25a6f3911c)" style="fill: none; stroke: #000000; stroke-width: 2; stroke-linecap: round"/>
   </g>
   <g id="line2d_19">
    <path d="M 158.807549 130.141955 
L 140.826621 130.141955 
L 122.845694 130.141955 
" clip-path="url(#p25a6f3911c)" style="fill: none; stroke: #000000; stroke-width: 2; stroke-linecap: round"/>
   </g>
   <g id="line2d_20">
    <path d="M 446.502383 130.141955 
L 464.48331 130.141955 
L 482.464237 130.141955 
" clip-path="url(#p25a6f3911c)" style="fill: none; stroke: #000000; stroke-width: 2; stroke-linecap: round"/>
   </g>
   <g id="line2d_21">
    <path d="M 446.502383 130.141955 
L 482.464237 130.141955 
L 518.426092 130.141955 
" clip-path="url(#p25a6f3911c)" style="fill: none; stroke: #808080; stroke-width: 2; stroke-linecap: round"/>
   </g>
   <g id="line2d_22">
    <path d="M 446.502383 273.989372 
L 482.464237 273.989372 
L 518.426092 273.989372 
" clip-path="url(#p25a6f3911c)" style="fill: none; stroke: #808080; stroke-width: 2; stroke-linecap: round"/>
   </g>
   <g id="line2d_23">
    <path d="M 302.654966 273.989372 
L 302.654966 288.374114 
L 293.664502 288.374114 
L 311.645429 288.374114 
M 296.361641 292.689536 
L 308.94829 292.689536 
M 300.856873 297.004959 
L 304.453059 297.004959 
" clip-path="url(#p25a6f3911c)" style="fill: none; stroke: #000000; stroke-width: 2; stroke-linecap: round"/>
   </g>
   <g id="text_1">
    <!-- 8A -->
    <g transform="translate(72.499098 205.928789) scale(0.14 -0.14)">
     <defs>
      <path id="DejaVuSans-38" d="M 2034 2216 
Q 1584 2216 1326 1975 
Q 1069 1734 1069 1313 
Q 1069 891 1326 650 
Q 1584 409 2034 409 
Q 2484 409 2743 651 
Q 3003 894 3003 1313 
Q 3003 1734 2745 1975 
Q 2488 2216 2034 2216 
z
M 1403 2484 
Q 997 2584 770 2862 
Q 544 3141 544 3541 
Q 544 4100 942 4425 
Q 1341 4750 2034 4750 
Q 2731 4750 3128 4425 
Q 3525 4100 3525 3541 
Q 3525 3141 3298 2862 
Q 3072 2584 2669 2484 
Q 3125 2378 3379 2068 
Q 3634 1759 3634 1313 
Q 3634 634 3220 271 
Q 2806 -91 2034 -91 
Q 1263 -91 848 271 
Q 434 634 434 1313 
Q 434 1759 690 2068 
Q 947 2378 1403 2484 
z
M 1172 3481 
Q 1172 3119 1398 2916 
Q 1625 2713 2034 2713 
Q 2441 2713 2670 2916 
Q 2900 3119 2900 3481 
Q 2900 3844 2670 4047 
Q 2441 4250 2034 4250 
Q 1625 4250 1398 4047 
Q 1172 3844 1172 3481 
z
" transform="scale(0.015625)"/>
      <path id="DejaVuSans-41" d="M 2188 4044 
L 1331 1722 
L 3047 1722 
L 2188 4044 
z
M 1831 4666 
L 2547 4666 
L 4325 0 
L 3669 0 
L 3244 1197 
L 1141 1197 
L 716 0 
L 50 0 
L 1831 4666 
z
" transform="scale(0.015625)"/>
     </defs>
     <use xlink:href="#DejaVuSans-38"/>
     <use xlink:href="#DejaVuSans-41" transform="translate(63.623047 0)"/>
    </g>
   </g>
   <g id="text_2">
    <!-- $I_{S1}$ -->
    <g transform="translate(12.264873 205.928789) scale(0.14 -0.14)">
     <defs>
      <path id="DejaVuSans-Oblique-49" d="M 1081 4666 
L 1716 4666 
L 806 0 
L 172 0 
L 1081 4666 
z
" transform="scale(0.015625)"/>
      <path id="DejaVuSans-Oblique-53" d="M 3859 4513 
L 3738 3897 
Q 3422 4066 3111 4152 
Q 2800 4238 2509 4238 
Q 1944 4238 1609 3991 
Q 1275 3744 1275 3334 
Q 1275 3109 1398 2989 
Q 1522 2869 2034 2731 
L 2413 2638 
Q 3053 2472 3303 2217 
Q 3553 1963 3553 1503 
Q 3553 797 2998 353 
Q 2444 -91 1538 -91 
Q 1166 -91 791 -17 
Q 416 56 38 206 
L 166 856 
Q 513 641 861 531 
Q 1209 422 1556 422 
Q 2147 422 2503 684 
Q 2859 947 2859 1369 
Q 2859 1650 2717 1795 
Q 2575 1941 2106 2059 
L 1728 2156 
Q 1081 2325 845 2545 
Q 609 2766 609 3163 
Q 609 3859 1145 4304 
Q 1681 4750 2541 4750 
Q 2875 4750 3203 4690 
Q 3531 4631 3859 4513 
z
" transform="scale(0.015625)"/>
      <path id="DejaVuSans-31" d="M 794 531 
L 1825 531 
L 1825 4091 
L 703 3866 
L 703 4441 
L 1819 4666 
L 2450 4666 
L 2450 531 
L 3481 531 
L 3481 0 
L 794 0 
L 794 531 
z
" transform="scale(0.015625)"/>
     </defs>
     <use xlink:href="#DejaVuSans-Oblique-49" transform="translate(0 0.09375)"/>
     <use xlink:href="#DejaVuSans-Oblique-53" transform="translate(29.492188 -16.3125) scale(0.7)"/>
     <use xlink:href="#DejaVuSans-31" transform="translate(73.925781 -16.3125) scale(0.7)"/>
    </g>
   </g>
   <g id="text_3">
    <!-- 3立 -->
    <g transform="translate(171.394198 205.928789) scale(0.14 -0.14)">
     <defs>
      <path id="DejaVuSans-33" d="M 2597 2516 
Q 3050 2419 3304 2112 
Q 3559 1806 3559 1356 
Q 3559 666 3084 287 
Q 2609 -91 1734 -91 
Q 1441 -91 1130 -33 
Q 819 25 488 141 
L 488 750 
Q 750 597 1062 519 
Q 1375 441 1716 441 
Q 2309 441 2620 675 
Q 2931 909 2931 1356 
Q 2931 1769 2642 2001 
Q 2353 2234 1838 2234 
L 1294 2234 
L 1294 2753 
L 1863 2753 
Q 2328 2753 2575 2939 
Q 2822 3125 2822 3475 
Q 2822 3834 2567 4026 
Q 2313 4219 1838 4219 
Q 1578 4219 1281 4162 
Q 984 4106 628 3988 
L 628 4550 
Q 988 4650 1302 4700 
Q 1616 4750 1894 4750 
Q 2613 4750 3031 4423 
Q 3450 4097 3450 3541 
Q 3450 3153 3228 2886 
Q 3006 2619 2597 2516 
z
" transform="scale(0.015625)"/>
      <path id="DejaVuSans-3a9" d="M 4647 556 
L 4647 0 
L 2772 0 
L 2772 556 
Q 3325 859 3634 1378 
Q 3944 1897 3944 2528 
Q 3944 3278 3531 3731 
Q 3119 4184 2444 4184 
Q 1769 4184 1355 3729 
Q 941 3275 941 2528 
Q 941 1897 1250 1378 
Q 1563 859 2119 556 
L 2119 0 
L 244 0 
L 244 556 
L 1241 556 
Q 747 991 519 1456 
Q 294 1922 294 2497 
Q 294 3491 894 4106 
Q 1491 4722 2444 4722 
Q 3391 4722 3994 4106 
Q 4594 3494 4594 2528 
Q 4594 1922 4372 1459 
Q 4150 997 3647 556 
L 4647 556 
z
" transform="scale(0.015625)"/>
     </defs>
     <use xlink:href="#DejaVuSans-33"/>
     <use xlink:href="#DejaVuSans-3a9" transform="translate(63.623047 0)"/>
    </g>
   </g>
   <g id="text_4">
    <!-- $R_1$ -->
    <g transform="translate(129.8409 205.928789) scale(0.14 -0.14)">
     <defs>
      <path id="DejaVuSans-Oblique-52" d="M 1613 4147 
L 1294 2491 
L 2106 2491 
Q 2584 2491 2879 2755 
Q 3175 3019 3175 3444 
Q 3175 3784 2976 3965 
Q 2778 4147 2406 4147 
L 1613 4147 
z
M 2772 2241 
Q 2972 2194 3105 2009 
Q 3238 1825 3413 1275 
L 3809 0 
L 3144 0 
L 2778 1197 
Q 2638 1659 2453 1815 
Q 2269 1972 1888 1972 
L 1191 1972 
L 806 0 
L 172 0 
L 1081 4666 
L 2503 4666 
Q 3150 4666 3495 4373 
Q 3841 4081 3841 3531 
Q 3841 3044 3547 2687 
Q 3253 2331 2772 2241 
z
" transform="scale(0.015625)"/>
     </defs>
     <use xlink:href="#DejaVuSans-Oblique-52" transform="translate(0 0.09375)"/>
     <use xlink:href="#DejaVuSans-31" transform="translate(69.482422 -16.3125) scale(0.7)"/>
    </g>
   </g>
   <g id="text_5">
    <!-- 12V -->
    <g transform="translate(217.03532 162.35688) scale(0.14 -0.14)">
     <defs>
      <path id="DejaVuSans-32" d="M 1228 531 
L 3431 531 
L 3431 0 
L 469 0 
L 469 531 
Q 828 903 1448 1529 
Q 2069 2156 2228 2338 
Q 2531 2678 2651 2914 
Q 2772 3150 2772 3378 
Q 2772 3750 2511 3984 
Q 2250 4219 1831 4219 
Q 1534 4219 1204 4116 
Q 875 4013 500 3803 
L 500 4441 
Q 881 4594 1212 4672 
Q 1544 4750 1819 4750 
Q 2544 4750 2975 4387 
Q 3406 4025 3406 3419 
Q 3406 3131 3298 2873 
Q 3191 2616 2906 2266 
Q 2828 2175 2409 1742 
Q 1991 1309 1228 531 
z
" transform="scale(0.015625)"/>
      <path id="DejaVuSans-56" d="M 1831 0 
L 50 4666 
L 709 4666 
L 2188 738 
L 3669 4666 
L 4325 4666 
L 2547 0 
L 1831 0 
z
" transform="scale(0.015625)"/>
     </defs>
     <use xlink:href="#DejaVuSans-31"/>
     <use xlink:href="#DejaVuSans-32" transform="translate(63.623047 0)"/>
     <use xlink:href="#DejaVuSans-56" transform="translate(127.246094 0)"/>
    </g>
   </g>
   <g id="text_6">
    <!-- $V_{S1}$ -->
    <g transform="translate(219.461257 105.65328) scale(0.14 -0.14)">
     <defs>
      <path id="DejaVuSans-Oblique-56" d="M 1319 0 
L 500 4666 
L 1119 4666 
L 1797 653 
L 4063 4666 
L 4750 4666 
L 2053 0 
L 1319 0 
z
" transform="scale(0.015625)"/>
     </defs>
     <use xlink:href="#DejaVuSans-Oblique-56" transform="translate(0 0.09375)"/>
     <use xlink:href="#DejaVuSans-Oblique-53" transform="translate(68.408203 -16.3125) scale(0.7)"/>
     <use xlink:href="#DejaVuSans-31" transform="translate(112.841797 -16.3125) scale(0.7)"/>
    </g>
   </g>
   <g id="text_7">
    <!-- 6立 -->
    <g transform="translate(315.241615 205.928789) scale(0.14 -0.14)">
     <defs>
      <path id="DejaVuSans-36" d="M 2113 2584 
Q 1688 2584 1439 2293 
Q 1191 2003 1191 1497 
Q 1191 994 1439 701 
Q 1688 409 2113 409 
Q 2538 409 2786 701 
Q 3034 994 3034 1497 
Q 3034 2003 2786 2293 
Q 2538 2584 2113 2584 
z
M 3366 4563 
L 3366 3988 
Q 3128 4100 2886 4159 
Q 2644 4219 2406 4219 
Q 1781 4219 1451 3797 
Q 1122 3375 1075 2522 
Q 1259 2794 1537 2939 
Q 1816 3084 2150 3084 
Q 2853 3084 3261 2657 
Q 3669 2231 3669 1497 
Q 3669 778 3244 343 
Q 2819 -91 2113 -91 
Q 1303 -91 875 529 
Q 447 1150 447 2328 
Q 447 3434 972 4092 
Q 1497 4750 2381 4750 
Q 2619 4750 2861 4703 
Q 3103 4656 3366 4563 
z
" transform="scale(0.015625)"/>
     </defs>
     <use xlink:href="#DejaVuSans-36"/>
     <use xlink:href="#DejaVuSans-3a9" transform="translate(63.623047 0)"/>
    </g>
   </g>
   <g id="text_8">
    <!-- $R_2$ -->
    <g transform="translate(273.688317 205.928789) scale(0.14 -0.14)">
     <use xlink:href="#DejaVuSans-Oblique-52" transform="translate(0 0.09375)"/>
     <use xlink:href="#DejaVuSans-32" transform="translate(69.482422 -16.3125) scale(0.7)"/>
    </g>
   </g>
   <g id="text_9">
    <!-- 2立 -->
    <g transform="translate(364.775393 153.366416) scale(0.14 -0.14)">
     <use xlink:href="#DejaVuSans-32"/>
     <use xlink:href="#DejaVuSans-3a9" transform="translate(63.623047 0)"/>
    </g>
   </g>
   <g id="text_10">
    <!-- $R_3$ -->
    <g transform="translate(366.388674 114.643743) scale(0.14 -0.14)">
     <use xlink:href="#DejaVuSans-Oblique-52" transform="translate(0 0.09375)"/>
     <use xlink:href="#DejaVuSans-33" transform="translate(69.482422 -16.3125) scale(0.7)"/>
    </g>
   </g>
   <g id="text_11">
    <!-- 1立 -->
    <g transform="translate(459.089032 205.928789) scale(0.14 -0.14)">
     <use xlink:href="#DejaVuSans-31"/>
     <use xlink:href="#DejaVuSans-3a9" transform="translate(63.623047 0)"/>
    </g>
   </g>
   <g id="text_12">
    <!-- $R_4$ -->
    <g transform="translate(417.535734 205.928789) scale(0.14 -0.14)">
     <defs>
      <path id="DejaVuSans-34" d="M 2419 4116 
L 825 1625 
L 2419 1625 
L 2419 4116 
z
M 2253 4666 
L 3047 4666 
L 3047 1625 
L 3713 1625 
L 3713 1100 
L 3047 1100 
L 3047 0 
L 2419 0 
L 2419 1100 
L 313 1100 
L 313 1709 
L 2253 4666 
z
" transform="scale(0.015625)"/>
     </defs>
     <use xlink:href="#DejaVuSans-Oblique-52" transform="translate(0 0.09375)"/>
     <use xlink:href="#DejaVuSans-34" transform="translate(69.482422 -16.3125) scale(0.7)"/>
    </g>
   </g>
   <g id="text_13">
    <!-- 2A -->
    <g transform="translate(329.374633 72.452244) scale(0.14 -0.14)">
     <use xlink:href="#DejaVuSans-32"/>
     <use xlink:href="#DejaVuSans-41" transform="translate(63.623047 0)"/>
    </g>
   </g>
   <g id="text_14">
    <!-- $I_{S2}$ -->
    <g transform="translate(330.07682 15.748644) scale(0.14 -0.14)">
     <use xlink:href="#DejaVuSans-Oblique-49" transform="translate(0 0.09375)"/>
     <use xlink:href="#DejaVuSans-Oblique-53" transform="translate(29.492188 -16.3125) scale(0.7)"/>
     <use xlink:href="#DejaVuSans-32" transform="translate(73.925781 -16.3125) scale(0.7)"/>
    </g>
   </g>
   <g id="text_15">
    <!-- $V_1$ -->
    <g transform="translate(132.706621 123.634207) scale(0.14 -0.14)">
     <use xlink:href="#DejaVuSans-Oblique-56" transform="translate(0 0.09375)"/>
     <use xlink:href="#DejaVuSans-31" transform="translate(68.408203 -16.3125) scale(0.7)"/>
    </g>
   </g>
   <g id="text_16">
    <!-- $V_3$ -->
    <g transform="translate(456.36331 123.634207) scale(0.14 -0.14)">
     <use xlink:href="#DejaVuSans-Oblique-56" transform="translate(0 0.09375)"/>
     <use xlink:href="#DejaVuSans-33" transform="translate(68.408203 -16.3125) scale(0.7)"/>
    </g>
   </g>
   <g id="text_17">
    <!-- + -->
    <g transform="translate(512.56031 169.966934) scale(0.14 -0.14)">
     <defs>
      <path id="DejaVuSans-2b" d="M 2944 4013 
L 2944 2272 
L 4684 2272 
L 4684 1741 
L 2944 1741 
L 2944 0 
L 2419 0 
L 2419 1741 
L 678 1741 
L 678 2272 
L 2419 2272 
L 2419 4013 
L 2944 4013 
z
" transform="scale(0.015625)"/>
     </defs>
     <use xlink:href="#DejaVuSans-2b"/>
    </g>
   </g>
   <g id="text_18">
    <!-- $V_o$ -->
    <g transform="translate(510.446092 205.928789) scale(0.14 -0.14)">
     <defs>
      <path id="DejaVuSans-Oblique-6f" d="M 1625 -91 
Q 1009 -91 651 289 
Q 294 669 294 1325 
Q 294 1706 417 2101 
Q 541 2497 738 2766 
Q 1047 3184 1428 3384 
Q 1809 3584 2291 3584 
Q 2888 3584 3255 3212 
Q 3622 2841 3622 2241 
Q 3622 1825 3500 1412 
Q 3378 1000 3181 728 
Q 2875 309 2494 109 
Q 2113 -91 1625 -91 
z
M 891 1344 
Q 891 869 1089 633 
Q 1288 397 1691 397 
Q 2269 397 2648 901 
Q 3028 1406 3028 2181 
Q 3028 2634 2825 2865 
Q 2622 3097 2228 3097 
Q 1903 3097 1650 2945 
Q 1397 2794 1197 2484 
Q 1050 2253 970 1956 
Q 891 1659 891 1344 
z
" transform="scale(0.015625)"/>
     </defs>
     <use xlink:href="#DejaVuSans-Oblique-56" transform="translate(0 0.09375)"/>
     <use xlink:href="#DejaVuSans-Oblique-6f" transform="translate(68.408203 -16.3125) scale(0.7)"/>
    </g>
   </g>
   <g id="text_19">
    <!-- - -->
    <g transform="translate(515.900623 241.890643) scale(0.14 -0.14)">
     <defs>
      <path id="DejaVuSans-2d" d="M 313 2009 
L 1997 2009 
L 1997 1497 
L 313 1497 
L 313 2009 
z
" transform="scale(0.015625)"/>
     </defs>
     <use xlink:href="#DejaVuSans-2d"/>
    </g>
   </g>
   <g id="patch_7">
    <path d="M 158.807549 132.839094 
C 159.522838 132.839094 160.208928 132.554906 160.714714 132.04912 
C 161.2205 131.543334 161.504688 130.857245 161.504688 130.141955 
C 161.504688 129.426665 161.2205 128.740576 160.714714 128.23479 
C 160.208928 127.729003 159.522838 127.444816 158.807549 127.444816 
C 158.092259 127.444816 157.406169 127.729003 156.900383 128.23479 
C 156.394597 128.740576 156.11041 129.426665 156.11041 130.141955 
C 156.11041 130.857245 156.394597 131.543334 156.900383 132.04912 
C 157.406169 132.554906 158.092259 132.839094 158.807549 132.839094 
z
" clip-path="url(#p25a6f3911c)" style="stroke: #000000; stroke-width: 2; stroke-linejoin: miter"/>
   </g>
   <g id="patch_8">
    <path d="M 302.654966 132.839094 
C 303.370255 132.839094 304.056345 132.554906 304.562131 132.04912 
C 305.067917 131.543334 305.352105 130.857245 305.352105 130.141955 
C 305.352105 129.426665 305.067917 128.740576 304.562131 128.23479 
C 304.056345 127.729003 303.370255 127.444816 302.654966 127.444816 
C 301.939676 127.444816 301.253587 127.729003 300.7478 128.23479 
C 300.242014 128.740576 299.957827 129.426665 299.957827 130.141955 
C 299.957827 130.857245 300.242014 131.543334 300.7478 132.04912 
C 301.253587 132.554906 301.939676 132.839094 302.654966 132.839094 
z
" clip-path="url(#p25a6f3911c)" style="stroke: #000000; stroke-width: 2; stroke-linejoin: miter"/>
   </g>
   <g id="text_20">
    <!-- $V_2$ -->
    <g transform="translate(294.534966 120.937068) scale(0.14 -0.14)">
     <use xlink:href="#DejaVuSans-Oblique-56" transform="translate(0 0.09375)"/>
     <use xlink:href="#DejaVuSans-32" transform="translate(68.408203 -16.3125) scale(0.7)"/>
    </g>
   </g>
   <g id="patch_9">
    <path d="M 446.502383 132.839094 
C 447.217673 132.839094 447.903762 132.554906 448.409548 132.04912 
C 448.915335 131.543334 449.199522 130.857245 449.199522 130.141955 
C 449.199522 129.426665 448.915335 128.740576 448.409548 128.23479 
C 447.903762 127.729003 447.217673 127.444816 446.502383 127.444816 
C 445.787093 127.444816 445.101004 127.729003 444.595218 128.23479 
C 444.089432 128.740576 443.805244 129.426665 443.805244 130.141955 
C 443.805244 130.857245 444.089432 131.543334 444.595218 132.04912 
C 445.101004 132.554906 445.787093 132.839094 446.502383 132.839094 
z
" clip-path="url(#p25a6f3911c)" style="stroke: #000000; stroke-width: 2; stroke-linejoin: miter"/>
   </g>
   <g id="patch_10">
    <path d="M 518.426092 132.839094 
C 519.141381 132.839094 519.827471 132.554906 520.333257 132.04912 
C 520.839043 131.543334 521.123231 130.857245 521.123231 130.141955 
C 521.123231 129.426665 520.839043 128.740576 520.333257 128.23479 
C 519.827471 127.729003 519.141381 127.444816 518.426092 127.444816 
C 517.710802 127.444816 517.024712 127.729003 516.518926 128.23479 
C 516.01314 128.740576 515.728953 129.426665 515.728953 130.141955 
C 515.728953 130.857245 516.01314 131.543334 516.518926 132.04912 
C 517.024712 132.554906 517.710802 132.839094 518.426092 132.839094 
z
" clip-path="url(#p25a6f3911c)" style="fill: #ffffff; stroke: #808080; stroke-width: 2; stroke-linejoin: miter"/>
   </g>
   <g id="patch_11">
    <path d="M 518.426092 276.686511 
C 519.141381 276.686511 519.827471 276.402324 520.333257 275.896538 
C 520.839043 275.390751 521.123231 274.704662 521.123231 273.989372 
C 521.123231 273.274083 520.839043 272.587993 520.333257 272.082207 
C 519.827471 271.576421 519.141381 271.292233 518.426092 271.292233 
C 517.710802 271.292233 517.024712 271.576421 516.518926 272.082207 
C 516.01314 272.587993 515.728953 273.274083 515.728953 273.989372 
C 515.728953 274.704662 516.01314 275.390751 516.518926 275.896538 
C 517.024712 276.402324 517.710802 276.686511 518.426092 276.686511 
z
" clip-path="url(#p25a6f3911c)" style="fill: #ffffff; stroke: #808080; stroke-width: 2; stroke-linejoin: miter"/>
   </g>
   <g id="line2d_24">
    <path d="M 158.807549 162.507624 
L 158.807549 162.507624 
" clip-path="url(#p25a6f3911c)" style="fill: none; stroke: #000000; stroke-width: 2; stroke-linecap: round"/>
   </g>
   <g id="patch_12">
    <path d="M 164.201827 162.507624 
L 158.807549 173.29618 
L 153.41327 162.507624 
z
" clip-path="url(#p25a6f3911c)"/>
   </g>
   <g id="text_21">
    <!-- $I_1$ -->
    <g transform="translate(137.238992 171.765027) scale(0.14 -0.14)">
     <use xlink:href="#DejaVuSans-Oblique-49" transform="translate(0 0.09375)"/>
     <use xlink:href="#DejaVuSans-31" transform="translate(29.492188 -16.3125) scale(0.7)"/>
    </g>
   </g>
   <g id="line2d_25">
    <path d="M 302.654966 162.507624 
L 302.654966 162.507624 
" clip-path="url(#p25a6f3911c)" style="fill: none; stroke: #000000; stroke-width: 2; stroke-linecap: round"/>
   </g>
   <g id="patch_13">
    <path d="M 308.049244 162.507624 
L 302.654966 173.29618 
L 297.260688 162.507624 
z
" clip-path="url(#p25a6f3911c)"/>
   </g>
   <g id="text_22">
    <!-- $I_2$ -->
    <g transform="translate(281.08641 171.765027) scale(0.14 -0.14)">
     <use xlink:href="#DejaVuSans-Oblique-49" transform="translate(0 0.09375)"/>
     <use xlink:href="#DejaVuSans-32" transform="translate(29.492188 -16.3125) scale(0.7)"/>
    </g>
   </g>
   <g id="line2d_26">
    <path d="M 335.020635 130.141955 
L 335.020635 130.141955 
" clip-path="url(#p25a6f3911c)" style="fill: none; stroke: #000000; stroke-width: 2; stroke-linecap: round"/>
   </g>
   <g id="patch_14">
    <path d="M 335.020635 124.747677 
L 345.809191 130.141955 
L 335.020635 135.536233 
z
" clip-path="url(#p25a6f3911c)"/>
   </g>
   <g id="text_23">
    <!-- $I_3$ -->
    <g transform="translate(335.024913 116.441836) scale(0.14 -0.14)">
     <use xlink:href="#DejaVuSans-Oblique-49" transform="translate(0 0.09375)"/>
     <use xlink:href="#DejaVuSans-33" transform="translate(29.492188 -16.3125) scale(0.7)"/>
    </g>
   </g>
   <g id="line2d_27">
    <path d="M 446.502383 162.507624 
L 446.502383 162.507624 
" clip-path="url(#p25a6f3911c)" style="fill: none; stroke: #000000; stroke-width: 2; stroke-linecap: round"/>
   </g>
   <g id="patch_15">
    <path d="M 451.896661 162.507624 
L 446.502383 173.29618 
L 441.108105 162.507624 
z
" clip-path="url(#p25a6f3911c)"/>
   </g>
   <g id="text_24">
    <!-- $I_4$ -->
    <g transform="translate(424.933827 171.765027) scale(0.14 -0.14)">
     <use xlink:href="#DejaVuSans-Oblique-49" transform="translate(0 0.09375)"/>
     <use xlink:href="#DejaVuSans-34" transform="translate(29.492188 -16.3125) scale(0.7)"/>
    </g>
   </g>
  </g>
 </g>
 <defs>
  <clipPath id="p25a6f3911c">
   <rect x="0" y="-0" width="533.338274" height="301.68"/>
  </clipPath>
 </defs>
</svg>
