<svg xmlns="http://www.w3.org/2000/svg" xml:lang="en" height="202.84000000000003pt" width="454.48400000000004pt" viewBox="-50.896 -175.20000000000002 454.48400000000004 202.84000000000003"><circle cx="4.408728476930472e-15" cy="-72.0" r="18.0" style="stroke:black;fill:none;stroke-width:2.0;stroke-dasharray:-;" /><circle cx="360.0" cy="-72.0" r="18.0" style="stroke:black;fill:none;stroke-width:2.0;stroke-dasharray:-;" /><path d="M 0.0,-0.0 L 3.3065463576978533e-15,-54.0 L 3.3065463576978533e-15,-54.0 M 5.5109105961630896e-15,-90.0 L 5.5109105961630896e-15,-90.0 L 8.817456953860943e-15,-144.0" style="stroke:black;fill:none;stroke-width:2.0;stroke-dasharray:-;stroke-linecap:round;stroke-linejoin:round;" /><path d="M 3.857637417314163e-15,-63.0 L 4.408728476930472e-15,-72.0" style="stroke:black;fill:none;stroke-width:2.0;stroke-dasharray:-;stroke-linecap:round;stroke-linejoin:round;" /><path d="M 4.8373548566320455e-15 -79.0 L 2.700000000000004 -72.0 L -2.6999999999999953 -72.0 Z" style="stroke:black;fill:black;stroke-linecap:butt;stroke-linejoin:miter;" /><path d="M 8.817456953860943e-15,-144.0 L 54.00000000000001,-144.0 L 108.00000000000001,-144.0" style="stroke:black;fill:none;stroke-width:2.0;stroke-dasharray:-;stroke-linecap:round;stroke-linejoin:round;" /><path d="M 108.00000000000001,-144.0 L 108.0,-90.0 L 117.0,-87.00000000000001 L 99.0,-81.0 L 117.0,-75.0 L 99.0,-69.00000000000001 L 117.0,-63.0 L 99.0,-57.00000000000001 L 108.0,-54.0 L 107.99999999999999,-0.0" style="stroke:black;fill:none;stroke-width:2.0;stroke-dasharray:-;stroke-linecap:round;stroke-linejoin:round;" /><path d="M 108.00000000000001,-144.0 L 162.0,-144.0 L 165.00000000000003,-153.0 L 171.0,-135.0 L 177.0,-153.0 L 183.00000000000003,-135.0 L 189.0,-153.0 L 195.0,-135.0 L 198.0,-144.0 L 252.0,-144.0" style="stroke:black;fill:none;stroke-width:2.0;stroke-dasharray:-;stroke-linecap:round;stroke-linejoin:round;" /><path d="M 252.0,-144.0 L 306.0,-144.0 L 360.0,-144.0" style="stroke:black;fill:none;stroke-width:2.0;stroke-dasharray:-;stroke-linecap:round;stroke-linejoin:round;" /><path d="M 252.0,-144.0 L 252.0,-90.0 L 261.0,-87.00000000000001 L 243.0,-81.0 L 261.0,-75.0 L 243.0,-69.00000000000001 L 261.0,-63.0 L 243.0,-57.00000000000001 L 251.99999999999997,-54.0 L 251.99999999999997,-0.0" style="stroke:black;fill:none;stroke-width:2.0;stroke-dasharray:-;stroke-linecap:round;stroke-linejoin:round;" /><path d="M 360.0,-144.0 L 360.0,-90.0 L 360.0,-90.0 M 360.0,-54.0 L 360.0,-54.0 L 360.0,-0.0" style="stroke:black;fill:none;stroke-width:2.0;stroke-dasharray:-;stroke-linecap:round;stroke-linejoin:round;" /><path d="M 360.0,-81.0 L 360.0,-72.0" style="stroke:black;fill:none;stroke-width:2.0;stroke-dasharray:-;stroke-linecap:round;stroke-linejoin:round;" /><path d="M 360.0 -65.0 L 357.3 -72.0 L 362.7 -72.0 Z" style="stroke:black;fill:black;stroke-linecap:butt;stroke-linejoin:miter;" /><path d="M 360.0,-0.0 L 180.0,-2.2043642384652358e-14 L 0.0,-4.4087284769304716e-14" style="stroke:black;fill:none;stroke-width:2.0;stroke-dasharray:-;stroke-linecap:round;stroke-linejoin:round;" /><path d="M 107.99999999999999,-0.0 L 107.99999999999999,14.4 L 98.99999999999999,14.4 L 116.99999999999999,14.4 M 101.69999999999999,18.72 L 114.29999999999998,18.72 M 106.19999999999999,23.04 L 109.79999999999998,23.04" style="stroke:black;fill:none;stroke-width:2.0;stroke-dasharray:-;stroke-linecap:round;stroke-linejoin:round;" /><text x="21.6" y="-86.0" dominant-baseline="central" fill="black" font-size="14.0" font-family="sans" text-anchor="start"><tspan x="21.6" dy="14.0">1A</tspan></text><text x="-21.599999999999994" y="-86.0" dominant-baseline="central" fill="black" font-size="14.0" font-family="sans" text-anchor="end"><tspan x="-21.599999999999994" dy="14.0">I<tspan baseline-shift="sub" font-size="smaller">S1</tspan></tspan></text><text x="120.60000000000001" y="-86.0" dominant-baseline="central" fill="black" font-size="14.0" font-family="sans" text-anchor="start"><tspan x="120.60000000000001" dy="14.0">8Ω</tspan></text><text x="95.39999999999999" y="-86.0" dominant-baseline="central" fill="black" font-size="14.0" font-family="sans" text-anchor="end"><tspan x="95.39999999999999" dy="14.0">R₁</tspan></text><text x="180.0" y="-145.4" dominant-baseline="hanging" fill="black" font-size="14.0" font-family="sans" text-anchor="middle"><tspan x="180.0" dy="14.0">2Ω</tspan></text><text x="180.0" y="-170.6" dominant-baseline="ideographic" fill="black" font-size="14.0" font-family="sans" text-anchor="middle"><tspan x="180.0" dy="14.0">R₂</tspan></text><text x="264.59999999999997" y="-86.0" dominant-baseline="central" fill="black" font-size="14.0" font-family="sans" text-anchor="start"><tspan x="264.59999999999997" dy="14.0">6Ω</tspan></text><text x="239.39999999999998" y="-86.0" dominant-baseline="central" fill="black" font-size="14.0" font-family="sans" text-anchor="end"><tspan x="239.39999999999998" dy="14.0">R₃</tspan></text><text x="381.59999999999997" y="-86.0" dominant-baseline="central" fill="black" font-size="14.0" font-family="sans" text-anchor="start"><tspan x="381.59999999999997" dy="14.0">2A</tspan></text><text x="338.40000000000003" y="-86.0" dominant-baseline="central" fill="black" font-size="14.0" font-family="sans" text-anchor="end"><tspan x="338.40000000000003" dy="14.0">I<tspan baseline-shift="sub" font-size="smaller">S2</tspan></tspan></text><circle cx="108.00000000000001" cy="-144.0" r="2.6999999999999997" style="stroke:black;fill:black;stroke-width:2.0;stroke-dasharray:-;" /><text x="108.00000000000001" y="-164.29999999999998" dominant-baseline="ideographic" fill="black" font-size="14.0" font-family="sans" text-anchor="middle"><tspan x="108.00000000000001" dy="14.0">V₁</tspan></text><circle cx="252.0" cy="-144.0" r="2.6999999999999997" style="stroke:black;fill:black;stroke-width:2.0;stroke-dasharray:-;" /><text x="252.0" y="-164.29999999999998" dominant-baseline="ideographic" fill="black" font-size="14.0" font-family="sans" text-anchor="middle"><tspan x="252.0" dy="14.0">V₂</tspan></text><path d="M 108.0,-111.60000000000001 L 108.0,-111.6" style="stroke:black;fill:none;stroke-width:2.0;stroke-dasharray:-;stroke-linecap:round;stroke-linejoin:round;" /><path d="M 108.0 -102.8 L 102.6 -111.60000000000001 L 113.4 -111.60000000000001 Z" style="stroke:black;fill:black;stroke-linecap:butt;stroke-linejoin:miter;" /><text x="97.2" y="-120.2" dominant-baseline="central" fill="black" font-size="14.0" font-family="sans" text-anchor="end"><tspan x="97.2" dy="14.0">I₁</tspan></text><path d="M 140.4,-144.0 L 140.4,-144.0" style="stroke:black;fill:none;stroke-width:2.0;stroke-dasharray:-;stroke-linecap:round;stroke-linejoin:round;" /><path d="M 149.20000000000002 -144.0 L 140.4 -138.6 L 140.4 -149.4 Z" style="stroke:black;fill:black;stroke-linecap:butt;stroke-linejoin:miter;" /><text x="145.79999999999998" y="-168.79999999999998" dominant-baseline="ideographic" fill="black" font-size="14.0" font-family="sans" text-anchor="middle"><tspan x="145.79999999999998" dy="14.0">I₂</tspan></text><path d="M 252.0,-111.60000000000001 L 252.0,-111.6" style="stroke:black;fill:none;stroke-width:2.0;stroke-dasharray:-;stroke-linecap:round;stroke-linejoin:round;" /><path d="M 252.0 -102.8 L 246.6 -111.60000000000001 L 257.4 -111.60000000000001 Z" style="stroke:black;fill:black;stroke-linecap:butt;stroke-linejoin:miter;" /><text x="241.20000000000002" y="-120.2" dominant-baseline="central" fill="black" font-size="14.0" font-family="sans" text-anchor="end"><tspan x="241.20000000000002" dy="14.0">I₃</tspan></text></svg>